solid OpenSCAD_Model
  facet normal -1 0 0
    outer loop
      vertex -73.7 0.599999 -17.7
      vertex -73.7 39.8 17.7
      vertex -73.7 39.8 -17.7
    endloop
  endfacet
  facet normal -1 -0 0
    outer loop
      vertex -73.7 39.8 17.7
      vertex -73.7 0.599999 -17.7
      vertex -73.7 0.599999 17.7
    endloop
  endfacet
  facet normal 0 0 1
    outer loop
      vertex 51.9021 24.382 17.7
      vertex 73.7 39.8 17.7
      vertex 52 25 17.7
    endloop
  endfacet
  facet normal 0 0 1
    outer loop
      vertex 73.7 39.8 17.7
      vertex 51.9021 25.618 17.7
      vertex 52 25 17.7
    endloop
  endfacet
  facet normal 0 0 1
    outer loop
      vertex 73.7 39.8 17.7
      vertex 51.618 26.1756 17.7
      vertex 51.9021 25.618 17.7
    endloop
  endfacet
  facet normal 0 0 1
    outer loop
      vertex 73.7 39.8 17.7
      vertex 51.1756 26.618 17.7
      vertex 51.618 26.1756 17.7
    endloop
  endfacet
  facet normal 0 0 1
    outer loop
      vertex 73.7 39.8 17.7
      vertex 50.618 26.9021 17.7
      vertex 51.1756 26.618 17.7
    endloop
  endfacet
  facet normal 0 0 1
    outer loop
      vertex 73.7 39.8 17.7
      vertex 50 27 17.7
      vertex 50.618 26.9021 17.7
    endloop
  endfacet
  facet normal -0 0 1
    outer loop
      vertex 40.9271 27.8532 17.7
      vertex 50 27 17.7
      vertex 73.7 39.8 17.7
    endloop
  endfacet
  facet normal 0 0 1
    outer loop
      vertex 50 27 17.7
      vertex 40.9271 27.8532 17.7
      vertex 49.382 26.9021 17.7
    endloop
  endfacet
  facet normal 0 0 1
    outer loop
      vertex 48.0979 25.618 17.7
      vertex 43 25 17.7
      vertex 48 25 17.7
    endloop
  endfacet
  facet normal -0 0 1
    outer loop
      vertex 42.8532 25.9271 17.7
      vertex 48.0979 25.618 17.7
      vertex 48.382 26.1756 17.7
    endloop
  endfacet
  facet normal 0 0 1
    outer loop
      vertex 42.4271 26.7634 17.7
      vertex 48.382 26.1756 17.7
      vertex 48.8244 26.618 17.7
    endloop
  endfacet
  facet normal -0 -0 1
    outer loop
      vertex 41.7634 27.4271 17.7
      vertex 49.382 26.9021 17.7
      vertex 40.9271 27.8532 17.7
    endloop
  endfacet
  facet normal 0 0 1
    outer loop
      vertex 48.0979 25.618 17.7
      vertex 42.8532 25.9271 17.7
      vertex 43 25 17.7
    endloop
  endfacet
  facet normal 0 0 1
    outer loop
      vertex 48.382 26.1756 17.7
      vertex 42.4271 26.7634 17.7
      vertex 42.8532 25.9271 17.7
    endloop
  endfacet
  facet normal 0 0 1
    outer loop
      vertex 48.8244 26.618 17.7
      vertex 41.7634 27.4271 17.7
      vertex 42.4271 26.7634 17.7
    endloop
  endfacet
  facet normal 0 0 1
    outer loop
      vertex 49.382 26.9021 17.7
      vertex 41.7634 27.4271 17.7
      vertex 48.8244 26.618 17.7
    endloop
  endfacet
  facet normal 0 0 1
    outer loop
      vertex 73.7 39.8 17.7
      vertex 40 28 17.7
      vertex 40.9271 27.8532 17.7
    endloop
  endfacet
  facet normal 0 0 1
    outer loop
      vertex 73.7 39.8 17.7
      vertex 39.0729 27.8532 17.7
      vertex 40 28 17.7
    endloop
  endfacet
  facet normal 0 0 1
    outer loop
      vertex 37.1468 25.9271 17.7
      vertex -73.7 39.8 17.7
      vertex 37 25 17.7
    endloop
  endfacet
  facet normal 0 0 1
    outer loop
      vertex 37.5729 26.7634 17.7
      vertex -73.7 39.8 17.7
      vertex 37.1468 25.9271 17.7
    endloop
  endfacet
  facet normal 0 0 1
    outer loop
      vertex 38.2366 27.4271 17.7
      vertex -73.7 39.8 17.7
      vertex 37.5729 26.7634 17.7
    endloop
  endfacet
  facet normal 0 0 1
    outer loop
      vertex 39.0729 27.8532 17.7
      vertex -73.7 39.8 17.7
      vertex 38.2366 27.4271 17.7
    endloop
  endfacet
  facet normal -0 0 1
    outer loop
      vertex -73.7 39.8 17.7
      vertex 39.0729 27.8532 17.7
      vertex 73.7 39.8 17.7
    endloop
  endfacet
  facet normal 0 0 1
    outer loop
      vertex 73.7 39.8 17.7
      vertex 51.9021 24.382 17.7
      vertex 73.7 0.599999 17.7
    endloop
  endfacet
  facet normal -0 0 1
    outer loop
      vertex 51.618 23.8244 17.7
      vertex 73.7 0.599999 17.7
      vertex 51.9021 24.382 17.7
    endloop
  endfacet
  facet normal -0 0 1
    outer loop
      vertex 51.1756 23.382 17.7
      vertex 73.7 0.599999 17.7
      vertex 51.618 23.8244 17.7
    endloop
  endfacet
  facet normal -0 0 1
    outer loop
      vertex 50.618 23.0979 17.7
      vertex 73.7 0.599999 17.7
      vertex 51.1756 23.382 17.7
    endloop
  endfacet
  facet normal -0 0 1
    outer loop
      vertex 50 23 17.7
      vertex 73.7 0.599999 17.7
      vertex 50.618 23.0979 17.7
    endloop
  endfacet
  facet normal 0 0 1
    outer loop
      vertex 40.9271 22.1468 17.7
      vertex 50 23 17.7
      vertex 49.382 23.0979 17.7
    endloop
  endfacet
  facet normal 0 0 1
    outer loop
      vertex 41.7634 22.5729 17.7
      vertex 49.382 23.0979 17.7
      vertex 48.8244 23.382 17.7
    endloop
  endfacet
  facet normal -0 0 1
    outer loop
      vertex 43 25 17.7
      vertex 48.0979 24.382 17.7
      vertex 48 25 17.7
    endloop
  endfacet
  facet normal 0 0 1
    outer loop
      vertex 42.8532 24.0729 17.7
      vertex 48.0979 24.382 17.7
      vertex 43 25 17.7
    endloop
  endfacet
  facet normal 0 0 1
    outer loop
      vertex 48.0979 24.382 17.7
      vertex 42.8532 24.0729 17.7
      vertex 48.382 23.8244 17.7
    endloop
  endfacet
  facet normal 0 0 1
    outer loop
      vertex 42.4271 23.2366 17.7
      vertex 48.382 23.8244 17.7
      vertex 42.8532 24.0729 17.7
    endloop
  endfacet
  facet normal 0 0 1
    outer loop
      vertex 48.382 23.8244 17.7
      vertex 42.4271 23.2366 17.7
      vertex 48.8244 23.382 17.7
    endloop
  endfacet
  facet normal 0 0 1
    outer loop
      vertex 41.7634 22.5729 17.7
      vertex 48.8244 23.382 17.7
      vertex 42.4271 23.2366 17.7
    endloop
  endfacet
  facet normal 0 0 1
    outer loop
      vertex 49.382 23.0979 17.7
      vertex 41.7634 22.5729 17.7
      vertex 40.9271 22.1468 17.7
    endloop
  endfacet
  facet normal 0 0 1
    outer loop
      vertex 50 23 17.7
      vertex 40.9271 22.1468 17.7
      vertex 73.7 0.599999 17.7
    endloop
  endfacet
  facet normal -0 0 1
    outer loop
      vertex 40 22 17.7
      vertex 73.7 0.599999 17.7
      vertex 40.9271 22.1468 17.7
    endloop
  endfacet
  facet normal 0 0 1
    outer loop
      vertex 39.0729 22.1468 17.7
      vertex 73.7 0.599999 17.7
      vertex 40 22 17.7
    endloop
  endfacet
  facet normal 0 0 1
    outer loop
      vertex -73.7 0.599999 17.7
      vertex 39.0729 22.1468 17.7
      vertex 38.2366 22.5729 17.7
    endloop
  endfacet
  facet normal 0 0 1
    outer loop
      vertex -73.7 0.599999 17.7
      vertex 37 25 17.7
      vertex -73.7 39.8 17.7
    endloop
  endfacet
  facet normal 0 0 1
    outer loop
      vertex 37 25 17.7
      vertex -73.7 0.599999 17.7
      vertex 37.1468 24.0729 17.7
    endloop
  endfacet
  facet normal 0 0 1
    outer loop
      vertex 37.1468 24.0729 17.7
      vertex -73.7 0.599999 17.7
      vertex 37.5729 23.2366 17.7
    endloop
  endfacet
  facet normal 0 0 1
    outer loop
      vertex 37.5729 23.2366 17.7
      vertex -73.7 0.599999 17.7
      vertex 38.2366 22.5729 17.7
    endloop
  endfacet
  facet normal 0 0 1
    outer loop
      vertex 39.0729 22.1468 17.7
      vertex -73.7 0.599999 17.7
      vertex 73.7 0.599999 17.7
    endloop
  endfacet
  facet normal 1 -0 0
    outer loop
      vertex 73.7 0.599999 17.7
      vertex 73.7 39.8 -17.7
      vertex 73.7 39.8 17.7
    endloop
  endfacet
  facet normal 1 0 0
    outer loop
      vertex 73.7 39.8 -17.7
      vertex 73.7 0.599999 17.7
      vertex 73.7 0.599999 -17.7
    endloop
  endfacet
  facet normal 0 1 0
    outer loop
      vertex 73.7 39.8 17.7
      vertex 72.5 39.8 16.5
      vertex -73.7 39.8 17.7
    endloop
  endfacet
  facet normal 0 1 0
    outer loop
      vertex 73.7 39.8 17.7
      vertex 72.5 39.8 -16.5
      vertex 72.5 39.8 16.5
    endloop
  endfacet
  facet normal 0 1 0
    outer loop
      vertex 72.5 39.8 -16.5
      vertex 73.7 39.8 -17.7
      vertex -72.5 39.8 -16.5
    endloop
  endfacet
  facet normal 0 1 -0
    outer loop
      vertex 73.7 39.8 -17.7
      vertex 72.5 39.8 -16.5
      vertex 73.7 39.8 17.7
    endloop
  endfacet
  facet normal 0 1 -0
    outer loop
      vertex -72.5 39.8 16.5
      vertex -73.7 39.8 17.7
      vertex 72.5 39.8 16.5
    endloop
  endfacet
  facet normal 0 1 -0
    outer loop
      vertex -72.5 39.8 -16.5
      vertex -73.7 39.8 17.7
      vertex -72.5 39.8 16.5
    endloop
  endfacet
  facet normal 0 1 0
    outer loop
      vertex -72.5 39.8 -16.5
      vertex -73.7 39.8 -17.7
      vertex -73.7 39.8 17.7
    endloop
  endfacet
  facet normal 0 1 0
    outer loop
      vertex -73.7 39.8 -17.7
      vertex -72.5 39.8 -16.5
      vertex 73.7 39.8 -17.7
    endloop
  endfacet
  facet normal 0 0 -1
    outer loop
      vertex -73.7 0.599999 -17.7
      vertex 73.7 39.8 -17.7
      vertex 73.7 0.599999 -17.7
    endloop
  endfacet
  facet normal -0 0 -1
    outer loop
      vertex 73.7 39.8 -17.7
      vertex -73.7 0.599999 -17.7
      vertex -73.7 39.8 -17.7
    endloop
  endfacet
  facet normal 0 -1 0
    outer loop
      vertex 56.5 0.599999 16.5
      vertex -73.7 0.599999 17.7
      vertex -72.5 0.599999 16.5
    endloop
  endfacet
  facet normal 0 -1 0
    outer loop
      vertex -73.7 0.599999 17.7
      vertex -72.5 0.599999 -16.5
      vertex -72.5 0.599999 16.5
    endloop
  endfacet
  facet normal 0 -1 -0
    outer loop
      vertex -72.5 0.599999 -16.5
      vertex -73.7 0.599999 -17.7
      vertex 56.5 0.599999 -16.5
    endloop
  endfacet
  facet normal 0 -1 0
    outer loop
      vertex -73.7 0.599999 -17.7
      vertex -72.5 0.599999 -16.5
      vertex -73.7 0.599999 17.7
    endloop
  endfacet
  facet normal 0 -1 0
    outer loop
      vertex -73.7 0.599999 17.7
      vertex 56.5 0.599999 16.5
      vertex 73.7 0.599999 17.7
    endloop
  endfacet
  facet normal 0 -1 0
    outer loop
      vertex 56.5 0.599999 -16.5
      vertex 73.7 0.599999 17.7
      vertex 56.5 0.599999 16.5
    endloop
  endfacet
  facet normal 0 -1 0
    outer loop
      vertex 56.5 0.599999 -16.5
      vertex 73.7 0.599999 -17.7
      vertex 73.7 0.599999 17.7
    endloop
  endfacet
  facet normal 0 -1 0
    outer loop
      vertex 73.7 0.599999 -17.7
      vertex 56.5 0.599999 -16.5
      vertex -73.7 0.599999 -17.7
    endloop
  endfacet
  facet normal 1 -0 0
    outer loop
      vertex -72.5 0.599999 16.5
      vertex -72.5 28 6.5
      vertex -72.5 28 16.5
    endloop
  endfacet
  facet normal 1 0 0
    outer loop
      vertex -72.5 28 6.5
      vertex -72.5 0.599999 16.5
      vertex -72.5 28 -6.5
    endloop
  endfacet
  facet normal 1 0 0
    outer loop
      vertex -72.5 0.599999 -16.5
      vertex -72.5 28 -6.5
      vertex -72.5 0.599999 16.5
    endloop
  endfacet
  facet normal 1 0 0
    outer loop
      vertex -72.5 28 -6.5
      vertex -72.5 0.599999 -16.5
      vertex -72.5 28 -16.5
    endloop
  endfacet
  facet normal 1 -0 0
    outer loop
      vertex -72.5 28 6.5
      vertex -72.5 38 -6.5
      vertex -72.5 38 6.5
    endloop
  endfacet
  facet normal 1 0 0
    outer loop
      vertex -72.5 38 -6.5
      vertex -72.5 28 6.5
      vertex -72.5 28 -6.5
    endloop
  endfacet
  facet normal 1 0 0
    outer loop
      vertex -72.5 38 6.5
      vertex -72.5 39.8 16.5
      vertex -72.5 38 16.5
    endloop
  endfacet
  facet normal 1 0 0
    outer loop
      vertex -72.5 39.8 16.5
      vertex -72.5 38 6.5
      vertex -72.5 39.8 -16.5
    endloop
  endfacet
  facet normal 1 -0 0
    outer loop
      vertex -72.5 38 -6.5
      vertex -72.5 39.8 -16.5
      vertex -72.5 38 6.5
    endloop
  endfacet
  facet normal 1 0 0
    outer loop
      vertex -72.5 39.8 -16.5
      vertex -72.5 38 -6.5
      vertex -72.5 38 -16.5
    endloop
  endfacet
  facet normal 0 0 -1
    outer loop
      vertex 40 22 16.5
      vertex 56.5 4.6 16.5
      vertex 56.5 0.599999 16.5
    endloop
  endfacet
  facet normal 0 0 -1
    outer loop
      vertex 56.5 4.6 16.5
      vertex 51.9021 24.382 16.5
      vertex 52 25 16.5
    endloop
  endfacet
  facet normal 0 0 -1
    outer loop
      vertex 56.5 4.6 16.5
      vertex 51.618 23.8244 16.5
      vertex 51.9021 24.382 16.5
    endloop
  endfacet
  facet normal 0 0 -1
    outer loop
      vertex 56.5 4.6 16.5
      vertex 51.1756 23.382 16.5
      vertex 51.618 23.8244 16.5
    endloop
  endfacet
  facet normal 0 0 -1
    outer loop
      vertex 56.5 4.6 16.5
      vertex 50.618 23.0979 16.5
      vertex 51.1756 23.382 16.5
    endloop
  endfacet
  facet normal 0 0 -1
    outer loop
      vertex 56.5 4.6 16.5
      vertex 50 23 16.5
      vertex 50.618 23.0979 16.5
    endloop
  endfacet
  facet normal 0 0 -1
    outer loop
      vertex 56.5 4.6 16.5
      vertex 49.382 23.0979 16.5
      vertex 50 23 16.5
    endloop
  endfacet
  facet normal 0 0 -1
    outer loop
      vertex 56.5 4.6 16.5
      vertex 40.9271 22.1468 16.5
      vertex 49.382 23.0979 16.5
    endloop
  endfacet
  facet normal 0 -0 -1
    outer loop
      vertex 41.7634 22.5729 16.5
      vertex 49.382 23.0979 16.5
      vertex 40.9271 22.1468 16.5
    endloop
  endfacet
  facet normal 0 -0 -1
    outer loop
      vertex 42.4271 23.2366 16.5
      vertex 48.8244 23.382 16.5
      vertex 41.7634 22.5729 16.5
    endloop
  endfacet
  facet normal 0 0 -1
    outer loop
      vertex 48.0979 24.382 16.5
      vertex 43 25 16.5
      vertex 48 25 16.5
    endloop
  endfacet
  facet normal -0 0 -1
    outer loop
      vertex 48.8244 23.382 16.5
      vertex 42.4271 23.2366 16.5
      vertex 48.382 23.8244 16.5
    endloop
  endfacet
  facet normal -0 0 -1
    outer loop
      vertex 48.0979 24.382 16.5
      vertex 42.8532 24.0729 16.5
      vertex 43 25 16.5
    endloop
  endfacet
  facet normal 0 0 -1
    outer loop
      vertex 48.382 23.8244 16.5
      vertex 42.8532 24.0729 16.5
      vertex 48.0979 24.382 16.5
    endloop
  endfacet
  facet normal 0 -0 -1
    outer loop
      vertex 42.8532 24.0729 16.5
      vertex 48.382 23.8244 16.5
      vertex 42.4271 23.2366 16.5
    endloop
  endfacet
  facet normal -0 0 -1
    outer loop
      vertex 49.382 23.0979 16.5
      vertex 41.7634 22.5729 16.5
      vertex 48.8244 23.382 16.5
    endloop
  endfacet
  facet normal 0 0 -1
    outer loop
      vertex 56.5 4.6 16.5
      vertex 40 22 16.5
      vertex 40.9271 22.1468 16.5
    endloop
  endfacet
  facet normal 0 0 -1
    outer loop
      vertex 56.5 0.599999 16.5
      vertex 39.0729 22.1468 16.5
      vertex 40 22 16.5
    endloop
  endfacet
  facet normal 0 0 -1
    outer loop
      vertex 56.5 0.599999 16.5
      vertex 38.2366 22.5729 16.5
      vertex 39.0729 22.1468 16.5
    endloop
  endfacet
  facet normal 0 0 -1
    outer loop
      vertex -72.5 0.599999 16.5
      vertex 38.2366 22.5729 16.5
      vertex 56.5 0.599999 16.5
    endloop
  endfacet
  facet normal 0 0 -1
    outer loop
      vertex 37.1468 24.0729 16.5
      vertex -62.5 28 16.5
      vertex 37 25 16.5
    endloop
  endfacet
  facet normal 0 0 -1
    outer loop
      vertex 37.5729 23.2366 16.5
      vertex -62.5 28 16.5
      vertex 37.1468 24.0729 16.5
    endloop
  endfacet
  facet normal -0 0 -1
    outer loop
      vertex 38.2366 22.5729 16.5
      vertex -72.5 0.599999 16.5
      vertex 37.5729 23.2366 16.5
    endloop
  endfacet
  facet normal -0 0 -1
    outer loop
      vertex 37.5729 23.2366 16.5
      vertex -72.5 0.599999 16.5
      vertex -62.5 28 16.5
    endloop
  endfacet
  facet normal -0 0 -1
    outer loop
      vertex -62.5 28 16.5
      vertex -72.5 0.599999 16.5
      vertex -72.5 28 16.5
    endloop
  endfacet
  facet normal 0 0 -1
    outer loop
      vertex 72.5 4.6 16.5
      vertex 62.5 28 16.5
      vertex 72.5 28 16.5
    endloop
  endfacet
  facet normal 0 0 -1
    outer loop
      vertex 52 25 16.5
      vertex 62.5 28 16.5
      vertex 56.5 4.6 16.5
    endloop
  endfacet
  facet normal 0 0 -1
    outer loop
      vertex 56.5 4.6 16.5
      vertex 62.5 28 16.5
      vertex 72.5 4.6 16.5
    endloop
  endfacet
  facet normal 0 0 -1
    outer loop
      vertex 62.5 38 16.5
      vertex 72.5 39.8 16.5
      vertex 72.5 38 16.5
    endloop
  endfacet
  facet normal 0 0 -1
    outer loop
      vertex 51.9021 25.618 16.5
      vertex 62.5 28 16.5
      vertex 52 25 16.5
    endloop
  endfacet
  facet normal 0 0 -1
    outer loop
      vertex 51.618 26.1756 16.5
      vertex 62.5 28 16.5
      vertex 51.9021 25.618 16.5
    endloop
  endfacet
  facet normal 0 0 -1
    outer loop
      vertex 51.1756 26.618 16.5
      vertex 62.5 28 16.5
      vertex 51.618 26.1756 16.5
    endloop
  endfacet
  facet normal -0 0 -1
    outer loop
      vertex 62.5 28 16.5
      vertex 51.1756 26.618 16.5
      vertex 62.5 38 16.5
    endloop
  endfacet
  facet normal 0 0 -1
    outer loop
      vertex 50.618 26.9021 16.5
      vertex 62.5 38 16.5
      vertex 51.1756 26.618 16.5
    endloop
  endfacet
  facet normal 0 0 -1
    outer loop
      vertex 50 27 16.5
      vertex 62.5 38 16.5
      vertex 50.618 26.9021 16.5
    endloop
  endfacet
  facet normal 0 0 -1
    outer loop
      vertex 49.382 26.9021 16.5
      vertex 62.5 38 16.5
      vertex 50 27 16.5
    endloop
  endfacet
  facet normal 0 0 -1
    outer loop
      vertex 41.7634 27.4271 16.5
      vertex 49.382 26.9021 16.5
      vertex 48.8244 26.618 16.5
    endloop
  endfacet
  facet normal 0 0 -1
    outer loop
      vertex 43 25 16.5
      vertex 48.0979 25.618 16.5
      vertex 48 25 16.5
    endloop
  endfacet
  facet normal 0 0 -1
    outer loop
      vertex 42.8532 25.9271 16.5
      vertex 48.0979 25.618 16.5
      vertex 43 25 16.5
    endloop
  endfacet
  facet normal 0 0 -1
    outer loop
      vertex 48.0979 25.618 16.5
      vertex 42.8532 25.9271 16.5
      vertex 48.382 26.1756 16.5
    endloop
  endfacet
  facet normal 0 0 -1
    outer loop
      vertex 42.4271 26.7634 16.5
      vertex 48.382 26.1756 16.5
      vertex 42.8532 25.9271 16.5
    endloop
  endfacet
  facet normal 0 0 -1
    outer loop
      vertex 48.382 26.1756 16.5
      vertex 42.4271 26.7634 16.5
      vertex 48.8244 26.618 16.5
    endloop
  endfacet
  facet normal 0 0 -1
    outer loop
      vertex 41.7634 27.4271 16.5
      vertex 48.8244 26.618 16.5
      vertex 42.4271 26.7634 16.5
    endloop
  endfacet
  facet normal 0 0 -1
    outer loop
      vertex 49.382 26.9021 16.5
      vertex 41.7634 27.4271 16.5
      vertex 40.9271 27.8532 16.5
    endloop
  endfacet
  facet normal 0 0 -1
    outer loop
      vertex 49.382 26.9021 16.5
      vertex 40.9271 27.8532 16.5
      vertex 62.5 38 16.5
    endloop
  endfacet
  facet normal 0 0 -1
    outer loop
      vertex 40 28 16.5
      vertex 62.5 38 16.5
      vertex 40.9271 27.8532 16.5
    endloop
  endfacet
  facet normal 0 0 -1
    outer loop
      vertex 39.0729 27.8532 16.5
      vertex 62.5 38 16.5
      vertex 40 28 16.5
    endloop
  endfacet
  facet normal 0 0 -1
    outer loop
      vertex -62.5 28 16.5
      vertex 37.1468 25.9271 16.5
      vertex 37 25 16.5
    endloop
  endfacet
  facet normal 0 0 -1
    outer loop
      vertex -62.5 38 16.5
      vertex 37.1468 25.9271 16.5
      vertex -62.5 28 16.5
    endloop
  endfacet
  facet normal 0 0 -1
    outer loop
      vertex 37.1468 25.9271 16.5
      vertex -62.5 38 16.5
      vertex 37.5729 26.7634 16.5
    endloop
  endfacet
  facet normal 0 0 -1
    outer loop
      vertex 37.5729 26.7634 16.5
      vertex -62.5 38 16.5
      vertex 38.2366 27.4271 16.5
    endloop
  endfacet
  facet normal 0 0 -1
    outer loop
      vertex 38.2366 27.4271 16.5
      vertex -62.5 38 16.5
      vertex 39.0729 27.8532 16.5
    endloop
  endfacet
  facet normal 0 0 -1
    outer loop
      vertex 39.0729 27.8532 16.5
      vertex -62.5 38 16.5
      vertex 62.5 38 16.5
    endloop
  endfacet
  facet normal 0 0 -1
    outer loop
      vertex 62.5 38 16.5
      vertex -62.5 38 16.5
      vertex 72.5 39.8 16.5
    endloop
  endfacet
  facet normal 0 0 -1
    outer loop
      vertex -72.5 39.8 16.5
      vertex -62.5 38 16.5
      vertex -72.5 38 16.5
    endloop
  endfacet
  facet normal 0 0 -1
    outer loop
      vertex -62.5 38 16.5
      vertex -72.5 39.8 16.5
      vertex 72.5 39.8 16.5
    endloop
  endfacet
  facet normal -1 0 0
    outer loop
      vertex 72.5 4.6 -16.5
      vertex 72.5 28 -6.5
      vertex 72.5 28 -16.5
    endloop
  endfacet
  facet normal -1 -0 0
    outer loop
      vertex 72.5 28 -6.5
      vertex 72.5 4.6 -16.5
      vertex 72.5 28 6.5
    endloop
  endfacet
  facet normal -1 0 0
    outer loop
      vertex 72.5 4.6 16.5
      vertex 72.5 28 6.5
      vertex 72.5 4.6 -16.5
    endloop
  endfacet
  facet normal -1 0 0
    outer loop
      vertex 72.5 28 6.5
      vertex 72.5 4.6 16.5
      vertex 72.5 28 16.5
    endloop
  endfacet
  facet normal -1 0 0
    outer loop
      vertex 72.5 28 -6.5
      vertex 72.5 38 6.5
      vertex 72.5 38 -6.5
    endloop
  endfacet
  facet normal -1 -0 0
    outer loop
      vertex 72.5 38 6.5
      vertex 72.5 28 -6.5
      vertex 72.5 28 6.5
    endloop
  endfacet
  facet normal -1 0 0
    outer loop
      vertex 72.5 38 -6.5
      vertex 72.5 39.8 -16.5
      vertex 72.5 38 -16.5
    endloop
  endfacet
  facet normal -1 0 0
    outer loop
      vertex 72.5 39.8 -16.5
      vertex 72.5 38 -6.5
      vertex 72.5 39.8 16.5
    endloop
  endfacet
  facet normal -1 0 0
    outer loop
      vertex 72.5 38 6.5
      vertex 72.5 39.8 16.5
      vertex 72.5 38 -6.5
    endloop
  endfacet
  facet normal -1 -0 0
    outer loop
      vertex 72.5 39.8 16.5
      vertex 72.5 38 6.5
      vertex 72.5 38 16.5
    endloop
  endfacet
  facet normal 0 0 1
    outer loop
      vertex 72.5 39.8 -16.5
      vertex 62.5 38 -16.5
      vertex 72.5 38 -16.5
    endloop
  endfacet
  facet normal 0 0 1
    outer loop
      vertex -62.5 28 -16.5
      vertex 62.5 28 -16.5
      vertex 62.5 38 -16.5
    endloop
  endfacet
  facet normal 0 0 1
    outer loop
      vertex 62.5 28 -16.5
      vertex -62.5 28 -16.5
      vertex 56.5 4.6 -16.5
    endloop
  endfacet
  facet normal 0 0 1
    outer loop
      vertex -62.5 28 -16.5
      vertex 62.5 38 -16.5
      vertex -62.5 38 -16.5
    endloop
  endfacet
  facet normal 0 0 1
    outer loop
      vertex 72.5 39.8 -16.5
      vertex -62.5 38 -16.5
      vertex 62.5 38 -16.5
    endloop
  endfacet
  facet normal -0 0 1
    outer loop
      vertex -72.5 39.8 -16.5
      vertex -62.5 38 -16.5
      vertex 72.5 39.8 -16.5
    endloop
  endfacet
  facet normal 0 0 1
    outer loop
      vertex -62.5 38 -16.5
      vertex -72.5 39.8 -16.5
      vertex -72.5 38 -16.5
    endloop
  endfacet
  facet normal -0 0 1
    outer loop
      vertex 62.5 28 -16.5
      vertex 72.5 4.6 -16.5
      vertex 72.5 28 -16.5
    endloop
  endfacet
  facet normal 0 0 1
    outer loop
      vertex 72.5 4.6 -16.5
      vertex 62.5 28 -16.5
      vertex 56.5 4.6 -16.5
    endloop
  endfacet
  facet normal 0 0 1
    outer loop
      vertex 56.5 4.6 -16.5
      vertex -62.5 28 -16.5
      vertex 56.5 0.599999 -16.5
    endloop
  endfacet
  facet normal 0 0 1
    outer loop
      vertex -72.5 0.599999 -16.5
      vertex -62.5 28 -16.5
      vertex -72.5 28 -16.5
    endloop
  endfacet
  facet normal 0 0 1
    outer loop
      vertex -62.5 28 -16.5
      vertex -72.5 0.599999 -16.5
      vertex 56.5 0.599999 -16.5
    endloop
  endfacet
  facet normal -1 0 0
    outer loop
      vertex 62.5 28 6.5
      vertex 62.5 38 16.5
      vertex 62.5 38 6.5
    endloop
  endfacet
  facet normal -1 -0 0
    outer loop
      vertex 62.5 38 16.5
      vertex 62.5 28 6.5
      vertex 62.5 28 16.5
    endloop
  endfacet
  facet normal 0 0 -1
    outer loop
      vertex 62.5 28 6.5
      vertex 72.5 38 6.5
      vertex 72.5 28 6.5
    endloop
  endfacet
  facet normal -0 0 -1
    outer loop
      vertex 72.5 38 6.5
      vertex 62.5 28 6.5
      vertex 62.5 38 6.5
    endloop
  endfacet
  facet normal 0 -1 0
    outer loop
      vertex 62.5 28 6.5
      vertex 72.5 28 16.5
      vertex 62.5 28 16.5
    endloop
  endfacet
  facet normal 0 -1 -0
    outer loop
      vertex 72.5 28 16.5
      vertex 62.5 28 6.5
      vertex 72.5 28 6.5
    endloop
  endfacet
  facet normal 0 1 0
    outer loop
      vertex 72.5 38 16.5
      vertex 67.5 38 13
      vertex 62.5 38 16.5
    endloop
  endfacet
  facet normal 0 1 0
    outer loop
      vertex 72.5 38 16.5
      vertex 67.9577 38 12.9275
      vertex 67.5 38 13
    endloop
  endfacet
  facet normal 0 1 0
    outer loop
      vertex 72.5 38 16.5
      vertex 67.9635 38 12.9266
      vertex 67.9577 38 12.9275
    endloop
  endfacet
  facet normal 0 1 0
    outer loop
      vertex 72.5 38 16.5
      vertex 68.3817 38 12.7135
      vertex 67.9635 38 12.9266
    endloop
  endfacet
  facet normal 0 1 0
    outer loop
      vertex 72.5 38 16.5
      vertex 68.7135 38 12.3817
      vertex 68.3817 38 12.7135
    endloop
  endfacet
  facet normal 0 1 0
    outer loop
      vertex 72.5 38 16.5
      vertex 68.9266 38 11.9635
      vertex 68.7135 38 12.3817
    endloop
  endfacet
  facet normal 0 1 0
    outer loop
      vertex 72.5 38 16.5
      vertex 69 38 11.5
      vertex 68.9266 38 11.9635
    endloop
  endfacet
  facet normal 0 1 -0
    outer loop
      vertex 72.5 38 6.5
      vertex 69 38 11.5
      vertex 72.5 38 16.5
    endloop
  endfacet
  facet normal 0 1 0
    outer loop
      vertex 69 38 11.5
      vertex 72.5 38 6.5
      vertex 68.9266 38 11.0365
    endloop
  endfacet
  facet normal 0 1 0
    outer loop
      vertex 72.5 38 6.5
      vertex 67.5058 38 10.0009
      vertex 67.9635 38 10.0734
    endloop
  endfacet
  facet normal 0 1 0
    outer loop
      vertex 67.5058 38 10.0009
      vertex 72.5 38 6.5
      vertex 67.5 38 10
    endloop
  endfacet
  facet normal 0 1 0
    outer loop
      vertex 68.3817 38 10.2865
      vertex 72.5 38 6.5
      vertex 67.9635 38 10.0734
    endloop
  endfacet
  facet normal 0 1 0
    outer loop
      vertex 68.7135 38 10.6183
      vertex 72.5 38 6.5
      vertex 68.3817 38 10.2865
    endloop
  endfacet
  facet normal 0 1 0
    outer loop
      vertex 68.9266 38 11.0365
      vertex 72.5 38 6.5
      vertex 68.7135 38 10.6183
    endloop
  endfacet
  facet normal 0 1 -0
    outer loop
      vertex 67.0423 38 12.9275
      vertex 62.5 38 16.5
      vertex 67.5 38 13
    endloop
  endfacet
  facet normal 0 1 -0
    outer loop
      vertex 67.0365 38 12.9266
      vertex 62.5 38 16.5
      vertex 67.0423 38 12.9275
    endloop
  endfacet
  facet normal 0 1 -0
    outer loop
      vertex 66.6183 38 12.7135
      vertex 62.5 38 16.5
      vertex 67.0365 38 12.9266
    endloop
  endfacet
  facet normal 0 1 -0
    outer loop
      vertex 66.2865 38 12.3817
      vertex 62.5 38 16.5
      vertex 66.6183 38 12.7135
    endloop
  endfacet
  facet normal 0 1 -0
    outer loop
      vertex 66.0734 38 11.9635
      vertex 62.5 38 16.5
      vertex 66.2865 38 12.3817
    endloop
  endfacet
  facet normal 0 1 -0
    outer loop
      vertex 66 38 11.5
      vertex 62.5 38 16.5
      vertex 66.0734 38 11.9635
    endloop
  endfacet
  facet normal 0 1 0
    outer loop
      vertex 62.5 38 6.5
      vertex 66 38 11.5
      vertex 66.0734 38 11.0365
    endloop
  endfacet
  facet normal 0 1 0
    outer loop
      vertex 62.5 38 6.5
      vertex 66.0734 38 11.0365
      vertex 66.2865 38 10.6183
    endloop
  endfacet
  facet normal 0 1 0
    outer loop
      vertex 62.5 38 6.5
      vertex 67.4942 38 10.0009
      vertex 67.5 38 10
    endloop
  endfacet
  facet normal 0 1 0
    outer loop
      vertex 62.5 38 6.5
      vertex 67.5 38 10
      vertex 72.5 38 6.5
    endloop
  endfacet
  facet normal 0 1 0
    outer loop
      vertex 67.4942 38 10.0009
      vertex 62.5 38 6.5
      vertex 67.0365 38 10.0734
    endloop
  endfacet
  facet normal 0 1 0
    outer loop
      vertex 66 38 11.5
      vertex 62.5 38 6.5
      vertex 62.5 38 16.5
    endloop
  endfacet
  facet normal 0 1 0
    outer loop
      vertex 66.6183 38 10.2865
      vertex 62.5 38 6.5
      vertex 66.2865 38 10.6183
    endloop
  endfacet
  facet normal 0 1 0
    outer loop
      vertex 67.0365 38 10.0734
      vertex 62.5 38 6.5
      vertex 66.6183 38 10.2865
    endloop
  endfacet
  facet normal -0.987688 0 -0.15644
    outer loop
      vertex 69 30.1 11.5
      vertex 68.9266 38 11.9635
      vertex 69 38 11.5
    endloop
  endfacet
  facet normal -0.987688 -0 -0.15644
    outer loop
      vertex 68.9266 38 11.9635
      vertex 69 30.1 11.5
      vertex 68.9266 30.1 11.9635
    endloop
  endfacet
  facet normal -0.15648 1.19231e-007 0.987681
    outer loop
      vertex 67.5 30.1 10
      vertex 67.5058 38 10.0009
      vertex 67.5 38 10
    endloop
  endfacet
  facet normal -0.156434 8.44348e-008 0.987688
    outer loop
      vertex 67.5058 38 10.0009
      vertex 67.5 30.1 10
      vertex 67.9635 30.1 10.0734
    endloop
  endfacet
  facet normal 0.156436 3.33076e-008 -0.987688
    outer loop
      vertex 67.0365 30.1 12.9266
      vertex 67.0423 38 12.9275
      vertex 67.5 30.1 13
    endloop
  endfacet
  facet normal 0.15648 0 -0.987681
    outer loop
      vertex 67.0423 38 12.9275
      vertex 67.0365 30.1 12.9266
      vertex 67.0365 38 12.9266
    endloop
  endfacet
  facet normal -0.707106 0 -0.707108
    outer loop
      vertex 68.3817 30.1 12.7135
      vertex 68.7135 38 12.3817
      vertex 68.7135 30.1 12.3817
    endloop
  endfacet
  facet normal -0.707106 0 -0.707108
    outer loop
      vertex 68.7135 38 12.3817
      vertex 68.3817 30.1 12.7135
      vertex 68.3817 38 12.7135
    endloop
  endfacet
  facet normal -0.891007 0 -0.453989
    outer loop
      vertex 68.9266 30.1 11.9635
      vertex 68.7135 38 12.3817
      vertex 68.9266 38 11.9635
    endloop
  endfacet
  facet normal -0.891007 -0 -0.453989
    outer loop
      vertex 68.7135 38 12.3817
      vertex 68.9266 30.1 11.9635
      vertex 68.7135 30.1 12.3817
    endloop
  endfacet
  facet normal 0.707106 0 0.707108
    outer loop
      vertex 66.2865 38 10.6183
      vertex 66.6183 30.1 10.2865
      vertex 66.6183 38 10.2865
    endloop
  endfacet
  facet normal 0.707106 0 0.707108
    outer loop
      vertex 66.6183 30.1 10.2865
      vertex 66.2865 38 10.6183
      vertex 66.2865 30.1 10.6183
    endloop
  endfacet
  facet normal 0.156436 0 0.987688
    outer loop
      vertex 67.4942 38 10.0009
      vertex 67.0365 38 10.0734
      vertex 67.0365 30.1 10.0734
    endloop
  endfacet
  facet normal -0.453991 0 0.891006
    outer loop
      vertex 67.9635 38 10.0734
      vertex 68.3817 30.1 10.2865
      vertex 68.3817 38 10.2865
    endloop
  endfacet
  facet normal -0.453991 0 0.891006
    outer loop
      vertex 68.3817 30.1 10.2865
      vertex 67.9635 38 10.0734
      vertex 67.9635 30.1 10.0734
    endloop
  endfacet
  facet normal -0.156434 -1.19232e-007 -0.987688
    outer loop
      vertex 67.5 38 13
      vertex 67.9577 38 12.9275
      vertex 67.5 30.1 13
    endloop
  endfacet
  facet normal 0 1 0
    outer loop
      vertex 67.9635 30.1 12.9266
      vertex 67.0365 30.1 12.9266
      vertex 67.5 30.1 13
    endloop
  endfacet
  facet normal 0 1 0
    outer loop
      vertex 68.3817 30.1 12.7135
      vertex 67.0365 30.1 12.9266
      vertex 67.9635 30.1 12.9266
    endloop
  endfacet
  facet normal 0 1 0
    outer loop
      vertex 68.3817 30.1 12.7135
      vertex 66.6183 30.1 12.7135
      vertex 67.0365 30.1 12.9266
    endloop
  endfacet
  facet normal 0 1 0
    outer loop
      vertex 68.7135 30.1 12.3817
      vertex 66.6183 30.1 12.7135
      vertex 68.3817 30.1 12.7135
    endloop
  endfacet
  facet normal 0 1 0
    outer loop
      vertex 68.7135 30.1 12.3817
      vertex 66.2865 30.1 12.3817
      vertex 66.6183 30.1 12.7135
    endloop
  endfacet
  facet normal 0 1 0
    outer loop
      vertex 68.9266 30.1 11.9635
      vertex 66.2865 30.1 12.3817
      vertex 68.7135 30.1 12.3817
    endloop
  endfacet
  facet normal 0 1 0
    outer loop
      vertex 68.9266 30.1 11.9635
      vertex 66.0734 30.1 11.9635
      vertex 66.2865 30.1 12.3817
    endloop
  endfacet
  facet normal 0 1 0
    outer loop
      vertex 69 30.1 11.5
      vertex 66.0734 30.1 11.9635
      vertex 68.9266 30.1 11.9635
    endloop
  endfacet
  facet normal 0 1 0
    outer loop
      vertex 69 30.1 11.5
      vertex 66 30.1 11.5
      vertex 66.0734 30.1 11.9635
    endloop
  endfacet
  facet normal 0 1 -0
    outer loop
      vertex 68.9266 30.1 11.0365
      vertex 66 30.1 11.5
      vertex 69 30.1 11.5
    endloop
  endfacet
  facet normal 0 1 0
    outer loop
      vertex 68.9266 30.1 11.0365
      vertex 66.0734 30.1 11.0365
      vertex 66 30.1 11.5
    endloop
  endfacet
  facet normal 0 1 -0
    outer loop
      vertex 68.7135 30.1 10.6183
      vertex 66.0734 30.1 11.0365
      vertex 68.9266 30.1 11.0365
    endloop
  endfacet
  facet normal 0 1 0
    outer loop
      vertex 68.7135 30.1 10.6183
      vertex 66.2865 30.1 10.6183
      vertex 66.0734 30.1 11.0365
    endloop
  endfacet
  facet normal 0 1 -0
    outer loop
      vertex 68.3817 30.1 10.2865
      vertex 66.2865 30.1 10.6183
      vertex 68.7135 30.1 10.6183
    endloop
  endfacet
  facet normal 0 1 0
    outer loop
      vertex 68.3817 30.1 10.2865
      vertex 66.6183 30.1 10.2865
      vertex 66.2865 30.1 10.6183
    endloop
  endfacet
  facet normal 0 1 -0
    outer loop
      vertex 67.9635 30.1 10.0734
      vertex 66.6183 30.1 10.2865
      vertex 68.3817 30.1 10.2865
    endloop
  endfacet
  facet normal 0 1 0
    outer loop
      vertex 67.9635 30.1 10.0734
      vertex 67.0365 30.1 10.0734
      vertex 66.6183 30.1 10.2865
    endloop
  endfacet
  facet normal -0 1 0
    outer loop
      vertex 67.0365 30.1 10.0734
      vertex 67.9635 30.1 10.0734
      vertex 67.5 30.1 10
    endloop
  endfacet
  facet normal 0.987688 0 -0.15644
    outer loop
      vertex 66.0734 30.1 11.9635
      vertex 66 38 11.5
      vertex 66.0734 38 11.9635
    endloop
  endfacet
  facet normal 0.987688 0 -0.15644
    outer loop
      vertex 66 38 11.5
      vertex 66.0734 30.1 11.9635
      vertex 66 30.1 11.5
    endloop
  endfacet
  facet normal 0.891007 0 -0.453989
    outer loop
      vertex 66.2865 30.1 12.3817
      vertex 66.0734 38 11.9635
      vertex 66.2865 38 12.3817
    endloop
  endfacet
  facet normal 0.891007 0 -0.453989
    outer loop
      vertex 66.0734 38 11.9635
      vertex 66.2865 30.1 12.3817
      vertex 66.0734 30.1 11.9635
    endloop
  endfacet
  facet normal 0.707106 0 -0.707108
    outer loop
      vertex 66.2865 30.1 12.3817
      vertex 66.6183 38 12.7135
      vertex 66.6183 30.1 12.7135
    endloop
  endfacet
  facet normal 0.707106 0 -0.707108
    outer loop
      vertex 66.6183 38 12.7135
      vertex 66.2865 30.1 12.3817
      vertex 66.2865 38 12.3817
    endloop
  endfacet
  facet normal 0.15648 1.19231e-007 0.987681
    outer loop
      vertex 67.4942 38 10.0009
      vertex 67.5 30.1 10
      vertex 67.5 38 10
    endloop
  endfacet
  facet normal 0.156434 8.44348e-008 0.987688
    outer loop
      vertex 67.5 30.1 10
      vertex 67.4942 38 10.0009
      vertex 67.0365 30.1 10.0734
    endloop
  endfacet
  facet normal 0.453991 0 0.891006
    outer loop
      vertex 66.6183 38 10.2865
      vertex 67.0365 30.1 10.0734
      vertex 67.0365 38 10.0734
    endloop
  endfacet
  facet normal 0.453991 0 0.891006
    outer loop
      vertex 67.0365 30.1 10.0734
      vertex 66.6183 38 10.2865
      vertex 66.6183 30.1 10.2865
    endloop
  endfacet
  facet normal -0.156436 0 0.987688
    outer loop
      vertex 67.9635 30.1 10.0734
      vertex 67.9635 38 10.0734
      vertex 67.5058 38 10.0009
    endloop
  endfacet
  facet normal -0.707106 0 0.707108
    outer loop
      vertex 68.3817 38 10.2865
      vertex 68.7135 30.1 10.6183
      vertex 68.7135 38 10.6183
    endloop
  endfacet
  facet normal -0.707106 0 0.707108
    outer loop
      vertex 68.7135 30.1 10.6183
      vertex 68.3817 38 10.2865
      vertex 68.3817 30.1 10.2865
    endloop
  endfacet
  facet normal -0.453991 0 -0.891006
    outer loop
      vertex 67.9635 30.1 12.9266
      vertex 68.3817 38 12.7135
      vertex 68.3817 30.1 12.7135
    endloop
  endfacet
  facet normal -0.453991 0 -0.891006
    outer loop
      vertex 68.3817 38 12.7135
      vertex 67.9635 30.1 12.9266
      vertex 67.9635 38 12.9266
    endloop
  endfacet
  facet normal -0.15648 0 -0.987681
    outer loop
      vertex 67.9635 30.1 12.9266
      vertex 67.9577 38 12.9275
      vertex 67.9635 38 12.9266
    endloop
  endfacet
  facet normal -0.156436 3.33076e-008 -0.987688
    outer loop
      vertex 67.9577 38 12.9275
      vertex 67.9635 30.1 12.9266
      vertex 67.5 30.1 13
    endloop
  endfacet
  facet normal 0.156434 -1.19232e-007 -0.987688
    outer loop
      vertex 67.5 38 13
      vertex 67.5 30.1 13
      vertex 67.0423 38 12.9275
    endloop
  endfacet
  facet normal -0.891007 0 0.453989
    outer loop
      vertex 68.7135 30.1 10.6183
      vertex 68.9266 38 11.0365
      vertex 68.7135 38 10.6183
    endloop
  endfacet
  facet normal -0.891007 0 0.453989
    outer loop
      vertex 68.9266 38 11.0365
      vertex 68.7135 30.1 10.6183
      vertex 68.9266 30.1 11.0365
    endloop
  endfacet
  facet normal -0.987688 0 0.15644
    outer loop
      vertex 68.9266 30.1 11.0365
      vertex 69 38 11.5
      vertex 68.9266 38 11.0365
    endloop
  endfacet
  facet normal -0.987688 0 0.15644
    outer loop
      vertex 69 38 11.5
      vertex 68.9266 30.1 11.0365
      vertex 69 30.1 11.5
    endloop
  endfacet
  facet normal 0.987688 -0 0.15644
    outer loop
      vertex 66 30.1 11.5
      vertex 66.0734 38 11.0365
      vertex 66 38 11.5
    endloop
  endfacet
  facet normal 0.987688 0 0.15644
    outer loop
      vertex 66.0734 38 11.0365
      vertex 66 30.1 11.5
      vertex 66.0734 30.1 11.0365
    endloop
  endfacet
  facet normal 0.891007 -0 0.453989
    outer loop
      vertex 66.0734 30.1 11.0365
      vertex 66.2865 38 10.6183
      vertex 66.0734 38 11.0365
    endloop
  endfacet
  facet normal 0.891007 0 0.453989
    outer loop
      vertex 66.2865 38 10.6183
      vertex 66.0734 30.1 11.0365
      vertex 66.2865 30.1 10.6183
    endloop
  endfacet
  facet normal 0.453991 0 -0.891006
    outer loop
      vertex 66.6183 30.1 12.7135
      vertex 67.0365 38 12.9266
      vertex 67.0365 30.1 12.9266
    endloop
  endfacet
  facet normal 0.453991 0 -0.891006
    outer loop
      vertex 67.0365 38 12.9266
      vertex 66.6183 30.1 12.7135
      vertex 66.6183 38 12.7135
    endloop
  endfacet
  facet normal -1 0 0
    outer loop
      vertex 62.5 28 -16.5
      vertex 62.5 38 -6.5
      vertex 62.5 38 -16.5
    endloop
  endfacet
  facet normal -1 -0 0
    outer loop
      vertex 62.5 38 -6.5
      vertex 62.5 28 -16.5
      vertex 62.5 28 -6.5
    endloop
  endfacet
  facet normal -0 0 1
    outer loop
      vertex 62.5 38 -6.5
      vertex 72.5 28 -6.5
      vertex 72.5 38 -6.5
    endloop
  endfacet
  facet normal 0 0 1
    outer loop
      vertex 72.5 28 -6.5
      vertex 62.5 38 -6.5
      vertex 62.5 28 -6.5
    endloop
  endfacet
  facet normal 0 -1 0
    outer loop
      vertex 62.5 28 -16.5
      vertex 72.5 28 -6.5
      vertex 62.5 28 -6.5
    endloop
  endfacet
  facet normal 0 -1 -0
    outer loop
      vertex 72.5 28 -6.5
      vertex 62.5 28 -16.5
      vertex 72.5 28 -16.5
    endloop
  endfacet
  facet normal 0 1 0
    outer loop
      vertex 72.5 38 -6.5
      vertex 67.5 38 -10
      vertex 62.5 38 -6.5
    endloop
  endfacet
  facet normal 0 1 0
    outer loop
      vertex 72.5 38 -6.5
      vertex 67.9577 38 -10.0725
      vertex 67.5 38 -10
    endloop
  endfacet
  facet normal 0 1 0
    outer loop
      vertex 72.5 38 -6.5
      vertex 67.9635 38 -10.0734
      vertex 67.9577 38 -10.0725
    endloop
  endfacet
  facet normal 0 1 0
    outer loop
      vertex 72.5 38 -6.5
      vertex 68.3817 38 -10.2865
      vertex 67.9635 38 -10.0734
    endloop
  endfacet
  facet normal 0 1 0
    outer loop
      vertex 72.5 38 -6.5
      vertex 68.7135 38 -10.6183
      vertex 68.3817 38 -10.2865
    endloop
  endfacet
  facet normal 0 1 0
    outer loop
      vertex 72.5 38 -6.5
      vertex 68.9266 38 -11.0365
      vertex 68.7135 38 -10.6183
    endloop
  endfacet
  facet normal 0 1 0
    outer loop
      vertex 72.5 38 -6.5
      vertex 69 38 -11.5
      vertex 68.9266 38 -11.0365
    endloop
  endfacet
  facet normal 0 1 -0
    outer loop
      vertex 72.5 38 -16.5
      vertex 69 38 -11.5
      vertex 72.5 38 -6.5
    endloop
  endfacet
  facet normal 0 1 0
    outer loop
      vertex 69 38 -11.5
      vertex 72.5 38 -16.5
      vertex 68.9266 38 -11.9635
    endloop
  endfacet
  facet normal 0 1 0
    outer loop
      vertex 72.5 38 -16.5
      vertex 67.5058 38 -12.9991
      vertex 67.9635 38 -12.9266
    endloop
  endfacet
  facet normal 0 1 0
    outer loop
      vertex 67.5058 38 -12.9991
      vertex 72.5 38 -16.5
      vertex 67.5 38 -13
    endloop
  endfacet
  facet normal 0 1 0
    outer loop
      vertex 68.3817 38 -12.7135
      vertex 72.5 38 -16.5
      vertex 67.9635 38 -12.9266
    endloop
  endfacet
  facet normal 0 1 0
    outer loop
      vertex 68.7135 38 -12.3817
      vertex 72.5 38 -16.5
      vertex 68.3817 38 -12.7135
    endloop
  endfacet
  facet normal 0 1 0
    outer loop
      vertex 68.9266 38 -11.9635
      vertex 72.5 38 -16.5
      vertex 68.7135 38 -12.3817
    endloop
  endfacet
  facet normal 0 1 -0
    outer loop
      vertex 67.0423 38 -10.0725
      vertex 62.5 38 -6.5
      vertex 67.5 38 -10
    endloop
  endfacet
  facet normal 0 1 -0
    outer loop
      vertex 67.0365 38 -10.0734
      vertex 62.5 38 -6.5
      vertex 67.0423 38 -10.0725
    endloop
  endfacet
  facet normal 0 1 -0
    outer loop
      vertex 66.6183 38 -10.2865
      vertex 62.5 38 -6.5
      vertex 67.0365 38 -10.0734
    endloop
  endfacet
  facet normal 0 1 -0
    outer loop
      vertex 66.2865 38 -10.6183
      vertex 62.5 38 -6.5
      vertex 66.6183 38 -10.2865
    endloop
  endfacet
  facet normal 0 1 -0
    outer loop
      vertex 66.0734 38 -11.0365
      vertex 62.5 38 -6.5
      vertex 66.2865 38 -10.6183
    endloop
  endfacet
  facet normal 0 1 -0
    outer loop
      vertex 66 38 -11.5
      vertex 62.5 38 -6.5
      vertex 66.0734 38 -11.0365
    endloop
  endfacet
  facet normal 0 1 0
    outer loop
      vertex 62.5 38 -16.5
      vertex 66 38 -11.5
      vertex 66.0734 38 -11.9635
    endloop
  endfacet
  facet normal 0 1 0
    outer loop
      vertex 62.5 38 -16.5
      vertex 66.0734 38 -11.9635
      vertex 66.2865 38 -12.3817
    endloop
  endfacet
  facet normal 0 1 0
    outer loop
      vertex 62.5 38 -16.5
      vertex 67.4942 38 -12.9991
      vertex 67.5 38 -13
    endloop
  endfacet
  facet normal 0 1 0
    outer loop
      vertex 62.5 38 -16.5
      vertex 67.5 38 -13
      vertex 72.5 38 -16.5
    endloop
  endfacet
  facet normal 0 1 0
    outer loop
      vertex 67.4942 38 -12.9991
      vertex 62.5 38 -16.5
      vertex 67.0365 38 -12.9266
    endloop
  endfacet
  facet normal 0 1 0
    outer loop
      vertex 66 38 -11.5
      vertex 62.5 38 -16.5
      vertex 62.5 38 -6.5
    endloop
  endfacet
  facet normal 0 1 0
    outer loop
      vertex 66.6183 38 -12.7135
      vertex 62.5 38 -16.5
      vertex 66.2865 38 -12.3817
    endloop
  endfacet
  facet normal 0 1 0
    outer loop
      vertex 67.0365 38 -12.9266
      vertex 62.5 38 -16.5
      vertex 66.6183 38 -12.7135
    endloop
  endfacet
  facet normal -0.987688 0 -0.15644
    outer loop
      vertex 69 30.1 -11.5
      vertex 68.9266 38 -11.0365
      vertex 69 38 -11.5
    endloop
  endfacet
  facet normal -0.987688 -0 -0.15644
    outer loop
      vertex 68.9266 38 -11.0365
      vertex 69 30.1 -11.5
      vertex 68.9266 30.1 -11.0365
    endloop
  endfacet
  facet normal -0.15648 1.19231e-007 0.987681
    outer loop
      vertex 67.5 30.1 -13
      vertex 67.5058 38 -12.9991
      vertex 67.5 38 -13
    endloop
  endfacet
  facet normal -0.156434 8.44348e-008 0.987688
    outer loop
      vertex 67.5058 38 -12.9991
      vertex 67.5 30.1 -13
      vertex 67.9635 30.1 -12.9266
    endloop
  endfacet
  facet normal 0.156436 3.33076e-008 -0.987688
    outer loop
      vertex 67.0365 30.1 -10.0734
      vertex 67.0423 38 -10.0725
      vertex 67.5 30.1 -10
    endloop
  endfacet
  facet normal 0.15648 0 -0.987681
    outer loop
      vertex 67.0423 38 -10.0725
      vertex 67.0365 30.1 -10.0734
      vertex 67.0365 38 -10.0734
    endloop
  endfacet
  facet normal -0.707106 0 -0.707108
    outer loop
      vertex 68.3817 30.1 -10.2865
      vertex 68.7135 38 -10.6183
      vertex 68.7135 30.1 -10.6183
    endloop
  endfacet
  facet normal -0.707106 0 -0.707108
    outer loop
      vertex 68.7135 38 -10.6183
      vertex 68.3817 30.1 -10.2865
      vertex 68.3817 38 -10.2865
    endloop
  endfacet
  facet normal -0.891007 0 -0.453989
    outer loop
      vertex 68.9266 30.1 -11.0365
      vertex 68.7135 38 -10.6183
      vertex 68.9266 38 -11.0365
    endloop
  endfacet
  facet normal -0.891007 -0 -0.453989
    outer loop
      vertex 68.7135 38 -10.6183
      vertex 68.9266 30.1 -11.0365
      vertex 68.7135 30.1 -10.6183
    endloop
  endfacet
  facet normal 0.707106 0 0.707108
    outer loop
      vertex 66.2865 38 -12.3817
      vertex 66.6183 30.1 -12.7135
      vertex 66.6183 38 -12.7135
    endloop
  endfacet
  facet normal 0.707106 0 0.707108
    outer loop
      vertex 66.6183 30.1 -12.7135
      vertex 66.2865 38 -12.3817
      vertex 66.2865 30.1 -12.3817
    endloop
  endfacet
  facet normal 0.156436 0 0.987688
    outer loop
      vertex 67.4942 38 -12.9991
      vertex 67.0365 38 -12.9266
      vertex 67.0365 30.1 -12.9266
    endloop
  endfacet
  facet normal -0.453991 0 0.891006
    outer loop
      vertex 67.9635 38 -12.9266
      vertex 68.3817 30.1 -12.7135
      vertex 68.3817 38 -12.7135
    endloop
  endfacet
  facet normal -0.453991 0 0.891006
    outer loop
      vertex 68.3817 30.1 -12.7135
      vertex 67.9635 38 -12.9266
      vertex 67.9635 30.1 -12.9266
    endloop
  endfacet
  facet normal -0.156434 -1.19232e-007 -0.987688
    outer loop
      vertex 67.5 38 -10
      vertex 67.9577 38 -10.0725
      vertex 67.5 30.1 -10
    endloop
  endfacet
  facet normal 0 1 0
    outer loop
      vertex 67.9635 30.1 -10.0734
      vertex 67.0365 30.1 -10.0734
      vertex 67.5 30.1 -10
    endloop
  endfacet
  facet normal 0 1 0
    outer loop
      vertex 68.3817 30.1 -10.2865
      vertex 67.0365 30.1 -10.0734
      vertex 67.9635 30.1 -10.0734
    endloop
  endfacet
  facet normal 0 1 0
    outer loop
      vertex 68.3817 30.1 -10.2865
      vertex 66.6183 30.1 -10.2865
      vertex 67.0365 30.1 -10.0734
    endloop
  endfacet
  facet normal 0 1 0
    outer loop
      vertex 68.7135 30.1 -10.6183
      vertex 66.6183 30.1 -10.2865
      vertex 68.3817 30.1 -10.2865
    endloop
  endfacet
  facet normal 0 1 0
    outer loop
      vertex 68.7135 30.1 -10.6183
      vertex 66.2865 30.1 -10.6183
      vertex 66.6183 30.1 -10.2865
    endloop
  endfacet
  facet normal 0 1 0
    outer loop
      vertex 68.9266 30.1 -11.0365
      vertex 66.2865 30.1 -10.6183
      vertex 68.7135 30.1 -10.6183
    endloop
  endfacet
  facet normal 0 1 0
    outer loop
      vertex 68.9266 30.1 -11.0365
      vertex 66.0734 30.1 -11.0365
      vertex 66.2865 30.1 -10.6183
    endloop
  endfacet
  facet normal 0 1 0
    outer loop
      vertex 69 30.1 -11.5
      vertex 66.0734 30.1 -11.0365
      vertex 68.9266 30.1 -11.0365
    endloop
  endfacet
  facet normal 0 1 0
    outer loop
      vertex 69 30.1 -11.5
      vertex 66 30.1 -11.5
      vertex 66.0734 30.1 -11.0365
    endloop
  endfacet
  facet normal 0 1 -0
    outer loop
      vertex 68.9266 30.1 -11.9635
      vertex 66 30.1 -11.5
      vertex 69 30.1 -11.5
    endloop
  endfacet
  facet normal 0 1 0
    outer loop
      vertex 68.9266 30.1 -11.9635
      vertex 66.0734 30.1 -11.9635
      vertex 66 30.1 -11.5
    endloop
  endfacet
  facet normal 0 1 -0
    outer loop
      vertex 68.7135 30.1 -12.3817
      vertex 66.0734 30.1 -11.9635
      vertex 68.9266 30.1 -11.9635
    endloop
  endfacet
  facet normal 0 1 0
    outer loop
      vertex 68.7135 30.1 -12.3817
      vertex 66.2865 30.1 -12.3817
      vertex 66.0734 30.1 -11.9635
    endloop
  endfacet
  facet normal 0 1 -0
    outer loop
      vertex 68.3817 30.1 -12.7135
      vertex 66.2865 30.1 -12.3817
      vertex 68.7135 30.1 -12.3817
    endloop
  endfacet
  facet normal 0 1 0
    outer loop
      vertex 68.3817 30.1 -12.7135
      vertex 66.6183 30.1 -12.7135
      vertex 66.2865 30.1 -12.3817
    endloop
  endfacet
  facet normal 0 1 -0
    outer loop
      vertex 67.9635 30.1 -12.9266
      vertex 66.6183 30.1 -12.7135
      vertex 68.3817 30.1 -12.7135
    endloop
  endfacet
  facet normal 0 1 0
    outer loop
      vertex 67.9635 30.1 -12.9266
      vertex 67.0365 30.1 -12.9266
      vertex 66.6183 30.1 -12.7135
    endloop
  endfacet
  facet normal -0 1 0
    outer loop
      vertex 67.0365 30.1 -12.9266
      vertex 67.9635 30.1 -12.9266
      vertex 67.5 30.1 -13
    endloop
  endfacet
  facet normal 0.987688 0 -0.15644
    outer loop
      vertex 66.0734 30.1 -11.0365
      vertex 66 38 -11.5
      vertex 66.0734 38 -11.0365
    endloop
  endfacet
  facet normal 0.987688 0 -0.15644
    outer loop
      vertex 66 38 -11.5
      vertex 66.0734 30.1 -11.0365
      vertex 66 30.1 -11.5
    endloop
  endfacet
  facet normal 0.891007 0 -0.453989
    outer loop
      vertex 66.2865 30.1 -10.6183
      vertex 66.0734 38 -11.0365
      vertex 66.2865 38 -10.6183
    endloop
  endfacet
  facet normal 0.891007 0 -0.453989
    outer loop
      vertex 66.0734 38 -11.0365
      vertex 66.2865 30.1 -10.6183
      vertex 66.0734 30.1 -11.0365
    endloop
  endfacet
  facet normal 0.707106 0 -0.707108
    outer loop
      vertex 66.2865 30.1 -10.6183
      vertex 66.6183 38 -10.2865
      vertex 66.6183 30.1 -10.2865
    endloop
  endfacet
  facet normal 0.707106 0 -0.707108
    outer loop
      vertex 66.6183 38 -10.2865
      vertex 66.2865 30.1 -10.6183
      vertex 66.2865 38 -10.6183
    endloop
  endfacet
  facet normal 0.15648 1.19231e-007 0.987681
    outer loop
      vertex 67.4942 38 -12.9991
      vertex 67.5 30.1 -13
      vertex 67.5 38 -13
    endloop
  endfacet
  facet normal 0.156434 8.44348e-008 0.987688
    outer loop
      vertex 67.5 30.1 -13
      vertex 67.4942 38 -12.9991
      vertex 67.0365 30.1 -12.9266
    endloop
  endfacet
  facet normal 0.453991 0 0.891006
    outer loop
      vertex 66.6183 38 -12.7135
      vertex 67.0365 30.1 -12.9266
      vertex 67.0365 38 -12.9266
    endloop
  endfacet
  facet normal 0.453991 0 0.891006
    outer loop
      vertex 67.0365 30.1 -12.9266
      vertex 66.6183 38 -12.7135
      vertex 66.6183 30.1 -12.7135
    endloop
  endfacet
  facet normal -0.156436 0 0.987688
    outer loop
      vertex 67.9635 30.1 -12.9266
      vertex 67.9635 38 -12.9266
      vertex 67.5058 38 -12.9991
    endloop
  endfacet
  facet normal -0.707106 0 0.707108
    outer loop
      vertex 68.3817 38 -12.7135
      vertex 68.7135 30.1 -12.3817
      vertex 68.7135 38 -12.3817
    endloop
  endfacet
  facet normal -0.707106 0 0.707108
    outer loop
      vertex 68.7135 30.1 -12.3817
      vertex 68.3817 38 -12.7135
      vertex 68.3817 30.1 -12.7135
    endloop
  endfacet
  facet normal -0.453991 0 -0.891006
    outer loop
      vertex 67.9635 30.1 -10.0734
      vertex 68.3817 38 -10.2865
      vertex 68.3817 30.1 -10.2865
    endloop
  endfacet
  facet normal -0.453991 0 -0.891006
    outer loop
      vertex 68.3817 38 -10.2865
      vertex 67.9635 30.1 -10.0734
      vertex 67.9635 38 -10.0734
    endloop
  endfacet
  facet normal -0.15648 0 -0.987681
    outer loop
      vertex 67.9635 30.1 -10.0734
      vertex 67.9577 38 -10.0725
      vertex 67.9635 38 -10.0734
    endloop
  endfacet
  facet normal -0.156436 3.33076e-008 -0.987688
    outer loop
      vertex 67.9577 38 -10.0725
      vertex 67.9635 30.1 -10.0734
      vertex 67.5 30.1 -10
    endloop
  endfacet
  facet normal 0.156434 -1.19232e-007 -0.987688
    outer loop
      vertex 67.5 38 -10
      vertex 67.5 30.1 -10
      vertex 67.0423 38 -10.0725
    endloop
  endfacet
  facet normal -0.891007 0 0.453989
    outer loop
      vertex 68.7135 30.1 -12.3817
      vertex 68.9266 38 -11.9635
      vertex 68.7135 38 -12.3817
    endloop
  endfacet
  facet normal -0.891007 0 0.453989
    outer loop
      vertex 68.9266 38 -11.9635
      vertex 68.7135 30.1 -12.3817
      vertex 68.9266 30.1 -11.9635
    endloop
  endfacet
  facet normal -0.987688 0 0.15644
    outer loop
      vertex 68.9266 30.1 -11.9635
      vertex 69 38 -11.5
      vertex 68.9266 38 -11.9635
    endloop
  endfacet
  facet normal -0.987688 0 0.15644
    outer loop
      vertex 69 38 -11.5
      vertex 68.9266 30.1 -11.9635
      vertex 69 30.1 -11.5
    endloop
  endfacet
  facet normal 0.987688 -0 0.15644
    outer loop
      vertex 66 30.1 -11.5
      vertex 66.0734 38 -11.9635
      vertex 66 38 -11.5
    endloop
  endfacet
  facet normal 0.987688 0 0.15644
    outer loop
      vertex 66.0734 38 -11.9635
      vertex 66 30.1 -11.5
      vertex 66.0734 30.1 -11.9635
    endloop
  endfacet
  facet normal 0.891007 -0 0.453989
    outer loop
      vertex 66.0734 30.1 -11.9635
      vertex 66.2865 38 -12.3817
      vertex 66.0734 38 -11.9635
    endloop
  endfacet
  facet normal 0.891007 0 0.453989
    outer loop
      vertex 66.2865 38 -12.3817
      vertex 66.0734 30.1 -11.9635
      vertex 66.2865 30.1 -12.3817
    endloop
  endfacet
  facet normal 0.453991 0 -0.891006
    outer loop
      vertex 66.6183 30.1 -10.2865
      vertex 67.0365 38 -10.0734
      vertex 67.0365 30.1 -10.0734
    endloop
  endfacet
  facet normal 0.453991 0 -0.891006
    outer loop
      vertex 67.0365 38 -10.0734
      vertex 66.6183 30.1 -10.2865
      vertex 66.6183 38 -10.2865
    endloop
  endfacet
  facet normal 1 -0 0
    outer loop
      vertex -62.5 28 16.5
      vertex -62.5 38 6.5
      vertex -62.5 38 16.5
    endloop
  endfacet
  facet normal 1 0 0
    outer loop
      vertex -62.5 38 6.5
      vertex -62.5 28 16.5
      vertex -62.5 28 6.5
    endloop
  endfacet
  facet normal 0 0 -1
    outer loop
      vertex -72.5 28 6.5
      vertex -62.5 38 6.5
      vertex -62.5 28 6.5
    endloop
  endfacet
  facet normal -0 0 -1
    outer loop
      vertex -62.5 38 6.5
      vertex -72.5 28 6.5
      vertex -72.5 38 6.5
    endloop
  endfacet
  facet normal 0 -1 0
    outer loop
      vertex -72.5 28 6.5
      vertex -62.5 28 16.5
      vertex -72.5 28 16.5
    endloop
  endfacet
  facet normal 0 -1 -0
    outer loop
      vertex -62.5 28 16.5
      vertex -72.5 28 6.5
      vertex -62.5 28 6.5
    endloop
  endfacet
  facet normal 0 1 0
    outer loop
      vertex -62.5 38 16.5
      vertex -67.5 38 13
      vertex -72.5 38 16.5
    endloop
  endfacet
  facet normal 0 1 0
    outer loop
      vertex -62.5 38 16.5
      vertex -67.0423 38 12.9275
      vertex -67.5 38 13
    endloop
  endfacet
  facet normal 0 1 0
    outer loop
      vertex -62.5 38 16.5
      vertex -67.0365 38 12.9266
      vertex -67.0423 38 12.9275
    endloop
  endfacet
  facet normal 0 1 0
    outer loop
      vertex -62.5 38 16.5
      vertex -66.6183 38 12.7135
      vertex -67.0365 38 12.9266
    endloop
  endfacet
  facet normal 0 1 0
    outer loop
      vertex -62.5 38 16.5
      vertex -66.2865 38 12.3817
      vertex -66.6183 38 12.7135
    endloop
  endfacet
  facet normal 0 1 0
    outer loop
      vertex -62.5 38 16.5
      vertex -66.0734 38 11.9635
      vertex -66.2865 38 12.3817
    endloop
  endfacet
  facet normal 0 1 0
    outer loop
      vertex -62.5 38 16.5
      vertex -66 38 11.5
      vertex -66.0734 38 11.9635
    endloop
  endfacet
  facet normal 0 1 -0
    outer loop
      vertex -62.5 38 6.5
      vertex -66 38 11.5
      vertex -62.5 38 16.5
    endloop
  endfacet
  facet normal 0 1 0
    outer loop
      vertex -66 38 11.5
      vertex -62.5 38 6.5
      vertex -66.0734 38 11.0365
    endloop
  endfacet
  facet normal 0 1 0
    outer loop
      vertex -62.5 38 6.5
      vertex -67.4942 38 10.0009
      vertex -67.0365 38 10.0734
    endloop
  endfacet
  facet normal 0 1 0
    outer loop
      vertex -67.4942 38 10.0009
      vertex -62.5 38 6.5
      vertex -67.5 38 10
    endloop
  endfacet
  facet normal 0 1 0
    outer loop
      vertex -66.6183 38 10.2865
      vertex -62.5 38 6.5
      vertex -67.0365 38 10.0734
    endloop
  endfacet
  facet normal 0 1 0
    outer loop
      vertex -66.2865 38 10.6183
      vertex -62.5 38 6.5
      vertex -66.6183 38 10.2865
    endloop
  endfacet
  facet normal 0 1 0
    outer loop
      vertex -66.0734 38 11.0365
      vertex -62.5 38 6.5
      vertex -66.2865 38 10.6183
    endloop
  endfacet
  facet normal 0 1 -0
    outer loop
      vertex -67.9577 38 12.9275
      vertex -72.5 38 16.5
      vertex -67.5 38 13
    endloop
  endfacet
  facet normal 0 1 -0
    outer loop
      vertex -67.9635 38 12.9266
      vertex -72.5 38 16.5
      vertex -67.9577 38 12.9275
    endloop
  endfacet
  facet normal 0 1 -0
    outer loop
      vertex -68.3817 38 12.7135
      vertex -72.5 38 16.5
      vertex -67.9635 38 12.9266
    endloop
  endfacet
  facet normal 0 1 -0
    outer loop
      vertex -68.7135 38 12.3817
      vertex -72.5 38 16.5
      vertex -68.3817 38 12.7135
    endloop
  endfacet
  facet normal 0 1 -0
    outer loop
      vertex -68.9266 38 11.9635
      vertex -72.5 38 16.5
      vertex -68.7135 38 12.3817
    endloop
  endfacet
  facet normal 0 1 -0
    outer loop
      vertex -69 38 11.5
      vertex -72.5 38 16.5
      vertex -68.9266 38 11.9635
    endloop
  endfacet
  facet normal 0 1 0
    outer loop
      vertex -72.5 38 6.5
      vertex -69 38 11.5
      vertex -68.9266 38 11.0365
    endloop
  endfacet
  facet normal 0 1 0
    outer loop
      vertex -72.5 38 6.5
      vertex -68.9266 38 11.0365
      vertex -68.7135 38 10.6183
    endloop
  endfacet
  facet normal 0 1 0
    outer loop
      vertex -72.5 38 6.5
      vertex -67.5058 38 10.0009
      vertex -67.5 38 10
    endloop
  endfacet
  facet normal 0 1 0
    outer loop
      vertex -72.5 38 6.5
      vertex -67.5 38 10
      vertex -62.5 38 6.5
    endloop
  endfacet
  facet normal 0 1 0
    outer loop
      vertex -67.5058 38 10.0009
      vertex -72.5 38 6.5
      vertex -67.9635 38 10.0734
    endloop
  endfacet
  facet normal 0 1 0
    outer loop
      vertex -69 38 11.5
      vertex -72.5 38 6.5
      vertex -72.5 38 16.5
    endloop
  endfacet
  facet normal 0 1 0
    outer loop
      vertex -68.3817 38 10.2865
      vertex -72.5 38 6.5
      vertex -68.7135 38 10.6183
    endloop
  endfacet
  facet normal 0 1 0
    outer loop
      vertex -67.9635 38 10.0734
      vertex -72.5 38 6.5
      vertex -68.3817 38 10.2865
    endloop
  endfacet
  facet normal -0.987688 0 -0.15644
    outer loop
      vertex -66 30.1 11.5
      vertex -66.0734 38 11.9635
      vertex -66 38 11.5
    endloop
  endfacet
  facet normal -0.987688 -0 -0.15644
    outer loop
      vertex -66.0734 38 11.9635
      vertex -66 30.1 11.5
      vertex -66.0734 30.1 11.9635
    endloop
  endfacet
  facet normal -0.15648 1.19231e-007 0.987681
    outer loop
      vertex -67.5 30.1 10
      vertex -67.4942 38 10.0009
      vertex -67.5 38 10
    endloop
  endfacet
  facet normal -0.156434 8.44348e-008 0.987688
    outer loop
      vertex -67.4942 38 10.0009
      vertex -67.5 30.1 10
      vertex -67.0365 30.1 10.0734
    endloop
  endfacet
  facet normal 0.156436 3.33076e-008 -0.987688
    outer loop
      vertex -67.9635 30.1 12.9266
      vertex -67.9577 38 12.9275
      vertex -67.5 30.1 13
    endloop
  endfacet
  facet normal 0.15648 0 -0.987681
    outer loop
      vertex -67.9577 38 12.9275
      vertex -67.9635 30.1 12.9266
      vertex -67.9635 38 12.9266
    endloop
  endfacet
  facet normal -0.707106 0 -0.707108
    outer loop
      vertex -66.6183 30.1 12.7135
      vertex -66.2865 38 12.3817
      vertex -66.2865 30.1 12.3817
    endloop
  endfacet
  facet normal -0.707106 0 -0.707108
    outer loop
      vertex -66.2865 38 12.3817
      vertex -66.6183 30.1 12.7135
      vertex -66.6183 38 12.7135
    endloop
  endfacet
  facet normal -0.891007 0 -0.453989
    outer loop
      vertex -66.0734 30.1 11.9635
      vertex -66.2865 38 12.3817
      vertex -66.0734 38 11.9635
    endloop
  endfacet
  facet normal -0.891007 -0 -0.453989
    outer loop
      vertex -66.2865 38 12.3817
      vertex -66.0734 30.1 11.9635
      vertex -66.2865 30.1 12.3817
    endloop
  endfacet
  facet normal 0.707106 0 0.707108
    outer loop
      vertex -68.7135 38 10.6183
      vertex -68.3817 30.1 10.2865
      vertex -68.3817 38 10.2865
    endloop
  endfacet
  facet normal 0.707106 0 0.707108
    outer loop
      vertex -68.3817 30.1 10.2865
      vertex -68.7135 38 10.6183
      vertex -68.7135 30.1 10.6183
    endloop
  endfacet
  facet normal 0.156436 0 0.987688
    outer loop
      vertex -67.5058 38 10.0009
      vertex -67.9635 38 10.0734
      vertex -67.9635 30.1 10.0734
    endloop
  endfacet
  facet normal -0.453991 0 0.891006
    outer loop
      vertex -67.0365 38 10.0734
      vertex -66.6183 30.1 10.2865
      vertex -66.6183 38 10.2865
    endloop
  endfacet
  facet normal -0.453991 0 0.891006
    outer loop
      vertex -66.6183 30.1 10.2865
      vertex -67.0365 38 10.0734
      vertex -67.0365 30.1 10.0734
    endloop
  endfacet
  facet normal -0.156434 -1.19232e-007 -0.987688
    outer loop
      vertex -67.5 38 13
      vertex -67.0423 38 12.9275
      vertex -67.5 30.1 13
    endloop
  endfacet
  facet normal 0 1 0
    outer loop
      vertex -67.0365 30.1 12.9266
      vertex -67.9635 30.1 12.9266
      vertex -67.5 30.1 13
    endloop
  endfacet
  facet normal 0 1 0
    outer loop
      vertex -66.6183 30.1 12.7135
      vertex -67.9635 30.1 12.9266
      vertex -67.0365 30.1 12.9266
    endloop
  endfacet
  facet normal 0 1 0
    outer loop
      vertex -66.6183 30.1 12.7135
      vertex -68.3817 30.1 12.7135
      vertex -67.9635 30.1 12.9266
    endloop
  endfacet
  facet normal 0 1 0
    outer loop
      vertex -66.2865 30.1 12.3817
      vertex -68.3817 30.1 12.7135
      vertex -66.6183 30.1 12.7135
    endloop
  endfacet
  facet normal 0 1 0
    outer loop
      vertex -66.2865 30.1 12.3817
      vertex -68.7135 30.1 12.3817
      vertex -68.3817 30.1 12.7135
    endloop
  endfacet
  facet normal 0 1 0
    outer loop
      vertex -66.0734 30.1 11.9635
      vertex -68.7135 30.1 12.3817
      vertex -66.2865 30.1 12.3817
    endloop
  endfacet
  facet normal 0 1 0
    outer loop
      vertex -66.0734 30.1 11.9635
      vertex -68.9266 30.1 11.9635
      vertex -68.7135 30.1 12.3817
    endloop
  endfacet
  facet normal 0 1 0
    outer loop
      vertex -66 30.1 11.5
      vertex -68.9266 30.1 11.9635
      vertex -66.0734 30.1 11.9635
    endloop
  endfacet
  facet normal 0 1 0
    outer loop
      vertex -66 30.1 11.5
      vertex -69 30.1 11.5
      vertex -68.9266 30.1 11.9635
    endloop
  endfacet
  facet normal 0 1 -0
    outer loop
      vertex -66.0734 30.1 11.0365
      vertex -69 30.1 11.5
      vertex -66 30.1 11.5
    endloop
  endfacet
  facet normal 0 1 0
    outer loop
      vertex -66.0734 30.1 11.0365
      vertex -68.9266 30.1 11.0365
      vertex -69 30.1 11.5
    endloop
  endfacet
  facet normal 0 1 -0
    outer loop
      vertex -66.2865 30.1 10.6183
      vertex -68.9266 30.1 11.0365
      vertex -66.0734 30.1 11.0365
    endloop
  endfacet
  facet normal 0 1 0
    outer loop
      vertex -66.2865 30.1 10.6183
      vertex -68.7135 30.1 10.6183
      vertex -68.9266 30.1 11.0365
    endloop
  endfacet
  facet normal 0 1 -0
    outer loop
      vertex -66.6183 30.1 10.2865
      vertex -68.7135 30.1 10.6183
      vertex -66.2865 30.1 10.6183
    endloop
  endfacet
  facet normal 0 1 0
    outer loop
      vertex -66.6183 30.1 10.2865
      vertex -68.3817 30.1 10.2865
      vertex -68.7135 30.1 10.6183
    endloop
  endfacet
  facet normal 0 1 -0
    outer loop
      vertex -67.0365 30.1 10.0734
      vertex -68.3817 30.1 10.2865
      vertex -66.6183 30.1 10.2865
    endloop
  endfacet
  facet normal 0 1 0
    outer loop
      vertex -67.0365 30.1 10.0734
      vertex -67.9635 30.1 10.0734
      vertex -68.3817 30.1 10.2865
    endloop
  endfacet
  facet normal -0 1 0
    outer loop
      vertex -67.9635 30.1 10.0734
      vertex -67.0365 30.1 10.0734
      vertex -67.5 30.1 10
    endloop
  endfacet
  facet normal 0.987688 0 -0.15644
    outer loop
      vertex -68.9266 30.1 11.9635
      vertex -69 38 11.5
      vertex -68.9266 38 11.9635
    endloop
  endfacet
  facet normal 0.987688 0 -0.15644
    outer loop
      vertex -69 38 11.5
      vertex -68.9266 30.1 11.9635
      vertex -69 30.1 11.5
    endloop
  endfacet
  facet normal 0.891007 0 -0.453989
    outer loop
      vertex -68.7135 30.1 12.3817
      vertex -68.9266 38 11.9635
      vertex -68.7135 38 12.3817
    endloop
  endfacet
  facet normal 0.891007 0 -0.453989
    outer loop
      vertex -68.9266 38 11.9635
      vertex -68.7135 30.1 12.3817
      vertex -68.9266 30.1 11.9635
    endloop
  endfacet
  facet normal 0.707106 0 -0.707108
    outer loop
      vertex -68.7135 30.1 12.3817
      vertex -68.3817 38 12.7135
      vertex -68.3817 30.1 12.7135
    endloop
  endfacet
  facet normal 0.707106 0 -0.707108
    outer loop
      vertex -68.3817 38 12.7135
      vertex -68.7135 30.1 12.3817
      vertex -68.7135 38 12.3817
    endloop
  endfacet
  facet normal 0.15648 1.19231e-007 0.987681
    outer loop
      vertex -67.5058 38 10.0009
      vertex -67.5 30.1 10
      vertex -67.5 38 10
    endloop
  endfacet
  facet normal 0.156434 8.44348e-008 0.987688
    outer loop
      vertex -67.5 30.1 10
      vertex -67.5058 38 10.0009
      vertex -67.9635 30.1 10.0734
    endloop
  endfacet
  facet normal 0.453991 0 0.891006
    outer loop
      vertex -68.3817 38 10.2865
      vertex -67.9635 30.1 10.0734
      vertex -67.9635 38 10.0734
    endloop
  endfacet
  facet normal 0.453991 0 0.891006
    outer loop
      vertex -67.9635 30.1 10.0734
      vertex -68.3817 38 10.2865
      vertex -68.3817 30.1 10.2865
    endloop
  endfacet
  facet normal -0.156436 0 0.987688
    outer loop
      vertex -67.0365 30.1 10.0734
      vertex -67.0365 38 10.0734
      vertex -67.4942 38 10.0009
    endloop
  endfacet
  facet normal -0.707106 0 0.707108
    outer loop
      vertex -66.6183 38 10.2865
      vertex -66.2865 30.1 10.6183
      vertex -66.2865 38 10.6183
    endloop
  endfacet
  facet normal -0.707106 0 0.707108
    outer loop
      vertex -66.2865 30.1 10.6183
      vertex -66.6183 38 10.2865
      vertex -66.6183 30.1 10.2865
    endloop
  endfacet
  facet normal -0.453991 0 -0.891006
    outer loop
      vertex -67.0365 30.1 12.9266
      vertex -66.6183 38 12.7135
      vertex -66.6183 30.1 12.7135
    endloop
  endfacet
  facet normal -0.453991 0 -0.891006
    outer loop
      vertex -66.6183 38 12.7135
      vertex -67.0365 30.1 12.9266
      vertex -67.0365 38 12.9266
    endloop
  endfacet
  facet normal -0.15648 0 -0.987681
    outer loop
      vertex -67.0365 30.1 12.9266
      vertex -67.0423 38 12.9275
      vertex -67.0365 38 12.9266
    endloop
  endfacet
  facet normal -0.156436 3.33076e-008 -0.987688
    outer loop
      vertex -67.0423 38 12.9275
      vertex -67.0365 30.1 12.9266
      vertex -67.5 30.1 13
    endloop
  endfacet
  facet normal 0.156434 -1.19232e-007 -0.987688
    outer loop
      vertex -67.5 38 13
      vertex -67.5 30.1 13
      vertex -67.9577 38 12.9275
    endloop
  endfacet
  facet normal -0.891007 0 0.453989
    outer loop
      vertex -66.2865 30.1 10.6183
      vertex -66.0734 38 11.0365
      vertex -66.2865 38 10.6183
    endloop
  endfacet
  facet normal -0.891007 0 0.453989
    outer loop
      vertex -66.0734 38 11.0365
      vertex -66.2865 30.1 10.6183
      vertex -66.0734 30.1 11.0365
    endloop
  endfacet
  facet normal -0.987688 0 0.15644
    outer loop
      vertex -66.0734 30.1 11.0365
      vertex -66 38 11.5
      vertex -66.0734 38 11.0365
    endloop
  endfacet
  facet normal -0.987688 0 0.15644
    outer loop
      vertex -66 38 11.5
      vertex -66.0734 30.1 11.0365
      vertex -66 30.1 11.5
    endloop
  endfacet
  facet normal 0.987688 -0 0.15644
    outer loop
      vertex -69 30.1 11.5
      vertex -68.9266 38 11.0365
      vertex -69 38 11.5
    endloop
  endfacet
  facet normal 0.987688 0 0.15644
    outer loop
      vertex -68.9266 38 11.0365
      vertex -69 30.1 11.5
      vertex -68.9266 30.1 11.0365
    endloop
  endfacet
  facet normal 0.891007 -0 0.453989
    outer loop
      vertex -68.9266 30.1 11.0365
      vertex -68.7135 38 10.6183
      vertex -68.9266 38 11.0365
    endloop
  endfacet
  facet normal 0.891007 0 0.453989
    outer loop
      vertex -68.7135 38 10.6183
      vertex -68.9266 30.1 11.0365
      vertex -68.7135 30.1 10.6183
    endloop
  endfacet
  facet normal 0.453991 0 -0.891006
    outer loop
      vertex -68.3817 30.1 12.7135
      vertex -67.9635 38 12.9266
      vertex -67.9635 30.1 12.9266
    endloop
  endfacet
  facet normal 0.453991 0 -0.891006
    outer loop
      vertex -67.9635 38 12.9266
      vertex -68.3817 30.1 12.7135
      vertex -68.3817 38 12.7135
    endloop
  endfacet
  facet normal -0 0 1
    outer loop
      vertex -72.5 38 -6.5
      vertex -62.5 28 -6.5
      vertex -62.5 38 -6.5
    endloop
  endfacet
  facet normal 0 0 1
    outer loop
      vertex -62.5 28 -6.5
      vertex -72.5 38 -6.5
      vertex -72.5 28 -6.5
    endloop
  endfacet
  facet normal 1 -0 0
    outer loop
      vertex -62.5 28 -6.5
      vertex -62.5 38 -16.5
      vertex -62.5 38 -6.5
    endloop
  endfacet
  facet normal 1 0 0
    outer loop
      vertex -62.5 38 -16.5
      vertex -62.5 28 -6.5
      vertex -62.5 28 -16.5
    endloop
  endfacet
  facet normal 0 -1 0
    outer loop
      vertex -72.5 28 -16.5
      vertex -62.5 28 -6.5
      vertex -72.5 28 -6.5
    endloop
  endfacet
  facet normal 0 -1 -0
    outer loop
      vertex -62.5 28 -6.5
      vertex -72.5 28 -16.5
      vertex -62.5 28 -16.5
    endloop
  endfacet
  facet normal 0 1 0
    outer loop
      vertex -62.5 38 -6.5
      vertex -67.5 38 -10
      vertex -72.5 38 -6.5
    endloop
  endfacet
  facet normal 0 1 0
    outer loop
      vertex -62.5 38 -6.5
      vertex -67.0423 38 -10.0725
      vertex -67.5 38 -10
    endloop
  endfacet
  facet normal 0 1 0
    outer loop
      vertex -62.5 38 -6.5
      vertex -67.0365 38 -10.0734
      vertex -67.0423 38 -10.0725
    endloop
  endfacet
  facet normal 0 1 0
    outer loop
      vertex -62.5 38 -6.5
      vertex -66.6183 38 -10.2865
      vertex -67.0365 38 -10.0734
    endloop
  endfacet
  facet normal 0 1 0
    outer loop
      vertex -62.5 38 -6.5
      vertex -66.2865 38 -10.6183
      vertex -66.6183 38 -10.2865
    endloop
  endfacet
  facet normal 0 1 0
    outer loop
      vertex -62.5 38 -6.5
      vertex -66.0734 38 -11.0365
      vertex -66.2865 38 -10.6183
    endloop
  endfacet
  facet normal 0 1 0
    outer loop
      vertex -62.5 38 -6.5
      vertex -66 38 -11.5
      vertex -66.0734 38 -11.0365
    endloop
  endfacet
  facet normal 0 1 -0
    outer loop
      vertex -62.5 38 -16.5
      vertex -66 38 -11.5
      vertex -62.5 38 -6.5
    endloop
  endfacet
  facet normal 0 1 0
    outer loop
      vertex -66 38 -11.5
      vertex -62.5 38 -16.5
      vertex -66.0734 38 -11.9635
    endloop
  endfacet
  facet normal 0 1 0
    outer loop
      vertex -62.5 38 -16.5
      vertex -67.4942 38 -12.9991
      vertex -67.0365 38 -12.9266
    endloop
  endfacet
  facet normal 0 1 0
    outer loop
      vertex -67.4942 38 -12.9991
      vertex -62.5 38 -16.5
      vertex -67.5 38 -13
    endloop
  endfacet
  facet normal 0 1 0
    outer loop
      vertex -66.6183 38 -12.7135
      vertex -62.5 38 -16.5
      vertex -67.0365 38 -12.9266
    endloop
  endfacet
  facet normal 0 1 0
    outer loop
      vertex -66.2865 38 -12.3817
      vertex -62.5 38 -16.5
      vertex -66.6183 38 -12.7135
    endloop
  endfacet
  facet normal 0 1 0
    outer loop
      vertex -66.0734 38 -11.9635
      vertex -62.5 38 -16.5
      vertex -66.2865 38 -12.3817
    endloop
  endfacet
  facet normal 0 1 -0
    outer loop
      vertex -67.9577 38 -10.0725
      vertex -72.5 38 -6.5
      vertex -67.5 38 -10
    endloop
  endfacet
  facet normal 0 1 -0
    outer loop
      vertex -67.9635 38 -10.0734
      vertex -72.5 38 -6.5
      vertex -67.9577 38 -10.0725
    endloop
  endfacet
  facet normal 0 1 -0
    outer loop
      vertex -68.3817 38 -10.2865
      vertex -72.5 38 -6.5
      vertex -67.9635 38 -10.0734
    endloop
  endfacet
  facet normal 0 1 -0
    outer loop
      vertex -68.7135 38 -10.6183
      vertex -72.5 38 -6.5
      vertex -68.3817 38 -10.2865
    endloop
  endfacet
  facet normal 0 1 -0
    outer loop
      vertex -68.9266 38 -11.0365
      vertex -72.5 38 -6.5
      vertex -68.7135 38 -10.6183
    endloop
  endfacet
  facet normal 0 1 -0
    outer loop
      vertex -69 38 -11.5
      vertex -72.5 38 -6.5
      vertex -68.9266 38 -11.0365
    endloop
  endfacet
  facet normal 0 1 0
    outer loop
      vertex -72.5 38 -16.5
      vertex -69 38 -11.5
      vertex -68.9266 38 -11.9635
    endloop
  endfacet
  facet normal 0 1 0
    outer loop
      vertex -72.5 38 -16.5
      vertex -68.9266 38 -11.9635
      vertex -68.7135 38 -12.3817
    endloop
  endfacet
  facet normal 0 1 0
    outer loop
      vertex -72.5 38 -16.5
      vertex -67.5058 38 -12.9991
      vertex -67.5 38 -13
    endloop
  endfacet
  facet normal 0 1 0
    outer loop
      vertex -72.5 38 -16.5
      vertex -67.5 38 -13
      vertex -62.5 38 -16.5
    endloop
  endfacet
  facet normal 0 1 0
    outer loop
      vertex -67.5058 38 -12.9991
      vertex -72.5 38 -16.5
      vertex -67.9635 38 -12.9266
    endloop
  endfacet
  facet normal 0 1 0
    outer loop
      vertex -69 38 -11.5
      vertex -72.5 38 -16.5
      vertex -72.5 38 -6.5
    endloop
  endfacet
  facet normal 0 1 0
    outer loop
      vertex -68.3817 38 -12.7135
      vertex -72.5 38 -16.5
      vertex -68.7135 38 -12.3817
    endloop
  endfacet
  facet normal 0 1 0
    outer loop
      vertex -67.9635 38 -12.9266
      vertex -72.5 38 -16.5
      vertex -68.3817 38 -12.7135
    endloop
  endfacet
  facet normal -0.987688 0 -0.15644
    outer loop
      vertex -66 30.1 -11.5
      vertex -66.0734 38 -11.0365
      vertex -66 38 -11.5
    endloop
  endfacet
  facet normal -0.987688 -0 -0.15644
    outer loop
      vertex -66.0734 38 -11.0365
      vertex -66 30.1 -11.5
      vertex -66.0734 30.1 -11.0365
    endloop
  endfacet
  facet normal -0.15648 1.19231e-007 0.987681
    outer loop
      vertex -67.5 30.1 -13
      vertex -67.4942 38 -12.9991
      vertex -67.5 38 -13
    endloop
  endfacet
  facet normal -0.156434 8.44348e-008 0.987688
    outer loop
      vertex -67.4942 38 -12.9991
      vertex -67.5 30.1 -13
      vertex -67.0365 30.1 -12.9266
    endloop
  endfacet
  facet normal 0.156436 3.33076e-008 -0.987688
    outer loop
      vertex -67.9635 30.1 -10.0734
      vertex -67.9577 38 -10.0725
      vertex -67.5 30.1 -10
    endloop
  endfacet
  facet normal 0.15648 0 -0.987681
    outer loop
      vertex -67.9577 38 -10.0725
      vertex -67.9635 30.1 -10.0734
      vertex -67.9635 38 -10.0734
    endloop
  endfacet
  facet normal -0.707106 0 -0.707108
    outer loop
      vertex -66.6183 30.1 -10.2865
      vertex -66.2865 38 -10.6183
      vertex -66.2865 30.1 -10.6183
    endloop
  endfacet
  facet normal -0.707106 0 -0.707108
    outer loop
      vertex -66.2865 38 -10.6183
      vertex -66.6183 30.1 -10.2865
      vertex -66.6183 38 -10.2865
    endloop
  endfacet
  facet normal -0.891007 0 -0.453989
    outer loop
      vertex -66.0734 30.1 -11.0365
      vertex -66.2865 38 -10.6183
      vertex -66.0734 38 -11.0365
    endloop
  endfacet
  facet normal -0.891007 -0 -0.453989
    outer loop
      vertex -66.2865 38 -10.6183
      vertex -66.0734 30.1 -11.0365
      vertex -66.2865 30.1 -10.6183
    endloop
  endfacet
  facet normal 0.707106 0 0.707108
    outer loop
      vertex -68.7135 38 -12.3817
      vertex -68.3817 30.1 -12.7135
      vertex -68.3817 38 -12.7135
    endloop
  endfacet
  facet normal 0.707106 0 0.707108
    outer loop
      vertex -68.3817 30.1 -12.7135
      vertex -68.7135 38 -12.3817
      vertex -68.7135 30.1 -12.3817
    endloop
  endfacet
  facet normal 0.156436 0 0.987688
    outer loop
      vertex -67.5058 38 -12.9991
      vertex -67.9635 38 -12.9266
      vertex -67.9635 30.1 -12.9266
    endloop
  endfacet
  facet normal -0.453991 0 0.891006
    outer loop
      vertex -67.0365 38 -12.9266
      vertex -66.6183 30.1 -12.7135
      vertex -66.6183 38 -12.7135
    endloop
  endfacet
  facet normal -0.453991 0 0.891006
    outer loop
      vertex -66.6183 30.1 -12.7135
      vertex -67.0365 38 -12.9266
      vertex -67.0365 30.1 -12.9266
    endloop
  endfacet
  facet normal -0.156434 -1.19232e-007 -0.987688
    outer loop
      vertex -67.5 38 -10
      vertex -67.0423 38 -10.0725
      vertex -67.5 30.1 -10
    endloop
  endfacet
  facet normal 0 1 0
    outer loop
      vertex -67.0365 30.1 -10.0734
      vertex -67.9635 30.1 -10.0734
      vertex -67.5 30.1 -10
    endloop
  endfacet
  facet normal 0 1 0
    outer loop
      vertex -66.6183 30.1 -10.2865
      vertex -67.9635 30.1 -10.0734
      vertex -67.0365 30.1 -10.0734
    endloop
  endfacet
  facet normal 0 1 0
    outer loop
      vertex -66.6183 30.1 -10.2865
      vertex -68.3817 30.1 -10.2865
      vertex -67.9635 30.1 -10.0734
    endloop
  endfacet
  facet normal 0 1 0
    outer loop
      vertex -66.2865 30.1 -10.6183
      vertex -68.3817 30.1 -10.2865
      vertex -66.6183 30.1 -10.2865
    endloop
  endfacet
  facet normal 0 1 0
    outer loop
      vertex -66.2865 30.1 -10.6183
      vertex -68.7135 30.1 -10.6183
      vertex -68.3817 30.1 -10.2865
    endloop
  endfacet
  facet normal 0 1 0
    outer loop
      vertex -66.0734 30.1 -11.0365
      vertex -68.7135 30.1 -10.6183
      vertex -66.2865 30.1 -10.6183
    endloop
  endfacet
  facet normal 0 1 0
    outer loop
      vertex -66.0734 30.1 -11.0365
      vertex -68.9266 30.1 -11.0365
      vertex -68.7135 30.1 -10.6183
    endloop
  endfacet
  facet normal 0 1 0
    outer loop
      vertex -66 30.1 -11.5
      vertex -68.9266 30.1 -11.0365
      vertex -66.0734 30.1 -11.0365
    endloop
  endfacet
  facet normal 0 1 0
    outer loop
      vertex -66 30.1 -11.5
      vertex -69 30.1 -11.5
      vertex -68.9266 30.1 -11.0365
    endloop
  endfacet
  facet normal 0 1 -0
    outer loop
      vertex -66.0734 30.1 -11.9635
      vertex -69 30.1 -11.5
      vertex -66 30.1 -11.5
    endloop
  endfacet
  facet normal 0 1 0
    outer loop
      vertex -66.0734 30.1 -11.9635
      vertex -68.9266 30.1 -11.9635
      vertex -69 30.1 -11.5
    endloop
  endfacet
  facet normal 0 1 -0
    outer loop
      vertex -66.2865 30.1 -12.3817
      vertex -68.9266 30.1 -11.9635
      vertex -66.0734 30.1 -11.9635
    endloop
  endfacet
  facet normal 0 1 0
    outer loop
      vertex -66.2865 30.1 -12.3817
      vertex -68.7135 30.1 -12.3817
      vertex -68.9266 30.1 -11.9635
    endloop
  endfacet
  facet normal 0 1 -0
    outer loop
      vertex -66.6183 30.1 -12.7135
      vertex -68.7135 30.1 -12.3817
      vertex -66.2865 30.1 -12.3817
    endloop
  endfacet
  facet normal 0 1 0
    outer loop
      vertex -66.6183 30.1 -12.7135
      vertex -68.3817 30.1 -12.7135
      vertex -68.7135 30.1 -12.3817
    endloop
  endfacet
  facet normal 0 1 -0
    outer loop
      vertex -67.0365 30.1 -12.9266
      vertex -68.3817 30.1 -12.7135
      vertex -66.6183 30.1 -12.7135
    endloop
  endfacet
  facet normal 0 1 0
    outer loop
      vertex -67.0365 30.1 -12.9266
      vertex -67.9635 30.1 -12.9266
      vertex -68.3817 30.1 -12.7135
    endloop
  endfacet
  facet normal -0 1 0
    outer loop
      vertex -67.9635 30.1 -12.9266
      vertex -67.0365 30.1 -12.9266
      vertex -67.5 30.1 -13
    endloop
  endfacet
  facet normal 0.987688 0 -0.15644
    outer loop
      vertex -68.9266 30.1 -11.0365
      vertex -69 38 -11.5
      vertex -68.9266 38 -11.0365
    endloop
  endfacet
  facet normal 0.987688 0 -0.15644
    outer loop
      vertex -69 38 -11.5
      vertex -68.9266 30.1 -11.0365
      vertex -69 30.1 -11.5
    endloop
  endfacet
  facet normal 0.891007 0 -0.453989
    outer loop
      vertex -68.7135 30.1 -10.6183
      vertex -68.9266 38 -11.0365
      vertex -68.7135 38 -10.6183
    endloop
  endfacet
  facet normal 0.891007 0 -0.453989
    outer loop
      vertex -68.9266 38 -11.0365
      vertex -68.7135 30.1 -10.6183
      vertex -68.9266 30.1 -11.0365
    endloop
  endfacet
  facet normal 0.707106 0 -0.707108
    outer loop
      vertex -68.7135 30.1 -10.6183
      vertex -68.3817 38 -10.2865
      vertex -68.3817 30.1 -10.2865
    endloop
  endfacet
  facet normal 0.707106 0 -0.707108
    outer loop
      vertex -68.3817 38 -10.2865
      vertex -68.7135 30.1 -10.6183
      vertex -68.7135 38 -10.6183
    endloop
  endfacet
  facet normal 0.15648 1.19231e-007 0.987681
    outer loop
      vertex -67.5058 38 -12.9991
      vertex -67.5 30.1 -13
      vertex -67.5 38 -13
    endloop
  endfacet
  facet normal 0.156434 8.44348e-008 0.987688
    outer loop
      vertex -67.5 30.1 -13
      vertex -67.5058 38 -12.9991
      vertex -67.9635 30.1 -12.9266
    endloop
  endfacet
  facet normal 0.453991 0 0.891006
    outer loop
      vertex -68.3817 38 -12.7135
      vertex -67.9635 30.1 -12.9266
      vertex -67.9635 38 -12.9266
    endloop
  endfacet
  facet normal 0.453991 0 0.891006
    outer loop
      vertex -67.9635 30.1 -12.9266
      vertex -68.3817 38 -12.7135
      vertex -68.3817 30.1 -12.7135
    endloop
  endfacet
  facet normal -0.156436 0 0.987688
    outer loop
      vertex -67.0365 30.1 -12.9266
      vertex -67.0365 38 -12.9266
      vertex -67.4942 38 -12.9991
    endloop
  endfacet
  facet normal -0.707106 0 0.707108
    outer loop
      vertex -66.6183 38 -12.7135
      vertex -66.2865 30.1 -12.3817
      vertex -66.2865 38 -12.3817
    endloop
  endfacet
  facet normal -0.707106 0 0.707108
    outer loop
      vertex -66.2865 30.1 -12.3817
      vertex -66.6183 38 -12.7135
      vertex -66.6183 30.1 -12.7135
    endloop
  endfacet
  facet normal -0.453991 0 -0.891006
    outer loop
      vertex -67.0365 30.1 -10.0734
      vertex -66.6183 38 -10.2865
      vertex -66.6183 30.1 -10.2865
    endloop
  endfacet
  facet normal -0.453991 0 -0.891006
    outer loop
      vertex -66.6183 38 -10.2865
      vertex -67.0365 30.1 -10.0734
      vertex -67.0365 38 -10.0734
    endloop
  endfacet
  facet normal -0.15648 0 -0.987681
    outer loop
      vertex -67.0365 30.1 -10.0734
      vertex -67.0423 38 -10.0725
      vertex -67.0365 38 -10.0734
    endloop
  endfacet
  facet normal -0.156436 3.33076e-008 -0.987688
    outer loop
      vertex -67.0423 38 -10.0725
      vertex -67.0365 30.1 -10.0734
      vertex -67.5 30.1 -10
    endloop
  endfacet
  facet normal 0.156434 -1.19232e-007 -0.987688
    outer loop
      vertex -67.5 38 -10
      vertex -67.5 30.1 -10
      vertex -67.9577 38 -10.0725
    endloop
  endfacet
  facet normal -0.891007 0 0.453989
    outer loop
      vertex -66.2865 30.1 -12.3817
      vertex -66.0734 38 -11.9635
      vertex -66.2865 38 -12.3817
    endloop
  endfacet
  facet normal -0.891007 0 0.453989
    outer loop
      vertex -66.0734 38 -11.9635
      vertex -66.2865 30.1 -12.3817
      vertex -66.0734 30.1 -11.9635
    endloop
  endfacet
  facet normal -0.987688 0 0.15644
    outer loop
      vertex -66.0734 30.1 -11.9635
      vertex -66 38 -11.5
      vertex -66.0734 38 -11.9635
    endloop
  endfacet
  facet normal -0.987688 0 0.15644
    outer loop
      vertex -66 38 -11.5
      vertex -66.0734 30.1 -11.9635
      vertex -66 30.1 -11.5
    endloop
  endfacet
  facet normal 0.987688 -0 0.15644
    outer loop
      vertex -69 30.1 -11.5
      vertex -68.9266 38 -11.9635
      vertex -69 38 -11.5
    endloop
  endfacet
  facet normal 0.987688 0 0.15644
    outer loop
      vertex -68.9266 38 -11.9635
      vertex -69 30.1 -11.5
      vertex -68.9266 30.1 -11.9635
    endloop
  endfacet
  facet normal 0.891007 -0 0.453989
    outer loop
      vertex -68.9266 30.1 -11.9635
      vertex -68.7135 38 -12.3817
      vertex -68.9266 38 -11.9635
    endloop
  endfacet
  facet normal 0.891007 0 0.453989
    outer loop
      vertex -68.7135 38 -12.3817
      vertex -68.9266 30.1 -11.9635
      vertex -68.7135 30.1 -12.3817
    endloop
  endfacet
  facet normal 0.453991 0 -0.891006
    outer loop
      vertex -68.3817 30.1 -10.2865
      vertex -67.9635 38 -10.0734
      vertex -67.9635 30.1 -10.0734
    endloop
  endfacet
  facet normal 0.453991 0 -0.891006
    outer loop
      vertex -67.9635 38 -10.0734
      vertex -68.3817 30.1 -10.2865
      vertex -68.3817 38 -10.2865
    endloop
  endfacet
  facet normal -1 0 0
    outer loop
      vertex 56.5 0.599999 -16.5
      vertex 56.5 4.6 16.5
      vertex 56.5 4.6 -16.5
    endloop
  endfacet
  facet normal -1 -0 0
    outer loop
      vertex 56.5 4.6 16.5
      vertex 56.5 0.599999 -16.5
      vertex 56.5 0.599999 16.5
    endloop
  endfacet
  facet normal 0 1 -0
    outer loop
      vertex 72.5 4.6 -16.5
      vertex 56.5 4.6 16.5
      vertex 72.5 4.6 16.5
    endloop
  endfacet
  facet normal 0 1 0
    outer loop
      vertex 56.5 4.6 16.5
      vertex 72.5 4.6 -16.5
      vertex 56.5 4.6 -16.5
    endloop
  endfacet
  facet normal -0.987689 0.156432 0
    outer loop
      vertex 51.9021 24.382 16.5
      vertex 52 25 17.7
      vertex 52 25 16.5
    endloop
  endfacet
  facet normal -0.987689 0.156432 0
    outer loop
      vertex 52 25 17.7
      vertex 51.9021 24.382 16.5
      vertex 51.9021 24.382 17.7
    endloop
  endfacet
  facet normal -0.891006 0.453992 0
    outer loop
      vertex 51.618 23.8244 16.5
      vertex 51.9021 24.382 17.7
      vertex 51.9021 24.382 16.5
    endloop
  endfacet
  facet normal -0.891006 0.453992 0
    outer loop
      vertex 51.9021 24.382 17.7
      vertex 51.618 23.8244 16.5
      vertex 51.618 23.8244 17.7
    endloop
  endfacet
  facet normal 0.156432 0.987689 -0
    outer loop
      vertex 50 23 16.5
      vertex 49.382 23.0979 17.7
      vertex 50 23 17.7
    endloop
  endfacet
  facet normal 0.156432 0.987689 0
    outer loop
      vertex 49.382 23.0979 17.7
      vertex 50 23 16.5
      vertex 49.382 23.0979 16.5
    endloop
  endfacet
  facet normal -0.453992 0.891006 0
    outer loop
      vertex 51.1756 23.382 16.5
      vertex 50.618 23.0979 17.7
      vertex 51.1756 23.382 17.7
    endloop
  endfacet
  facet normal -0.453992 0.891006 0
    outer loop
      vertex 50.618 23.0979 17.7
      vertex 51.1756 23.382 16.5
      vertex 50.618 23.0979 16.5
    endloop
  endfacet
  facet normal 0.453992 0.891006 -0
    outer loop
      vertex 49.382 23.0979 16.5
      vertex 48.8244 23.382 17.7
      vertex 49.382 23.0979 17.7
    endloop
  endfacet
  facet normal 0.453992 0.891006 0
    outer loop
      vertex 48.8244 23.382 17.7
      vertex 49.382 23.0979 16.5
      vertex 48.8244 23.382 16.5
    endloop
  endfacet
  facet normal -0.156432 0.987689 0
    outer loop
      vertex 50.618 23.0979 16.5
      vertex 50 23 17.7
      vertex 50.618 23.0979 17.7
    endloop
  endfacet
  facet normal -0.156432 0.987689 0
    outer loop
      vertex 50 23 17.7
      vertex 50.618 23.0979 16.5
      vertex 50 23 16.5
    endloop
  endfacet
  facet normal 0.987689 0.156432 0
    outer loop
      vertex 48.0979 24.382 17.7
      vertex 48 25 16.5
      vertex 48 25 17.7
    endloop
  endfacet
  facet normal 0.987689 0.156432 0
    outer loop
      vertex 48 25 16.5
      vertex 48.0979 24.382 17.7
      vertex 48.0979 24.382 16.5
    endloop
  endfacet
  facet normal 0.987689 -0.156432 0
    outer loop
      vertex 48 25 17.7
      vertex 48.0979 25.618 16.5
      vertex 48.0979 25.618 17.7
    endloop
  endfacet
  facet normal 0.987689 -0.156432 0
    outer loop
      vertex 48.0979 25.618 16.5
      vertex 48 25 17.7
      vertex 48 25 16.5
    endloop
  endfacet
  facet normal -0.156434 -0.987688 0
    outer loop
      vertex 50 27 16.5
      vertex 50.618 26.9021 17.7
      vertex 50 27 17.7
    endloop
  endfacet
  facet normal -0.156434 -0.987688 -0
    outer loop
      vertex 50.618 26.9021 17.7
      vertex 50 27 16.5
      vertex 50.618 26.9021 16.5
    endloop
  endfacet
  facet normal -0.891006 -0.453992 0
    outer loop
      vertex 51.9021 25.618 16.5
      vertex 51.618 26.1756 17.7
      vertex 51.618 26.1756 16.5
    endloop
  endfacet
  facet normal -0.891006 -0.453992 0
    outer loop
      vertex 51.618 26.1756 17.7
      vertex 51.9021 25.618 16.5
      vertex 51.9021 25.618 17.7
    endloop
  endfacet
  facet normal -0.987689 -0.156432 0
    outer loop
      vertex 52 25 16.5
      vertex 51.9021 25.618 17.7
      vertex 51.9021 25.618 16.5
    endloop
  endfacet
  facet normal -0.987689 -0.156432 0
    outer loop
      vertex 51.9021 25.618 17.7
      vertex 52 25 16.5
      vertex 52 25 17.7
    endloop
  endfacet
  facet normal 0.891006 -0.453992 0
    outer loop
      vertex 48.0979 25.618 17.7
      vertex 48.382 26.1756 16.5
      vertex 48.382 26.1756 17.7
    endloop
  endfacet
  facet normal 0.891006 -0.453992 0
    outer loop
      vertex 48.382 26.1756 16.5
      vertex 48.0979 25.618 17.7
      vertex 48.0979 25.618 16.5
    endloop
  endfacet
  facet normal -0.707107 0.707107 0
    outer loop
      vertex 51.1756 23.382 16.5
      vertex 51.618 23.8244 17.7
      vertex 51.618 23.8244 16.5
    endloop
  endfacet
  facet normal -0.707107 0.707107 0
    outer loop
      vertex 51.618 23.8244 17.7
      vertex 51.1756 23.382 16.5
      vertex 51.1756 23.382 17.7
    endloop
  endfacet
  facet normal 0.707107 0.707107 0
    outer loop
      vertex 48.8244 23.382 17.7
      vertex 48.382 23.8244 16.5
      vertex 48.382 23.8244 17.7
    endloop
  endfacet
  facet normal 0.707107 0.707107 0
    outer loop
      vertex 48.382 23.8244 16.5
      vertex 48.8244 23.382 17.7
      vertex 48.8244 23.382 16.5
    endloop
  endfacet
  facet normal 0.891006 0.453992 0
    outer loop
      vertex 48.382 23.8244 17.7
      vertex 48.0979 24.382 16.5
      vertex 48.0979 24.382 17.7
    endloop
  endfacet
  facet normal 0.891006 0.453992 0
    outer loop
      vertex 48.0979 24.382 16.5
      vertex 48.382 23.8244 17.7
      vertex 48.382 23.8244 16.5
    endloop
  endfacet
  facet normal -0.45399 -0.891007 0
    outer loop
      vertex 50.618 26.9021 16.5
      vertex 51.1756 26.618 17.7
      vertex 50.618 26.9021 17.7
    endloop
  endfacet
  facet normal -0.45399 -0.891007 -0
    outer loop
      vertex 51.1756 26.618 17.7
      vertex 50.618 26.9021 16.5
      vertex 51.1756 26.618 16.5
    endloop
  endfacet
  facet normal -0.707107 -0.707107 0
    outer loop
      vertex 51.618 26.1756 16.5
      vertex 51.1756 26.618 17.7
      vertex 51.1756 26.618 16.5
    endloop
  endfacet
  facet normal -0.707107 -0.707107 0
    outer loop
      vertex 51.1756 26.618 17.7
      vertex 51.618 26.1756 16.5
      vertex 51.618 26.1756 17.7
    endloop
  endfacet
  facet normal 0.45399 -0.891007 0
    outer loop
      vertex 48.8244 26.618 16.5
      vertex 49.382 26.9021 17.7
      vertex 48.8244 26.618 17.7
    endloop
  endfacet
  facet normal 0.45399 -0.891007 0
    outer loop
      vertex 49.382 26.9021 17.7
      vertex 48.8244 26.618 16.5
      vertex 49.382 26.9021 16.5
    endloop
  endfacet
  facet normal 0.156434 -0.987688 0
    outer loop
      vertex 49.382 26.9021 16.5
      vertex 50 27 17.7
      vertex 49.382 26.9021 17.7
    endloop
  endfacet
  facet normal 0.156434 -0.987688 0
    outer loop
      vertex 50 27 17.7
      vertex 49.382 26.9021 16.5
      vertex 50 27 16.5
    endloop
  endfacet
  facet normal 0.707107 -0.707107 0
    outer loop
      vertex 48.382 26.1756 17.7
      vertex 48.8244 26.618 16.5
      vertex 48.8244 26.618 17.7
    endloop
  endfacet
  facet normal 0.707107 -0.707107 0
    outer loop
      vertex 48.8244 26.618 16.5
      vertex 48.382 26.1756 17.7
      vertex 48.382 26.1756 16.5
    endloop
  endfacet
  facet normal -0.987688 0.156435 0
    outer loop
      vertex 42.8532 24.0729 16.5
      vertex 43 25 17.7
      vertex 43 25 16.5
    endloop
  endfacet
  facet normal -0.987688 0.156435 0
    outer loop
      vertex 43 25 17.7
      vertex 42.8532 24.0729 16.5
      vertex 42.8532 24.0729 17.7
    endloop
  endfacet
  facet normal -0.891007 0.45399 0
    outer loop
      vertex 42.4271 23.2366 16.5
      vertex 42.8532 24.0729 17.7
      vertex 42.8532 24.0729 16.5
    endloop
  endfacet
  facet normal -0.891007 0.45399 0
    outer loop
      vertex 42.8532 24.0729 17.7
      vertex 42.4271 23.2366 16.5
      vertex 42.4271 23.2366 17.7
    endloop
  endfacet
  facet normal 0.156433 0.987688 -0
    outer loop
      vertex 40 22 16.5
      vertex 39.0729 22.1468 17.7
      vertex 40 22 17.7
    endloop
  endfacet
  facet normal 0.156433 0.987688 0
    outer loop
      vertex 39.0729 22.1468 17.7
      vertex 40 22 16.5
      vertex 39.0729 22.1468 16.5
    endloop
  endfacet
  facet normal 0.453991 0.891006 -0
    outer loop
      vertex 39.0729 22.1468 16.5
      vertex 38.2366 22.5729 17.7
      vertex 39.0729 22.1468 17.7
    endloop
  endfacet
  facet normal 0.453991 0.891006 0
    outer loop
      vertex 38.2366 22.5729 17.7
      vertex 39.0729 22.1468 16.5
      vertex 38.2366 22.5729 16.5
    endloop
  endfacet
  facet normal -0.156433 0.987688 0
    outer loop
      vertex 40.9271 22.1468 16.5
      vertex 40 22 17.7
      vertex 40.9271 22.1468 17.7
    endloop
  endfacet
  facet normal -0.156433 0.987688 0
    outer loop
      vertex 40 22 17.7
      vertex 40.9271 22.1468 16.5
      vertex 40 22 16.5
    endloop
  endfacet
  facet normal 0.987689 0.156432 0
    outer loop
      vertex 37.1468 24.0729 17.7
      vertex 37 25 16.5
      vertex 37 25 17.7
    endloop
  endfacet
  facet normal 0.987689 0.156432 0
    outer loop
      vertex 37 25 16.5
      vertex 37.1468 24.0729 17.7
      vertex 37.1468 24.0729 16.5
    endloop
  endfacet
  facet normal 0.987689 -0.156432 0
    outer loop
      vertex 37 25 17.7
      vertex 37.1468 25.9271 16.5
      vertex 37.1468 25.9271 17.7
    endloop
  endfacet
  facet normal 0.987689 -0.156432 0
    outer loop
      vertex 37.1468 25.9271 16.5
      vertex 37 25 17.7
      vertex 37 25 16.5
    endloop
  endfacet
  facet normal -0.156435 -0.987688 0
    outer loop
      vertex 40 28 16.5
      vertex 40.9271 27.8532 17.7
      vertex 40 28 17.7
    endloop
  endfacet
  facet normal -0.156435 -0.987688 -0
    outer loop
      vertex 40.9271 27.8532 17.7
      vertex 40 28 16.5
      vertex 40.9271 27.8532 16.5
    endloop
  endfacet
  facet normal -0.891007 -0.45399 0
    outer loop
      vertex 42.8532 25.9271 16.5
      vertex 42.4271 26.7634 17.7
      vertex 42.4271 26.7634 16.5
    endloop
  endfacet
  facet normal -0.891007 -0.45399 0
    outer loop
      vertex 42.4271 26.7634 17.7
      vertex 42.8532 25.9271 16.5
      vertex 42.8532 25.9271 17.7
    endloop
  endfacet
  facet normal -0.987688 -0.156435 0
    outer loop
      vertex 43 25 16.5
      vertex 42.8532 25.9271 17.7
      vertex 42.8532 25.9271 16.5
    endloop
  endfacet
  facet normal -0.987688 -0.156435 0
    outer loop
      vertex 42.8532 25.9271 17.7
      vertex 43 25 16.5
      vertex 43 25 17.7
    endloop
  endfacet
  facet normal 0.891005 -0.453993 0
    outer loop
      vertex 37.1468 25.9271 17.7
      vertex 37.5729 26.7634 16.5
      vertex 37.5729 26.7634 17.7
    endloop
  endfacet
  facet normal 0.891005 -0.453993 0
    outer loop
      vertex 37.5729 26.7634 16.5
      vertex 37.1468 25.9271 17.7
      vertex 37.1468 25.9271 16.5
    endloop
  endfacet
  facet normal -0.707107 0.707107 0
    outer loop
      vertex 41.7634 22.5729 16.5
      vertex 42.4271 23.2366 17.7
      vertex 42.4271 23.2366 16.5
    endloop
  endfacet
  facet normal -0.707107 0.707107 0
    outer loop
      vertex 42.4271 23.2366 17.7
      vertex 41.7634 22.5729 16.5
      vertex 41.7634 22.5729 17.7
    endloop
  endfacet
  facet normal -0.453991 0.891006 0
    outer loop
      vertex 41.7634 22.5729 16.5
      vertex 40.9271 22.1468 17.7
      vertex 41.7634 22.5729 17.7
    endloop
  endfacet
  facet normal -0.453991 0.891006 0
    outer loop
      vertex 40.9271 22.1468 17.7
      vertex 41.7634 22.5729 16.5
      vertex 40.9271 22.1468 16.5
    endloop
  endfacet
  facet normal 0.707107 0.707107 0
    outer loop
      vertex 38.2366 22.5729 17.7
      vertex 37.5729 23.2366 16.5
      vertex 37.5729 23.2366 17.7
    endloop
  endfacet
  facet normal 0.707107 0.707107 0
    outer loop
      vertex 37.5729 23.2366 16.5
      vertex 38.2366 22.5729 17.7
      vertex 38.2366 22.5729 16.5
    endloop
  endfacet
  facet normal 0.891005 0.453993 0
    outer loop
      vertex 37.5729 23.2366 17.7
      vertex 37.1468 24.0729 16.5
      vertex 37.1468 24.0729 17.7
    endloop
  endfacet
  facet normal 0.891005 0.453993 0
    outer loop
      vertex 37.1468 24.0729 16.5
      vertex 37.5729 23.2366 17.7
      vertex 37.5729 23.2366 16.5
    endloop
  endfacet
  facet normal -0.45399 -0.891007 0
    outer loop
      vertex 40.9271 27.8532 16.5
      vertex 41.7634 27.4271 17.7
      vertex 40.9271 27.8532 17.7
    endloop
  endfacet
  facet normal -0.45399 -0.891007 -0
    outer loop
      vertex 41.7634 27.4271 17.7
      vertex 40.9271 27.8532 16.5
      vertex 41.7634 27.4271 16.5
    endloop
  endfacet
  facet normal -0.707107 -0.707107 0
    outer loop
      vertex 42.4271 26.7634 16.5
      vertex 41.7634 27.4271 17.7
      vertex 41.7634 27.4271 16.5
    endloop
  endfacet
  facet normal -0.707107 -0.707107 0
    outer loop
      vertex 41.7634 27.4271 17.7
      vertex 42.4271 26.7634 16.5
      vertex 42.4271 26.7634 17.7
    endloop
  endfacet
  facet normal 0.45399 -0.891007 0
    outer loop
      vertex 38.2366 27.4271 16.5
      vertex 39.0729 27.8532 17.7
      vertex 38.2366 27.4271 17.7
    endloop
  endfacet
  facet normal 0.45399 -0.891007 0
    outer loop
      vertex 39.0729 27.8532 17.7
      vertex 38.2366 27.4271 16.5
      vertex 39.0729 27.8532 16.5
    endloop
  endfacet
  facet normal 0.156435 -0.987688 0
    outer loop
      vertex 39.0729 27.8532 16.5
      vertex 40 28 17.7
      vertex 39.0729 27.8532 17.7
    endloop
  endfacet
  facet normal 0.156435 -0.987688 0
    outer loop
      vertex 40 28 17.7
      vertex 39.0729 27.8532 16.5
      vertex 40 28 16.5
    endloop
  endfacet
  facet normal 0.707107 -0.707107 0
    outer loop
      vertex 37.5729 26.7634 17.7
      vertex 38.2366 27.4271 16.5
      vertex 38.2366 27.4271 17.7
    endloop
  endfacet
  facet normal 0.707107 -0.707107 0
    outer loop
      vertex 38.2366 27.4271 16.5
      vertex 37.5729 26.7634 17.7
      vertex 37.5729 26.7634 16.5
    endloop
  endfacet
endsolid OpenSCAD_Model
