solid OpenSCAD_Model
  facet normal -1 0 0
    outer loop
      vertex -72.5 38.6 -16.5
      vertex -72.5 39.8 16.5
      vertex -72.5 39.8 -16.5
    endloop
  endfacet
  facet normal -1 -0 0
    outer loop
      vertex -72.5 39.8 16.5
      vertex -72.5 38.6 -16.5
      vertex -72.5 38.6 16.5
    endloop
  endfacet
  facet normal -0 0 1
    outer loop
      vertex -72.5 39.8 16.5
      vertex 72.5 38.6 16.5
      vertex 72.5 39.8 16.5
    endloop
  endfacet
  facet normal 0 0 1
    outer loop
      vertex 72.5 38.6 16.5
      vertex -72.5 39.8 16.5
      vertex -72.5 38.6 16.5
    endloop
  endfacet
  facet normal 1 -0 0
    outer loop
      vertex 72.5 38.6 16.5
      vertex 72.5 39.8 -16.5
      vertex 72.5 39.8 16.5
    endloop
  endfacet
  facet normal 1 0 0
    outer loop
      vertex 72.5 39.8 -16.5
      vertex 72.5 38.6 16.5
      vertex 72.5 38.6 -16.5
    endloop
  endfacet
  facet normal 0 1 0
    outer loop
      vertex 66.2865 39.8 10.6183
      vertex 66.2865 39.8 -10.6183
      vertex 66.0734 39.8 11.0365
    endloop
  endfacet
  facet normal 0 1 0
    outer loop
      vertex -66.0734 39.8 11.0365
      vertex -67.0365 39.8 -10.0734
      vertex -67.5 39.8 -10
    endloop
  endfacet
  facet normal 0 1 0
    outer loop
      vertex 66.0734 39.8 -11.0365
      vertex 66.0734 39.8 11.0365
      vertex 66.2865 39.8 -10.6183
    endloop
  endfacet
  facet normal 0 1 0
    outer loop
      vertex -66.0734 39.8 11.0365
      vertex -66.6183 39.8 -10.2865
      vertex -67.0365 39.8 -10.0734
    endloop
  endfacet
  facet normal 0 1 0
    outer loop
      vertex 66.0734 39.8 11.0365
      vertex 66.0734 39.8 -11.0365
      vertex -66.0734 39.8 11.0365
    endloop
  endfacet
  facet normal 0 1 0
    outer loop
      vertex -66.0734 39.8 11.0365
      vertex -66.2865 39.8 -10.6183
      vertex -66.6183 39.8 -10.2865
    endloop
  endfacet
  facet normal 0 1 0
    outer loop
      vertex -66.0734 39.8 -11.0365
      vertex -66.0734 39.8 11.0365
      vertex 66.0734 39.8 -11.0365
    endloop
  endfacet
  facet normal 0 1 0
    outer loop
      vertex -66.0734 39.8 11.0365
      vertex -66.0734 39.8 -11.0365
      vertex -66.2865 39.8 -10.6183
    endloop
  endfacet
  facet normal 0 1 -0
    outer loop
      vertex 66.0422 39.8 -11.2335
      vertex -66.0734 39.8 -11.0365
      vertex 66.0734 39.8 -11.0365
    endloop
  endfacet
  facet normal 0 1 -0
    outer loop
      vertex 66 39.8 -11.5
      vertex -66.0734 39.8 -11.0365
      vertex 66.0422 39.8 -11.2335
    endloop
  endfacet
  facet normal 0 1 0
    outer loop
      vertex 66 39.8 -11.5
      vertex -66 39.8 -11.5
      vertex -66.0734 39.8 -11.0365
    endloop
  endfacet
  facet normal 0 1 0
    outer loop
      vertex 66.0312 39.8 -11.697
      vertex -66 39.8 -11.5
      vertex 66 39.8 -11.5
    endloop
  endfacet
  facet normal 0 1 0
    outer loop
      vertex 66.0734 39.8 -11.9635
      vertex -66 39.8 -11.5
      vertex 66.0312 39.8 -11.697
    endloop
  endfacet
  facet normal 0 1 0
    outer loop
      vertex 66.0734 39.8 -11.9635
      vertex -66.0734 39.8 -11.9635
      vertex -66 39.8 -11.5
    endloop
  endfacet
  facet normal 0 1 0
    outer loop
      vertex 66.2865 39.8 -12.3817
      vertex -66.0734 39.8 -11.9635
      vertex 66.0734 39.8 -11.9635
    endloop
  endfacet
  facet normal 0 1 0
    outer loop
      vertex 66.2865 39.8 -12.3817
      vertex -66.2865 39.8 -12.3817
      vertex -66.0734 39.8 -11.9635
    endloop
  endfacet
  facet normal 0 1 0
    outer loop
      vertex 66.6183 39.8 -12.7135
      vertex -66.2865 39.8 -12.3817
      vertex 66.2865 39.8 -12.3817
    endloop
  endfacet
  facet normal 0 1 0
    outer loop
      vertex 66.6183 39.8 -12.7135
      vertex -66.6183 39.8 -12.7135
      vertex -66.2865 39.8 -12.3817
    endloop
  endfacet
  facet normal 0 1 0
    outer loop
      vertex 72.5 39.8 -16.5
      vertex 66.6183 39.8 -12.7135
      vertex 67.0365 39.8 -12.9266
    endloop
  endfacet
  facet normal 0 1 0
    outer loop
      vertex 66.6183 39.8 -12.7135
      vertex 72.5 39.8 -16.5
      vertex -66.6183 39.8 -12.7135
    endloop
  endfacet
  facet normal 0 1 0
    outer loop
      vertex 72.5 39.8 -16.5
      vertex 67.0365 39.8 -12.9266
      vertex 67.5 39.8 -13
    endloop
  endfacet
  facet normal 0 1 0
    outer loop
      vertex -72.5 39.8 -16.5
      vertex -66.6183 39.8 -12.7135
      vertex 72.5 39.8 -16.5
    endloop
  endfacet
  facet normal 0 1 0
    outer loop
      vertex 72.5 39.8 16.5
      vertex 66.6183 39.8 12.7135
      vertex -72.5 39.8 16.5
    endloop
  endfacet
  facet normal 0 1 0
    outer loop
      vertex -72.5 39.8 16.5
      vertex -67.0365 39.8 12.9266
      vertex -67.5 39.8 13
    endloop
  endfacet
  facet normal 0 1 -0
    outer loop
      vertex -66.6183 39.8 12.7135
      vertex -72.5 39.8 16.5
      vertex 66.6183 39.8 12.7135
    endloop
  endfacet
  facet normal 0 1 0
    outer loop
      vertex -72.5 39.8 16.5
      vertex -66.6183 39.8 12.7135
      vertex -67.0365 39.8 12.9266
    endloop
  endfacet
  facet normal 0 1 -0
    outer loop
      vertex 66.2865 39.8 12.3817
      vertex -66.6183 39.8 12.7135
      vertex 66.6183 39.8 12.7135
    endloop
  endfacet
  facet normal 0 1 0
    outer loop
      vertex 66.2865 39.8 12.3817
      vertex -66.2865 39.8 12.3817
      vertex -66.6183 39.8 12.7135
    endloop
  endfacet
  facet normal 0 1 -0
    outer loop
      vertex 66.0734 39.8 11.9635
      vertex -66.2865 39.8 12.3817
      vertex 66.2865 39.8 12.3817
    endloop
  endfacet
  facet normal 0 1 0
    outer loop
      vertex 66.0734 39.8 11.9635
      vertex -66.0734 39.8 11.9635
      vertex -66.2865 39.8 12.3817
    endloop
  endfacet
  facet normal 0 1 -0
    outer loop
      vertex 66 39.8 11.5
      vertex -66.0734 39.8 11.9635
      vertex 66.0734 39.8 11.9635
    endloop
  endfacet
  facet normal 0 1 0
    outer loop
      vertex 66 39.8 11.5
      vertex -66 39.8 11.5
      vertex -66.0734 39.8 11.9635
    endloop
  endfacet
  facet normal 0 1 0
    outer loop
      vertex 66.0734 39.8 11.0365
      vertex -66 39.8 11.5
      vertex 66 39.8 11.5
    endloop
  endfacet
  facet normal 0 1 0
    outer loop
      vertex 66.0734 39.8 11.0365
      vertex -66.0734 39.8 11.0365
      vertex -66 39.8 11.5
    endloop
  endfacet
  facet normal 0 1 0
    outer loop
      vertex 66.6183 39.8 -10.2865
      vertex 66.6183 39.8 10.2865
      vertex 67.0365 39.8 -10.0734
    endloop
  endfacet
  facet normal 0 1 0
    outer loop
      vertex 66.6183 39.8 10.2865
      vertex 66.6183 39.8 -10.2865
      vertex 66.2865 39.8 10.6183
    endloop
  endfacet
  facet normal 0 1 0
    outer loop
      vertex 67.0365 39.8 10.0734
      vertex 67.0365 39.8 -10.0734
      vertex 66.6183 39.8 10.2865
    endloop
  endfacet
  facet normal 0 1 0
    outer loop
      vertex 66.2865 39.8 -10.6183
      vertex 66.2865 39.8 10.6183
      vertex 66.6183 39.8 -10.2865
    endloop
  endfacet
  facet normal 0 1 0
    outer loop
      vertex 67.0365 39.8 -10.0734
      vertex 67.0365 39.8 10.0734
      vertex 67.5 39.8 -10
    endloop
  endfacet
  facet normal 0 1 0
    outer loop
      vertex -66.0734 39.8 11.0365
      vertex -67.5 39.8 -10
      vertex -66.2865 39.8 10.6183
    endloop
  endfacet
  facet normal 0 1 -0
    outer loop
      vertex 67.5 39.8 -10
      vertex 67.0365 39.8 10.0734
      vertex 67.5 39.8 10
    endloop
  endfacet
  facet normal 0 1 0
    outer loop
      vertex -66.2865 39.8 10.6183
      vertex -67.5 39.8 -10
      vertex -66.6183 39.8 10.2865
    endloop
  endfacet
  facet normal 0 1 0
    outer loop
      vertex 67.0365 39.8 12.9266
      vertex 72.5 39.8 16.5
      vertex 67.5 39.8 13
    endloop
  endfacet
  facet normal 0 1 0
    outer loop
      vertex 72.5 39.8 16.5
      vertex 67.9635 39.8 12.9266
      vertex 67.5 39.8 13
    endloop
  endfacet
  facet normal 0 1 0
    outer loop
      vertex 72.5 39.8 16.5
      vertex 68.3817 39.8 12.7135
      vertex 67.9635 39.8 12.9266
    endloop
  endfacet
  facet normal 0 1 0
    outer loop
      vertex 72.5 39.8 16.5
      vertex 68.7135 39.8 12.3817
      vertex 68.3817 39.8 12.7135
    endloop
  endfacet
  facet normal 0 1 0
    outer loop
      vertex 72.5 39.8 16.5
      vertex 68.9266 39.8 11.9635
      vertex 68.7135 39.8 12.3817
    endloop
  endfacet
  facet normal 0 1 0
    outer loop
      vertex 72.5 39.8 16.5
      vertex 69 39.8 11.5
      vertex 68.9266 39.8 11.9635
    endloop
  endfacet
  facet normal 0 1 0
    outer loop
      vertex 72.5 39.8 16.5
      vertex 68.9266 39.8 11.0365
      vertex 69 39.8 11.5
    endloop
  endfacet
  facet normal 0 1 0
    outer loop
      vertex 68.9266 39.8 -11.0365
      vertex 68.9266 39.8 11.0365
      vertex 72.5 39.8 16.5
    endloop
  endfacet
  facet normal 0 1 0
    outer loop
      vertex -66.6183 39.8 10.2865
      vertex -67.5 39.8 -10
      vertex -67.0365 39.8 10.0734
    endloop
  endfacet
  facet normal 0 1 0
    outer loop
      vertex 67.9635 39.8 10.0734
      vertex 67.5 39.8 -10
      vertex 67.5 39.8 10
    endloop
  endfacet
  facet normal 0 1 0
    outer loop
      vertex 67.9635 39.8 -10.0734
      vertex 67.9635 39.8 10.0734
      vertex 68.3817 39.8 10.2865
    endloop
  endfacet
  facet normal 0 1 0
    outer loop
      vertex 68.3817 39.8 -10.2865
      vertex 68.3817 39.8 10.2865
      vertex 68.7135 39.8 10.6183
    endloop
  endfacet
  facet normal 0 1 0
    outer loop
      vertex 68.9266 39.8 11.0365
      vertex 68.9266 39.8 -11.0365
      vertex 68.7135 39.8 10.6183
    endloop
  endfacet
  facet normal 0 1 0
    outer loop
      vertex 67.9635 39.8 10.0734
      vertex 67.9635 39.8 -10.0734
      vertex 67.5 39.8 -10
    endloop
  endfacet
  facet normal 0 1 0
    outer loop
      vertex 68.3817 39.8 10.2865
      vertex 68.3817 39.8 -10.2865
      vertex 67.9635 39.8 -10.0734
    endloop
  endfacet
  facet normal 0 1 0
    outer loop
      vertex 68.7135 39.8 10.6183
      vertex 68.7135 39.8 -10.6183
      vertex 68.3817 39.8 -10.2865
    endloop
  endfacet
  facet normal 0 1 0
    outer loop
      vertex 68.7135 39.8 10.6183
      vertex 68.9266 39.8 -11.0365
      vertex 68.7135 39.8 -10.6183
    endloop
  endfacet
  facet normal 0 1 -0
    outer loop
      vertex 72.5 39.8 -16.5
      vertex 68.9266 39.8 -11.0365
      vertex 72.5 39.8 16.5
    endloop
  endfacet
  facet normal 0 1 0
    outer loop
      vertex -66.6183 39.8 -12.7135
      vertex -72.5 39.8 -16.5
      vertex -67.0365 39.8 -12.9266
    endloop
  endfacet
  facet normal 0 1 0
    outer loop
      vertex 67.9635 39.8 -12.9266
      vertex 72.5 39.8 -16.5
      vertex 67.5 39.8 -13
    endloop
  endfacet
  facet normal 0 1 0
    outer loop
      vertex 68.3817 39.8 -12.7135
      vertex 72.5 39.8 -16.5
      vertex 67.9635 39.8 -12.9266
    endloop
  endfacet
  facet normal 0 1 0
    outer loop
      vertex 68.7135 39.8 -12.3817
      vertex 72.5 39.8 -16.5
      vertex 68.3817 39.8 -12.7135
    endloop
  endfacet
  facet normal 0 1 0
    outer loop
      vertex 68.9266 39.8 -11.9635
      vertex 72.5 39.8 -16.5
      vertex 68.7135 39.8 -12.3817
    endloop
  endfacet
  facet normal 0 1 0
    outer loop
      vertex 69 39.8 -11.5
      vertex 72.5 39.8 -16.5
      vertex 68.9266 39.8 -11.9635
    endloop
  endfacet
  facet normal 0 1 0
    outer loop
      vertex 68.9266 39.8 -11.0365
      vertex 72.5 39.8 -16.5
      vertex 69 39.8 -11.5
    endloop
  endfacet
  facet normal 0 1 0
    outer loop
      vertex 66.6183 39.8 12.7135
      vertex 72.5 39.8 16.5
      vertex 67.0365 39.8 12.9266
    endloop
  endfacet
  facet normal 0 1 -0
    outer loop
      vertex -67.9635 39.8 12.9266
      vertex -72.5 39.8 16.5
      vertex -67.5 39.8 13
    endloop
  endfacet
  facet normal 0 1 -0
    outer loop
      vertex -68.3817 39.8 12.7135
      vertex -72.5 39.8 16.5
      vertex -67.9635 39.8 12.9266
    endloop
  endfacet
  facet normal 0 1 -0
    outer loop
      vertex -68.7135 39.8 12.3817
      vertex -72.5 39.8 16.5
      vertex -68.3817 39.8 12.7135
    endloop
  endfacet
  facet normal 0 1 -0
    outer loop
      vertex -68.9266 39.8 11.9635
      vertex -72.5 39.8 16.5
      vertex -68.7135 39.8 12.3817
    endloop
  endfacet
  facet normal 0 1 -0
    outer loop
      vertex -69 39.8 11.5
      vertex -72.5 39.8 16.5
      vertex -68.9266 39.8 11.9635
    endloop
  endfacet
  facet normal 0 1 0
    outer loop
      vertex -68.9266 39.8 11.0365
      vertex -72.5 39.8 16.5
      vertex -69 39.8 11.5
    endloop
  endfacet
  facet normal 0 1 0
    outer loop
      vertex -68.9266 39.8 -11.0365
      vertex -68.9266 39.8 11.0365
      vertex -68.7135 39.8 10.6183
    endloop
  endfacet
  facet normal 0 1 0
    outer loop
      vertex -67.0365 39.8 10.0734
      vertex -67.5 39.8 -10
      vertex -67.5 39.8 10
    endloop
  endfacet
  facet normal 0 1 -0
    outer loop
      vertex -67.5 39.8 -10
      vertex -67.9635 39.8 10.0734
      vertex -67.5 39.8 10
    endloop
  endfacet
  facet normal 0 1 0
    outer loop
      vertex -67.9635 39.8 -10.0734
      vertex -67.9635 39.8 10.0734
      vertex -67.5 39.8 -10
    endloop
  endfacet
  facet normal 0 1 0
    outer loop
      vertex -67.9635 39.8 10.0734
      vertex -67.9635 39.8 -10.0734
      vertex -68.3817 39.8 10.2865
    endloop
  endfacet
  facet normal 0 1 0
    outer loop
      vertex -68.3817 39.8 -10.2865
      vertex -68.3817 39.8 10.2865
      vertex -67.9635 39.8 -10.0734
    endloop
  endfacet
  facet normal 0 1 0
    outer loop
      vertex -68.3817 39.8 10.2865
      vertex -68.3817 39.8 -10.2865
      vertex -68.7135 39.8 10.6183
    endloop
  endfacet
  facet normal 0 1 0
    outer loop
      vertex -68.7135 39.8 -10.6183
      vertex -68.7135 39.8 10.6183
      vertex -68.3817 39.8 -10.2865
    endloop
  endfacet
  facet normal 0 1 0
    outer loop
      vertex -68.9266 39.8 -11.0365
      vertex -68.7135 39.8 10.6183
      vertex -68.7135 39.8 -10.6183
    endloop
  endfacet
  facet normal 0 1 0
    outer loop
      vertex -68.9266 39.8 11.0365
      vertex -68.9266 39.8 -11.0365
      vertex -72.5 39.8 16.5
    endloop
  endfacet
  facet normal 0 1 0
    outer loop
      vertex -72.5 39.8 -16.5
      vertex -68.9266 39.8 -11.0365
      vertex -68.9578 39.8 -11.2335
    endloop
  endfacet
  facet normal 0 1 0
    outer loop
      vertex -72.5 39.8 -16.5
      vertex -68.9578 39.8 -11.2335
      vertex -69 39.8 -11.5
    endloop
  endfacet
  facet normal 0 1 0
    outer loop
      vertex -72.5 39.8 -16.5
      vertex -68.9688 39.8 -11.697
      vertex -68.9266 39.8 -11.9635
    endloop
  endfacet
  facet normal 0 1 0
    outer loop
      vertex -68.9266 39.8 -11.0365
      vertex -72.5 39.8 -16.5
      vertex -72.5 39.8 16.5
    endloop
  endfacet
  facet normal 0 1 0
    outer loop
      vertex -68.9688 39.8 -11.697
      vertex -72.5 39.8 -16.5
      vertex -69 39.8 -11.5
    endloop
  endfacet
  facet normal 0 1 0
    outer loop
      vertex -68.7135 39.8 -12.3817
      vertex -72.5 39.8 -16.5
      vertex -68.9266 39.8 -11.9635
    endloop
  endfacet
  facet normal 0 1 0
    outer loop
      vertex -68.3817 39.8 -12.7135
      vertex -72.5 39.8 -16.5
      vertex -68.7135 39.8 -12.3817
    endloop
  endfacet
  facet normal 0 1 0
    outer loop
      vertex -67.9635 39.8 -12.9266
      vertex -72.5 39.8 -16.5
      vertex -68.3817 39.8 -12.7135
    endloop
  endfacet
  facet normal 0 1 0
    outer loop
      vertex -67.5 39.8 -13
      vertex -72.5 39.8 -16.5
      vertex -67.9635 39.8 -12.9266
    endloop
  endfacet
  facet normal 0 1 0
    outer loop
      vertex -67.0365 39.8 -12.9266
      vertex -72.5 39.8 -16.5
      vertex -67.5 39.8 -13
    endloop
  endfacet
  facet normal 0 0 -1
    outer loop
      vertex -72.5 38.6 -16.5
      vertex 72.5 39.8 -16.5
      vertex 72.5 38.6 -16.5
    endloop
  endfacet
  facet normal -0 0 -1
    outer loop
      vertex 72.5 39.8 -16.5
      vertex -72.5 38.6 -16.5
      vertex -72.5 39.8 -16.5
    endloop
  endfacet
  facet normal 0 -1 0
    outer loop
      vertex -66.2865 38.6 10.6183
      vertex -66.2865 38.6 -10.6183
      vertex -66.0734 38.6 11.0365
    endloop
  endfacet
  facet normal 0 -1 0
    outer loop
      vertex 66.0734 38.6 11.0365
      vertex 67.0365 38.6 -10.0734
      vertex 67.5 38.6 -10
    endloop
  endfacet
  facet normal 0 -1 0
    outer loop
      vertex -66.0734 38.6 -11.0365
      vertex -66.0734 38.6 11.0365
      vertex -66.2865 38.6 -10.6183
    endloop
  endfacet
  facet normal 0 -1 0
    outer loop
      vertex 66.0734 38.6 11.0365
      vertex 66.6183 38.6 -10.2865
      vertex 67.0365 38.6 -10.0734
    endloop
  endfacet
  facet normal 0 -1 0
    outer loop
      vertex -66.0734 38.6 11.0365
      vertex -66.0734 38.6 -11.0365
      vertex 66.0734 38.6 11.0365
    endloop
  endfacet
  facet normal 0 -1 0
    outer loop
      vertex 66.0734 38.6 11.0365
      vertex 66.2865 38.6 -10.6183
      vertex 66.6183 38.6 -10.2865
    endloop
  endfacet
  facet normal 0 -1 0
    outer loop
      vertex 66.0734 38.6 -11.0365
      vertex 66.0734 38.6 11.0365
      vertex -66.0734 38.6 -11.0365
    endloop
  endfacet
  facet normal 0 -1 0
    outer loop
      vertex 66.0734 38.6 11.0365
      vertex 66.0734 38.6 -11.0365
      vertex 66.2865 38.6 -10.6183
    endloop
  endfacet
  facet normal 0 -1 0
    outer loop
      vertex -66.0734 38.6 -11.0365
      vertex 66.0312 38.6 -11.303
      vertex 66.0734 38.6 -11.0365
    endloop
  endfacet
  facet normal 0 -1 0
    outer loop
      vertex -66.0734 38.6 -11.0365
      vertex 66 38.6 -11.5
      vertex 66.0312 38.6 -11.303
    endloop
  endfacet
  facet normal 0 -1 0
    outer loop
      vertex -66 38.6 -11.5
      vertex 66 38.6 -11.5
      vertex -66.0734 38.6 -11.0365
    endloop
  endfacet
  facet normal 0 -1 0
    outer loop
      vertex -66 38.6 -11.5
      vertex 66.0422 38.6 -11.7665
      vertex 66 38.6 -11.5
    endloop
  endfacet
  facet normal 0 -1 0
    outer loop
      vertex -66.0734 38.6 -11.9635
      vertex 66.0422 38.6 -11.7665
      vertex -66 38.6 -11.5
    endloop
  endfacet
  facet normal 0 -1 0
    outer loop
      vertex -66.0734 38.6 -11.9635
      vertex 66.0734 38.6 -11.9635
      vertex 66.0422 38.6 -11.7665
    endloop
  endfacet
  facet normal 0 -1 0
    outer loop
      vertex -66.2865 38.6 -12.3817
      vertex 66.0734 38.6 -11.9635
      vertex -66.0734 38.6 -11.9635
    endloop
  endfacet
  facet normal 0 -1 0
    outer loop
      vertex -66.2865 38.6 -12.3817
      vertex 66.2865 38.6 -12.3817
      vertex 66.0734 38.6 -11.9635
    endloop
  endfacet
  facet normal 0 -1 0
    outer loop
      vertex -66.6183 38.6 -12.7135
      vertex 66.2865 38.6 -12.3817
      vertex -66.2865 38.6 -12.3817
    endloop
  endfacet
  facet normal 0 -1 0
    outer loop
      vertex -66.6183 38.6 -12.7135
      vertex 66.6183 38.6 -12.7135
      vertex 66.2865 38.6 -12.3817
    endloop
  endfacet
  facet normal 0 -1 0
    outer loop
      vertex -72.5 38.6 -16.5
      vertex -66.6183 38.6 -12.7135
      vertex -67.0365 38.6 -12.9266
    endloop
  endfacet
  facet normal 0 -1 -0
    outer loop
      vertex -66.6183 38.6 -12.7135
      vertex -72.5 38.6 -16.5
      vertex 66.6183 38.6 -12.7135
    endloop
  endfacet
  facet normal 0 -1 0
    outer loop
      vertex -72.5 38.6 -16.5
      vertex -67.0365 38.6 -12.9266
      vertex -67.5 38.6 -13
    endloop
  endfacet
  facet normal 0 -1 0
    outer loop
      vertex 72.5 38.6 -16.5
      vertex 66.6183 38.6 -12.7135
      vertex -72.5 38.6 -16.5
    endloop
  endfacet
  facet normal 0 -1 0
    outer loop
      vertex -72.5 38.6 16.5
      vertex -66.6183 38.6 12.7135
      vertex 72.5 38.6 16.5
    endloop
  endfacet
  facet normal 0 -1 0
    outer loop
      vertex 72.5 38.6 16.5
      vertex 67.0365 38.6 12.9266
      vertex 67.5 38.6 13
    endloop
  endfacet
  facet normal 0 -1 0
    outer loop
      vertex 66.6183 38.6 12.7135
      vertex 72.5 38.6 16.5
      vertex -66.6183 38.6 12.7135
    endloop
  endfacet
  facet normal 0 -1 0
    outer loop
      vertex 72.5 38.6 16.5
      vertex 66.6183 38.6 12.7135
      vertex 67.0365 38.6 12.9266
    endloop
  endfacet
  facet normal 0 -1 0
    outer loop
      vertex -66.2865 38.6 12.3817
      vertex 66.6183 38.6 12.7135
      vertex -66.6183 38.6 12.7135
    endloop
  endfacet
  facet normal 0 -1 0
    outer loop
      vertex -66.2865 38.6 12.3817
      vertex 66.2865 38.6 12.3817
      vertex 66.6183 38.6 12.7135
    endloop
  endfacet
  facet normal 0 -1 0
    outer loop
      vertex -66.0734 38.6 11.9635
      vertex 66.2865 38.6 12.3817
      vertex -66.2865 38.6 12.3817
    endloop
  endfacet
  facet normal 0 -1 0
    outer loop
      vertex -66.0734 38.6 11.9635
      vertex 66.0734 38.6 11.9635
      vertex 66.2865 38.6 12.3817
    endloop
  endfacet
  facet normal 0 -1 0
    outer loop
      vertex -66 38.6 11.5
      vertex 66.0734 38.6 11.9635
      vertex -66.0734 38.6 11.9635
    endloop
  endfacet
  facet normal 0 -1 0
    outer loop
      vertex -66 38.6 11.5
      vertex 66 38.6 11.5
      vertex 66.0734 38.6 11.9635
    endloop
  endfacet
  facet normal 0 -1 0
    outer loop
      vertex -66.0734 38.6 11.0365
      vertex 66 38.6 11.5
      vertex -66 38.6 11.5
    endloop
  endfacet
  facet normal 0 -1 0
    outer loop
      vertex -66.0734 38.6 11.0365
      vertex 66.0734 38.6 11.0365
      vertex 66 38.6 11.5
    endloop
  endfacet
  facet normal 0 -1 0
    outer loop
      vertex -66.6183 38.6 -10.2865
      vertex -66.6183 38.6 10.2865
      vertex -67.0365 38.6 -10.0734
    endloop
  endfacet
  facet normal 0 -1 0
    outer loop
      vertex -66.6183 38.6 10.2865
      vertex -66.6183 38.6 -10.2865
      vertex -66.2865 38.6 10.6183
    endloop
  endfacet
  facet normal 0 -1 0
    outer loop
      vertex -67.0365 38.6 10.0734
      vertex -67.0365 38.6 -10.0734
      vertex -66.6183 38.6 10.2865
    endloop
  endfacet
  facet normal 0 -1 0
    outer loop
      vertex -66.2865 38.6 -10.6183
      vertex -66.2865 38.6 10.6183
      vertex -66.6183 38.6 -10.2865
    endloop
  endfacet
  facet normal 0 -1 0
    outer loop
      vertex -67.0365 38.6 -10.0734
      vertex -67.0365 38.6 10.0734
      vertex -67.5 38.6 -10
    endloop
  endfacet
  facet normal 0 -1 0
    outer loop
      vertex 66.0734 38.6 11.0365
      vertex 67.5 38.6 -10
      vertex 66.2865 38.6 10.6183
    endloop
  endfacet
  facet normal 0 -1 0
    outer loop
      vertex -67.5 38.6 -10
      vertex -67.0365 38.6 10.0734
      vertex -67.5 38.6 10
    endloop
  endfacet
  facet normal 0 -1 0
    outer loop
      vertex 66.2865 38.6 10.6183
      vertex 67.5 38.6 -10
      vertex 66.6183 38.6 10.2865
    endloop
  endfacet
  facet normal 0 -1 0
    outer loop
      vertex -67.0365 38.6 12.9266
      vertex -72.5 38.6 16.5
      vertex -67.5 38.6 13
    endloop
  endfacet
  facet normal 0 -1 0
    outer loop
      vertex -72.5 38.6 16.5
      vertex -67.9635 38.6 12.9266
      vertex -67.5 38.6 13
    endloop
  endfacet
  facet normal 0 -1 0
    outer loop
      vertex -72.5 38.6 16.5
      vertex -68.3817 38.6 12.7135
      vertex -67.9635 38.6 12.9266
    endloop
  endfacet
  facet normal 0 -1 0
    outer loop
      vertex -72.5 38.6 16.5
      vertex -68.7135 38.6 12.3817
      vertex -68.3817 38.6 12.7135
    endloop
  endfacet
  facet normal 0 -1 0
    outer loop
      vertex -72.5 38.6 16.5
      vertex -68.9266 38.6 11.9635
      vertex -68.7135 38.6 12.3817
    endloop
  endfacet
  facet normal 0 -1 0
    outer loop
      vertex -72.5 38.6 16.5
      vertex -69 38.6 11.5
      vertex -68.9266 38.6 11.9635
    endloop
  endfacet
  facet normal 0 -1 0
    outer loop
      vertex -72.5 38.6 16.5
      vertex -68.9266 38.6 11.0365
      vertex -69 38.6 11.5
    endloop
  endfacet
  facet normal 0 -1 0
    outer loop
      vertex -68.9266 38.6 -11.0365
      vertex -68.9266 38.6 11.0365
      vertex -72.5 38.6 16.5
    endloop
  endfacet
  facet normal 0 -1 0
    outer loop
      vertex 66.6183 38.6 10.2865
      vertex 67.5 38.6 -10
      vertex 67.0365 38.6 10.0734
    endloop
  endfacet
  facet normal 0 -1 0
    outer loop
      vertex -67.9635 38.6 10.0734
      vertex -67.5 38.6 -10
      vertex -67.5 38.6 10
    endloop
  endfacet
  facet normal 0 -1 0
    outer loop
      vertex -67.9635 38.6 -10.0734
      vertex -67.9635 38.6 10.0734
      vertex -68.3817 38.6 10.2865
    endloop
  endfacet
  facet normal 0 -1 0
    outer loop
      vertex -68.3817 38.6 -10.2865
      vertex -68.3817 38.6 10.2865
      vertex -68.7135 38.6 10.6183
    endloop
  endfacet
  facet normal 0 -1 0
    outer loop
      vertex -68.9266 38.6 11.0365
      vertex -68.9266 38.6 -11.0365
      vertex -68.7135 38.6 10.6183
    endloop
  endfacet
  facet normal 0 -1 0
    outer loop
      vertex -67.9635 38.6 10.0734
      vertex -67.9635 38.6 -10.0734
      vertex -67.5 38.6 -10
    endloop
  endfacet
  facet normal 0 -1 0
    outer loop
      vertex -68.3817 38.6 10.2865
      vertex -68.3817 38.6 -10.2865
      vertex -67.9635 38.6 -10.0734
    endloop
  endfacet
  facet normal 0 -1 0
    outer loop
      vertex -68.7135 38.6 10.6183
      vertex -68.7135 38.6 -10.6183
      vertex -68.3817 38.6 -10.2865
    endloop
  endfacet
  facet normal 0 -1 -0
    outer loop
      vertex -68.7135 38.6 10.6183
      vertex -68.9266 38.6 -11.0365
      vertex -68.7135 38.6 -10.6183
    endloop
  endfacet
  facet normal 0 -1 0
    outer loop
      vertex -72.5 38.6 -16.5
      vertex -68.9266 38.6 -11.0365
      vertex -72.5 38.6 16.5
    endloop
  endfacet
  facet normal 0 -1 0
    outer loop
      vertex -68.9266 38.6 -11.0365
      vertex -72.5 38.6 -16.5
      vertex -68.9688 38.6 -11.303
    endloop
  endfacet
  facet normal 0 -1 0
    outer loop
      vertex 66.6183 38.6 -12.7135
      vertex 72.5 38.6 -16.5
      vertex 67.0365 38.6 -12.9266
    endloop
  endfacet
  facet normal 0 -1 -0
    outer loop
      vertex -67.9635 38.6 -12.9266
      vertex -72.5 38.6 -16.5
      vertex -67.5 38.6 -13
    endloop
  endfacet
  facet normal 0 -1 -0
    outer loop
      vertex -68.3817 38.6 -12.7135
      vertex -72.5 38.6 -16.5
      vertex -67.9635 38.6 -12.9266
    endloop
  endfacet
  facet normal 0 -1 -0
    outer loop
      vertex -68.7135 38.6 -12.3817
      vertex -72.5 38.6 -16.5
      vertex -68.3817 38.6 -12.7135
    endloop
  endfacet
  facet normal 0 -1 -0
    outer loop
      vertex -68.9266 38.6 -11.9635
      vertex -72.5 38.6 -16.5
      vertex -68.7135 38.6 -12.3817
    endloop
  endfacet
  facet normal 0 -1 -0
    outer loop
      vertex -68.9578 38.6 -11.7665
      vertex -72.5 38.6 -16.5
      vertex -68.9266 38.6 -11.9635
    endloop
  endfacet
  facet normal 0 -1 -0
    outer loop
      vertex -69 38.6 -11.5
      vertex -72.5 38.6 -16.5
      vertex -68.9578 38.6 -11.7665
    endloop
  endfacet
  facet normal 0 -1 0
    outer loop
      vertex -68.9688 38.6 -11.303
      vertex -72.5 38.6 -16.5
      vertex -69 38.6 -11.5
    endloop
  endfacet
  facet normal 0 -1 0
    outer loop
      vertex -66.6183 38.6 12.7135
      vertex -72.5 38.6 16.5
      vertex -67.0365 38.6 12.9266
    endloop
  endfacet
  facet normal 0 -1 0
    outer loop
      vertex 67.9635 38.6 12.9266
      vertex 72.5 38.6 16.5
      vertex 67.5 38.6 13
    endloop
  endfacet
  facet normal 0 -1 0
    outer loop
      vertex 68.3817 38.6 12.7135
      vertex 72.5 38.6 16.5
      vertex 67.9635 38.6 12.9266
    endloop
  endfacet
  facet normal 0 -1 0
    outer loop
      vertex 68.7135 38.6 12.3817
      vertex 72.5 38.6 16.5
      vertex 68.3817 38.6 12.7135
    endloop
  endfacet
  facet normal 0 -1 0
    outer loop
      vertex 68.9266 38.6 11.9635
      vertex 72.5 38.6 16.5
      vertex 68.7135 38.6 12.3817
    endloop
  endfacet
  facet normal 0 -1 0
    outer loop
      vertex 69 38.6 11.5
      vertex 72.5 38.6 16.5
      vertex 68.9266 38.6 11.9635
    endloop
  endfacet
  facet normal 0 -1 0
    outer loop
      vertex 68.9266 38.6 11.0365
      vertex 72.5 38.6 16.5
      vertex 69 38.6 11.5
    endloop
  endfacet
  facet normal 0 -1 0
    outer loop
      vertex 68.9266 38.6 -11.0365
      vertex 68.9266 38.6 11.0365
      vertex 68.7135 38.6 10.6183
    endloop
  endfacet
  facet normal 0 -1 0
    outer loop
      vertex 67.0365 38.6 10.0734
      vertex 67.5 38.6 -10
      vertex 67.5 38.6 10
    endloop
  endfacet
  facet normal 0 -1 0
    outer loop
      vertex 67.5 38.6 -10
      vertex 67.9635 38.6 10.0734
      vertex 67.5 38.6 10
    endloop
  endfacet
  facet normal 0 -1 0
    outer loop
      vertex 67.9635 38.6 -10.0734
      vertex 67.9635 38.6 10.0734
      vertex 67.5 38.6 -10
    endloop
  endfacet
  facet normal 0 -1 0
    outer loop
      vertex 67.9635 38.6 10.0734
      vertex 67.9635 38.6 -10.0734
      vertex 68.3817 38.6 10.2865
    endloop
  endfacet
  facet normal 0 -1 0
    outer loop
      vertex 68.3817 38.6 -10.2865
      vertex 68.3817 38.6 10.2865
      vertex 67.9635 38.6 -10.0734
    endloop
  endfacet
  facet normal 0 -1 0
    outer loop
      vertex 68.3817 38.6 10.2865
      vertex 68.3817 38.6 -10.2865
      vertex 68.7135 38.6 10.6183
    endloop
  endfacet
  facet normal 0 -1 0
    outer loop
      vertex 68.7135 38.6 -10.6183
      vertex 68.7135 38.6 10.6183
      vertex 68.3817 38.6 -10.2865
    endloop
  endfacet
  facet normal 0 -1 0
    outer loop
      vertex 68.9266 38.6 -11.0365
      vertex 68.7135 38.6 10.6183
      vertex 68.7135 38.6 -10.6183
    endloop
  endfacet
  facet normal 0 -1 0
    outer loop
      vertex 68.9266 38.6 11.0365
      vertex 68.9266 38.6 -11.0365
      vertex 72.5 38.6 16.5
    endloop
  endfacet
  facet normal 0 -1 0
    outer loop
      vertex 72.5 38.6 -16.5
      vertex 68.9266 38.6 -11.0365
      vertex 69 38.6 -11.5
    endloop
  endfacet
  facet normal 0 -1 0
    outer loop
      vertex 68.9266 38.6 -11.0365
      vertex 72.5 38.6 -16.5
      vertex 72.5 38.6 16.5
    endloop
  endfacet
  facet normal 0 -1 0
    outer loop
      vertex 68.9266 38.6 -11.9635
      vertex 72.5 38.6 -16.5
      vertex 69 38.6 -11.5
    endloop
  endfacet
  facet normal 0 -1 0
    outer loop
      vertex 68.7135 38.6 -12.3817
      vertex 72.5 38.6 -16.5
      vertex 68.9266 38.6 -11.9635
    endloop
  endfacet
  facet normal 0 -1 0
    outer loop
      vertex 68.3817 38.6 -12.7135
      vertex 72.5 38.6 -16.5
      vertex 68.7135 38.6 -12.3817
    endloop
  endfacet
  facet normal 0 -1 0
    outer loop
      vertex 67.9635 38.6 -12.9266
      vertex 72.5 38.6 -16.5
      vertex 68.3817 38.6 -12.7135
    endloop
  endfacet
  facet normal 0 -1 0
    outer loop
      vertex 67.5 38.6 -13
      vertex 72.5 38.6 -16.5
      vertex 67.9635 38.6 -12.9266
    endloop
  endfacet
  facet normal 0 -1 0
    outer loop
      vertex 67.0365 38.6 -12.9266
      vertex 72.5 38.6 -16.5
      vertex 67.5 38.6 -13
    endloop
  endfacet
  facet normal -0.987688 0 -0.15644
    outer loop
      vertex 69 38.6 11.5
      vertex 68.9266 39.8 11.9635
      vertex 69 39.8 11.5
    endloop
  endfacet
  facet normal -0.987688 -0 -0.15644
    outer loop
      vertex 68.9266 39.8 11.9635
      vertex 69 38.6 11.5
      vertex 68.9266 38.6 11.9635
    endloop
  endfacet
  facet normal -0.891007 0 -0.453989
    outer loop
      vertex 68.9266 38.6 11.9635
      vertex 68.7135 39.8 12.3817
      vertex 68.9266 39.8 11.9635
    endloop
  endfacet
  facet normal -0.891007 -0 -0.453989
    outer loop
      vertex 68.7135 39.8 12.3817
      vertex 68.9266 38.6 11.9635
      vertex 68.7135 38.6 12.3817
    endloop
  endfacet
  facet normal 0.891007 -0 0.453989
    outer loop
      vertex 66.0734 38.6 11.0365
      vertex 66.2865 39.8 10.6183
      vertex 66.0734 39.8 11.0365
    endloop
  endfacet
  facet normal 0.891007 0 0.453989
    outer loop
      vertex 66.2865 39.8 10.6183
      vertex 66.0734 38.6 11.0365
      vertex 66.2865 38.6 10.6183
    endloop
  endfacet
  facet normal 0.156436 0 -0.987688
    outer loop
      vertex 67.0365 38.6 12.9266
      vertex 67.5 39.8 13
      vertex 67.5 38.6 13
    endloop
  endfacet
  facet normal 0.156436 0 -0.987688
    outer loop
      vertex 67.5 39.8 13
      vertex 67.0365 38.6 12.9266
      vertex 67.0365 39.8 12.9266
    endloop
  endfacet
  facet normal 0.707106 0 -0.707108
    outer loop
      vertex 66.2865 38.6 12.3817
      vertex 66.6183 39.8 12.7135
      vertex 66.6183 38.6 12.7135
    endloop
  endfacet
  facet normal 0.707106 0 -0.707108
    outer loop
      vertex 66.6183 39.8 12.7135
      vertex 66.2865 38.6 12.3817
      vertex 66.2865 39.8 12.3817
    endloop
  endfacet
  facet normal -0.707106 0 -0.707108
    outer loop
      vertex 68.3817 38.6 12.7135
      vertex 68.7135 39.8 12.3817
      vertex 68.7135 38.6 12.3817
    endloop
  endfacet
  facet normal -0.707106 0 -0.707108
    outer loop
      vertex 68.7135 39.8 12.3817
      vertex 68.3817 38.6 12.7135
      vertex 68.3817 39.8 12.7135
    endloop
  endfacet
  facet normal 0.453991 0 -0.891006
    outer loop
      vertex 66.6183 38.6 12.7135
      vertex 67.0365 39.8 12.9266
      vertex 67.0365 38.6 12.9266
    endloop
  endfacet
  facet normal 0.453991 0 -0.891006
    outer loop
      vertex 67.0365 39.8 12.9266
      vertex 66.6183 38.6 12.7135
      vertex 66.6183 39.8 12.7135
    endloop
  endfacet
  facet normal -0.453991 0 0.891006
    outer loop
      vertex 67.9635 39.8 10.0734
      vertex 68.3817 38.6 10.2865
      vertex 68.3817 39.8 10.2865
    endloop
  endfacet
  facet normal -0.453991 0 0.891006
    outer loop
      vertex 68.3817 38.6 10.2865
      vertex 67.9635 39.8 10.0734
      vertex 67.9635 38.6 10.0734
    endloop
  endfacet
  facet normal -0.453991 0 -0.891006
    outer loop
      vertex 67.9635 38.6 12.9266
      vertex 68.3817 39.8 12.7135
      vertex 68.3817 38.6 12.7135
    endloop
  endfacet
  facet normal -0.453991 0 -0.891006
    outer loop
      vertex 68.3817 39.8 12.7135
      vertex 67.9635 38.6 12.9266
      vertex 67.9635 39.8 12.9266
    endloop
  endfacet
  facet normal -0.156436 0 -0.987688
    outer loop
      vertex 67.5 38.6 13
      vertex 67.9635 39.8 12.9266
      vertex 67.9635 38.6 12.9266
    endloop
  endfacet
  facet normal -0.156436 0 -0.987688
    outer loop
      vertex 67.9635 39.8 12.9266
      vertex 67.5 38.6 13
      vertex 67.5 39.8 13
    endloop
  endfacet
  facet normal 0.891007 0 -0.453989
    outer loop
      vertex 66.2865 38.6 12.3817
      vertex 66.0734 39.8 11.9635
      vertex 66.2865 39.8 12.3817
    endloop
  endfacet
  facet normal 0.891007 0 -0.453989
    outer loop
      vertex 66.0734 39.8 11.9635
      vertex 66.2865 38.6 12.3817
      vertex 66.0734 38.6 11.9635
    endloop
  endfacet
  facet normal -0.707106 0 0.707108
    outer loop
      vertex 68.3817 39.8 10.2865
      vertex 68.7135 38.6 10.6183
      vertex 68.7135 39.8 10.6183
    endloop
  endfacet
  facet normal -0.707106 0 0.707108
    outer loop
      vertex 68.7135 38.6 10.6183
      vertex 68.3817 39.8 10.2865
      vertex 68.3817 38.6 10.2865
    endloop
  endfacet
  facet normal 0.453991 0 0.891006
    outer loop
      vertex 66.6183 39.8 10.2865
      vertex 67.0365 38.6 10.0734
      vertex 67.0365 39.8 10.0734
    endloop
  endfacet
  facet normal 0.453991 0 0.891006
    outer loop
      vertex 67.0365 38.6 10.0734
      vertex 66.6183 39.8 10.2865
      vertex 66.6183 38.6 10.2865
    endloop
  endfacet
  facet normal 0.987688 0 -0.15644
    outer loop
      vertex 66.0734 38.6 11.9635
      vertex 66 39.8 11.5
      vertex 66.0734 39.8 11.9635
    endloop
  endfacet
  facet normal 0.987688 0 -0.15644
    outer loop
      vertex 66 39.8 11.5
      vertex 66.0734 38.6 11.9635
      vertex 66 38.6 11.5
    endloop
  endfacet
  facet normal 0.987688 -0 0.156439
    outer loop
      vertex 66 38.6 11.5
      vertex 66.0734 39.8 11.0365
      vertex 66 39.8 11.5
    endloop
  endfacet
  facet normal 0.987688 0 0.156439
    outer loop
      vertex 66.0734 39.8 11.0365
      vertex 66 38.6 11.5
      vertex 66.0734 38.6 11.0365
    endloop
  endfacet
  facet normal -0.891007 0 0.453989
    outer loop
      vertex 68.7135 38.6 10.6183
      vertex 68.9266 39.8 11.0365
      vertex 68.7135 39.8 10.6183
    endloop
  endfacet
  facet normal -0.891007 0 0.453989
    outer loop
      vertex 68.9266 39.8 11.0365
      vertex 68.7135 38.6 10.6183
      vertex 68.9266 38.6 11.0365
    endloop
  endfacet
  facet normal -0.987688 0 0.156439
    outer loop
      vertex 68.9266 38.6 11.0365
      vertex 69 39.8 11.5
      vertex 68.9266 39.8 11.0365
    endloop
  endfacet
  facet normal -0.987688 0 0.156439
    outer loop
      vertex 69 39.8 11.5
      vertex 68.9266 38.6 11.0365
      vertex 69 38.6 11.5
    endloop
  endfacet
  facet normal 0.156434 0 0.987688
    outer loop
      vertex 67.0365 39.8 10.0734
      vertex 67.5 38.6 10
      vertex 67.5 39.8 10
    endloop
  endfacet
  facet normal 0.156434 0 0.987688
    outer loop
      vertex 67.5 38.6 10
      vertex 67.0365 39.8 10.0734
      vertex 67.0365 38.6 10.0734
    endloop
  endfacet
  facet normal -0.156434 0 0.987688
    outer loop
      vertex 67.5 39.8 10
      vertex 67.9635 38.6 10.0734
      vertex 67.9635 39.8 10.0734
    endloop
  endfacet
  facet normal -0.156434 0 0.987688
    outer loop
      vertex 67.9635 38.6 10.0734
      vertex 67.5 39.8 10
      vertex 67.5 38.6 10
    endloop
  endfacet
  facet normal 0.707106 0 0.707108
    outer loop
      vertex 66.2865 39.8 10.6183
      vertex 66.6183 38.6 10.2865
      vertex 66.6183 39.8 10.2865
    endloop
  endfacet
  facet normal 0.707106 0 0.707108
    outer loop
      vertex 66.6183 38.6 10.2865
      vertex 66.2865 39.8 10.6183
      vertex 66.2865 38.6 10.6183
    endloop
  endfacet
  facet normal -0.987688 0 -0.156439
    outer loop
      vertex 69 38.6 -11.5
      vertex 68.9266 39.8 -11.0365
      vertex 69 39.8 -11.5
    endloop
  endfacet
  facet normal -0.987688 -0 -0.156439
    outer loop
      vertex 68.9266 39.8 -11.0365
      vertex 69 38.6 -11.5
      vertex 68.9266 38.6 -11.0365
    endloop
  endfacet
  facet normal -0.891007 0 -0.453989
    outer loop
      vertex 68.9266 38.6 -11.0365
      vertex 68.7135 39.8 -10.6183
      vertex 68.9266 39.8 -11.0365
    endloop
  endfacet
  facet normal -0.891007 -0 -0.453989
    outer loop
      vertex 68.7135 39.8 -10.6183
      vertex 68.9266 38.6 -11.0365
      vertex 68.7135 38.6 -10.6183
    endloop
  endfacet
  facet normal 0.987689 -2.54911e-006 0.156433
    outer loop
      vertex 66.0422 38.6 -11.7665
      vertex 66.0734 39.8 -11.9635
      vertex 66.0312 39.8 -11.697
    endloop
  endfacet
  facet normal 0.987686 0 0.156448
    outer loop
      vertex 66.0734 39.8 -11.9635
      vertex 66.0422 38.6 -11.7665
      vertex 66.0734 38.6 -11.9635
    endloop
  endfacet
  facet normal 0.707106 0 -0.707108
    outer loop
      vertex 66.2865 38.6 -10.6183
      vertex 66.6183 39.8 -10.2865
      vertex 66.6183 38.6 -10.2865
    endloop
  endfacet
  facet normal 0.707106 0 -0.707108
    outer loop
      vertex 66.6183 39.8 -10.2865
      vertex 66.2865 38.6 -10.6183
      vertex 66.2865 39.8 -10.6183
    endloop
  endfacet
  facet normal -0.453991 0 0.891006
    outer loop
      vertex 67.9635 39.8 -12.9266
      vertex 68.3817 38.6 -12.7135
      vertex 68.3817 39.8 -12.7135
    endloop
  endfacet
  facet normal -0.453991 0 0.891006
    outer loop
      vertex 68.3817 38.6 -12.7135
      vertex 67.9635 39.8 -12.9266
      vertex 67.9635 38.6 -12.9266
    endloop
  endfacet
  facet normal -0.707106 0 -0.707108
    outer loop
      vertex 68.3817 38.6 -10.2865
      vertex 68.7135 39.8 -10.6183
      vertex 68.7135 38.6 -10.6183
    endloop
  endfacet
  facet normal -0.707106 0 -0.707108
    outer loop
      vertex 68.7135 39.8 -10.6183
      vertex 68.3817 38.6 -10.2865
      vertex 68.3817 39.8 -10.2865
    endloop
  endfacet
  facet normal -0.453991 0 -0.891006
    outer loop
      vertex 67.9635 38.6 -10.0734
      vertex 68.3817 39.8 -10.2865
      vertex 68.3817 38.6 -10.2865
    endloop
  endfacet
  facet normal -0.453991 0 -0.891006
    outer loop
      vertex 68.3817 39.8 -10.2865
      vertex 67.9635 38.6 -10.0734
      vertex 67.9635 39.8 -10.0734
    endloop
  endfacet
  facet normal 0.453991 0 -0.891006
    outer loop
      vertex 66.6183 38.6 -10.2865
      vertex 67.0365 39.8 -10.0734
      vertex 67.0365 38.6 -10.0734
    endloop
  endfacet
  facet normal 0.453991 0 -0.891006
    outer loop
      vertex 67.0365 39.8 -10.0734
      vertex 66.6183 38.6 -10.2865
      vertex 66.6183 39.8 -10.2865
    endloop
  endfacet
  facet normal -0.707106 0 0.707108
    outer loop
      vertex 68.3817 39.8 -12.7135
      vertex 68.7135 38.6 -12.3817
      vertex 68.7135 39.8 -12.3817
    endloop
  endfacet
  facet normal -0.707106 0 0.707108
    outer loop
      vertex 68.7135 38.6 -12.3817
      vertex 68.3817 39.8 -12.7135
      vertex 68.3817 38.6 -12.7135
    endloop
  endfacet
  facet normal 0.156436 0 0.987688
    outer loop
      vertex 67.0365 39.8 -12.9266
      vertex 67.5 38.6 -13
      vertex 67.5 39.8 -13
    endloop
  endfacet
  facet normal 0.156436 0 0.987688
    outer loop
      vertex 67.5 38.6 -13
      vertex 67.0365 39.8 -12.9266
      vertex 67.0365 38.6 -12.9266
    endloop
  endfacet
  facet normal 0.891007 0 -0.453989
    outer loop
      vertex 66.2865 38.6 -10.6183
      vertex 66.0734 39.8 -11.0365
      vertex 66.2865 39.8 -10.6183
    endloop
  endfacet
  facet normal 0.891007 0 -0.453989
    outer loop
      vertex 66.0734 39.8 -11.0365
      vertex 66.2865 38.6 -10.6183
      vertex 66.0734 38.6 -11.0365
    endloop
  endfacet
  facet normal 0.987686 0 -0.156448
    outer loop
      vertex 66.0734 38.6 -11.0365
      vertex 66.0422 39.8 -11.2335
      vertex 66.0734 39.8 -11.0365
    endloop
  endfacet
  facet normal 0.987689 2.54911e-006 -0.156433
    outer loop
      vertex 66.0422 39.8 -11.2335
      vertex 66.0734 38.6 -11.0365
      vertex 66.0312 38.6 -11.303
    endloop
  endfacet
  facet normal 0.707106 0 0.707108
    outer loop
      vertex 66.2865 39.8 -12.3817
      vertex 66.6183 38.6 -12.7135
      vertex 66.6183 39.8 -12.7135
    endloop
  endfacet
  facet normal 0.707106 0 0.707108
    outer loop
      vertex 66.6183 38.6 -12.7135
      vertex 66.2865 39.8 -12.3817
      vertex 66.2865 38.6 -12.3817
    endloop
  endfacet
  facet normal 0.891007 -0 0.453989
    outer loop
      vertex 66.0734 38.6 -11.9635
      vertex 66.2865 39.8 -12.3817
      vertex 66.0734 39.8 -11.9635
    endloop
  endfacet
  facet normal 0.891007 0 0.453989
    outer loop
      vertex 66.2865 39.8 -12.3817
      vertex 66.0734 38.6 -11.9635
      vertex 66.2865 38.6 -12.3817
    endloop
  endfacet
  facet normal -0.156436 0 0.987688
    outer loop
      vertex 67.5 39.8 -13
      vertex 67.9635 38.6 -12.9266
      vertex 67.9635 39.8 -12.9266
    endloop
  endfacet
  facet normal -0.156436 0 0.987688
    outer loop
      vertex 67.9635 38.6 -12.9266
      vertex 67.5 39.8 -13
      vertex 67.5 38.6 -13
    endloop
  endfacet
  facet normal -0.156434 0 -0.987688
    outer loop
      vertex 67.5 38.6 -10
      vertex 67.9635 39.8 -10.0734
      vertex 67.9635 38.6 -10.0734
    endloop
  endfacet
  facet normal -0.156434 0 -0.987688
    outer loop
      vertex 67.9635 39.8 -10.0734
      vertex 67.5 38.6 -10
      vertex 67.5 39.8 -10
    endloop
  endfacet
  facet normal 0.156434 0 -0.987688
    outer loop
      vertex 67.0365 38.6 -10.0734
      vertex 67.5 39.8 -10
      vertex 67.5 38.6 -10
    endloop
  endfacet
  facet normal 0.156434 0 -0.987688
    outer loop
      vertex 67.5 39.8 -10
      vertex 67.0365 38.6 -10.0734
      vertex 67.0365 39.8 -10.0734
    endloop
  endfacet
  facet normal 0.987689 2.51668e-006 -0.156433
    outer loop
      vertex 66.0312 38.6 -11.303
      vertex 66 39.8 -11.5
      vertex 66.0422 39.8 -11.2335
    endloop
  endfacet
  facet normal 0.987686 -1.24334e-007 -0.156448
    outer loop
      vertex 66 39.8 -11.5
      vertex 66.0312 38.6 -11.303
      vertex 66 38.6 -11.5
    endloop
  endfacet
  facet normal 0.987686 1.24334e-007 0.156448
    outer loop
      vertex 66 38.6 -11.5
      vertex 66.0312 39.8 -11.697
      vertex 66 39.8 -11.5
    endloop
  endfacet
  facet normal 0.987689 -2.51668e-006 0.156433
    outer loop
      vertex 66.0312 39.8 -11.697
      vertex 66 38.6 -11.5
      vertex 66.0422 38.6 -11.7665
    endloop
  endfacet
  facet normal 0.453991 0 0.891006
    outer loop
      vertex 66.6183 39.8 -12.7135
      vertex 67.0365 38.6 -12.9266
      vertex 67.0365 39.8 -12.9266
    endloop
  endfacet
  facet normal 0.453991 0 0.891006
    outer loop
      vertex 67.0365 38.6 -12.9266
      vertex 66.6183 39.8 -12.7135
      vertex 66.6183 38.6 -12.7135
    endloop
  endfacet
  facet normal -0.891007 0 0.453989
    outer loop
      vertex 68.7135 38.6 -12.3817
      vertex 68.9266 39.8 -11.9635
      vertex 68.7135 39.8 -12.3817
    endloop
  endfacet
  facet normal -0.891007 0 0.453989
    outer loop
      vertex 68.9266 39.8 -11.9635
      vertex 68.7135 38.6 -12.3817
      vertex 68.9266 38.6 -11.9635
    endloop
  endfacet
  facet normal -0.987688 0 0.15644
    outer loop
      vertex 68.9266 38.6 -11.9635
      vertex 69 39.8 -11.5
      vertex 68.9266 39.8 -11.9635
    endloop
  endfacet
  facet normal -0.987688 0 0.15644
    outer loop
      vertex 69 39.8 -11.5
      vertex 68.9266 38.6 -11.9635
      vertex 69 38.6 -11.5
    endloop
  endfacet
  facet normal -0.987688 0 -0.15644
    outer loop
      vertex -66 38.6 11.5
      vertex -66.0734 39.8 11.9635
      vertex -66 39.8 11.5
    endloop
  endfacet
  facet normal -0.987688 -0 -0.15644
    outer loop
      vertex -66.0734 39.8 11.9635
      vertex -66 38.6 11.5
      vertex -66.0734 38.6 11.9635
    endloop
  endfacet
  facet normal -0.891007 0 -0.453989
    outer loop
      vertex -66.0734 38.6 11.9635
      vertex -66.2865 39.8 12.3817
      vertex -66.0734 39.8 11.9635
    endloop
  endfacet
  facet normal -0.891007 -0 -0.453989
    outer loop
      vertex -66.2865 39.8 12.3817
      vertex -66.0734 38.6 11.9635
      vertex -66.2865 38.6 12.3817
    endloop
  endfacet
  facet normal -0.156436 0 -0.987688
    outer loop
      vertex -67.5 38.6 13
      vertex -67.0365 39.8 12.9266
      vertex -67.0365 38.6 12.9266
    endloop
  endfacet
  facet normal -0.156436 0 -0.987688
    outer loop
      vertex -67.0365 39.8 12.9266
      vertex -67.5 38.6 13
      vertex -67.5 39.8 13
    endloop
  endfacet
  facet normal -0.453991 0 0.891006
    outer loop
      vertex -67.0365 39.8 10.0734
      vertex -66.6183 38.6 10.2865
      vertex -66.6183 39.8 10.2865
    endloop
  endfacet
  facet normal -0.453991 0 0.891006
    outer loop
      vertex -66.6183 38.6 10.2865
      vertex -67.0365 39.8 10.0734
      vertex -67.0365 38.6 10.0734
    endloop
  endfacet
  facet normal -0.707106 0 -0.707108
    outer loop
      vertex -66.6183 38.6 12.7135
      vertex -66.2865 39.8 12.3817
      vertex -66.2865 38.6 12.3817
    endloop
  endfacet
  facet normal -0.707106 0 -0.707108
    outer loop
      vertex -66.2865 39.8 12.3817
      vertex -66.6183 38.6 12.7135
      vertex -66.6183 39.8 12.7135
    endloop
  endfacet
  facet normal 0.453991 0 -0.891006
    outer loop
      vertex -68.3817 38.6 12.7135
      vertex -67.9635 39.8 12.9266
      vertex -67.9635 38.6 12.9266
    endloop
  endfacet
  facet normal 0.453991 0 -0.891006
    outer loop
      vertex -67.9635 39.8 12.9266
      vertex -68.3817 38.6 12.7135
      vertex -68.3817 39.8 12.7135
    endloop
  endfacet
  facet normal -0.707106 0 0.707108
    outer loop
      vertex -66.6183 39.8 10.2865
      vertex -66.2865 38.6 10.6183
      vertex -66.2865 39.8 10.6183
    endloop
  endfacet
  facet normal -0.707106 0 0.707108
    outer loop
      vertex -66.2865 38.6 10.6183
      vertex -66.6183 39.8 10.2865
      vertex -66.6183 38.6 10.2865
    endloop
  endfacet
  facet normal 0.156436 0 -0.987688
    outer loop
      vertex -67.9635 38.6 12.9266
      vertex -67.5 39.8 13
      vertex -67.5 38.6 13
    endloop
  endfacet
  facet normal 0.156436 0 -0.987688
    outer loop
      vertex -67.5 39.8 13
      vertex -67.9635 38.6 12.9266
      vertex -67.9635 39.8 12.9266
    endloop
  endfacet
  facet normal -0.453991 0 -0.891006
    outer loop
      vertex -67.0365 38.6 12.9266
      vertex -66.6183 39.8 12.7135
      vertex -66.6183 38.6 12.7135
    endloop
  endfacet
  facet normal -0.453991 0 -0.891006
    outer loop
      vertex -66.6183 39.8 12.7135
      vertex -67.0365 38.6 12.9266
      vertex -67.0365 39.8 12.9266
    endloop
  endfacet
  facet normal 0.707106 0 -0.707108
    outer loop
      vertex -68.7135 38.6 12.3817
      vertex -68.3817 39.8 12.7135
      vertex -68.3817 38.6 12.7135
    endloop
  endfacet
  facet normal 0.707106 0 -0.707108
    outer loop
      vertex -68.3817 39.8 12.7135
      vertex -68.7135 38.6 12.3817
      vertex -68.7135 39.8 12.3817
    endloop
  endfacet
  facet normal 0.156434 0 0.987688
    outer loop
      vertex -67.9635 39.8 10.0734
      vertex -67.5 38.6 10
      vertex -67.5 39.8 10
    endloop
  endfacet
  facet normal 0.156434 0 0.987688
    outer loop
      vertex -67.5 38.6 10
      vertex -67.9635 39.8 10.0734
      vertex -67.9635 38.6 10.0734
    endloop
  endfacet
  facet normal 0.987688 -0 0.156439
    outer loop
      vertex -69 38.6 11.5
      vertex -68.9266 39.8 11.0365
      vertex -69 39.8 11.5
    endloop
  endfacet
  facet normal 0.987688 0 0.156439
    outer loop
      vertex -68.9266 39.8 11.0365
      vertex -69 38.6 11.5
      vertex -68.9266 38.6 11.0365
    endloop
  endfacet
  facet normal -0.156434 0 0.987688
    outer loop
      vertex -67.5 39.8 10
      vertex -67.0365 38.6 10.0734
      vertex -67.0365 39.8 10.0734
    endloop
  endfacet
  facet normal -0.156434 0 0.987688
    outer loop
      vertex -67.0365 38.6 10.0734
      vertex -67.5 39.8 10
      vertex -67.5 38.6 10
    endloop
  endfacet
  facet normal 0.891007 0 -0.453989
    outer loop
      vertex -68.7135 38.6 12.3817
      vertex -68.9266 39.8 11.9635
      vertex -68.7135 39.8 12.3817
    endloop
  endfacet
  facet normal 0.891007 0 -0.453989
    outer loop
      vertex -68.9266 39.8 11.9635
      vertex -68.7135 38.6 12.3817
      vertex -68.9266 38.6 11.9635
    endloop
  endfacet
  facet normal 0.987688 0 -0.15644
    outer loop
      vertex -68.9266 38.6 11.9635
      vertex -69 39.8 11.5
      vertex -68.9266 39.8 11.9635
    endloop
  endfacet
  facet normal 0.987688 0 -0.15644
    outer loop
      vertex -69 39.8 11.5
      vertex -68.9266 38.6 11.9635
      vertex -69 38.6 11.5
    endloop
  endfacet
  facet normal 0.891007 -0 0.453989
    outer loop
      vertex -68.9266 38.6 11.0365
      vertex -68.7135 39.8 10.6183
      vertex -68.9266 39.8 11.0365
    endloop
  endfacet
  facet normal 0.891007 0 0.453989
    outer loop
      vertex -68.7135 39.8 10.6183
      vertex -68.9266 38.6 11.0365
      vertex -68.7135 38.6 10.6183
    endloop
  endfacet
  facet normal 0.707106 0 0.707108
    outer loop
      vertex -68.7135 39.8 10.6183
      vertex -68.3817 38.6 10.2865
      vertex -68.3817 39.8 10.2865
    endloop
  endfacet
  facet normal 0.707106 0 0.707108
    outer loop
      vertex -68.3817 38.6 10.2865
      vertex -68.7135 39.8 10.6183
      vertex -68.7135 38.6 10.6183
    endloop
  endfacet
  facet normal -0.891007 0 0.453989
    outer loop
      vertex -66.2865 38.6 10.6183
      vertex -66.0734 39.8 11.0365
      vertex -66.2865 39.8 10.6183
    endloop
  endfacet
  facet normal -0.891007 0 0.453989
    outer loop
      vertex -66.0734 39.8 11.0365
      vertex -66.2865 38.6 10.6183
      vertex -66.0734 38.6 11.0365
    endloop
  endfacet
  facet normal -0.987688 0 0.156439
    outer loop
      vertex -66.0734 38.6 11.0365
      vertex -66 39.8 11.5
      vertex -66.0734 39.8 11.0365
    endloop
  endfacet
  facet normal -0.987688 0 0.156439
    outer loop
      vertex -66 39.8 11.5
      vertex -66.0734 38.6 11.0365
      vertex -66 38.6 11.5
    endloop
  endfacet
  facet normal 0.453991 0 0.891006
    outer loop
      vertex -68.3817 39.8 10.2865
      vertex -67.9635 38.6 10.0734
      vertex -67.9635 39.8 10.0734
    endloop
  endfacet
  facet normal 0.453991 0 0.891006
    outer loop
      vertex -67.9635 38.6 10.0734
      vertex -68.3817 39.8 10.2865
      vertex -68.3817 38.6 10.2865
    endloop
  endfacet
  facet normal -0.987688 0 -0.156439
    outer loop
      vertex -66 38.6 -11.5
      vertex -66.0734 39.8 -11.0365
      vertex -66 39.8 -11.5
    endloop
  endfacet
  facet normal -0.987688 -0 -0.156439
    outer loop
      vertex -66.0734 39.8 -11.0365
      vertex -66 38.6 -11.5
      vertex -66.0734 38.6 -11.0365
    endloop
  endfacet
  facet normal -0.891007 0 -0.453989
    outer loop
      vertex -66.0734 38.6 -11.0365
      vertex -66.2865 39.8 -10.6183
      vertex -66.0734 39.8 -11.0365
    endloop
  endfacet
  facet normal -0.891007 -0 -0.453989
    outer loop
      vertex -66.2865 39.8 -10.6183
      vertex -66.0734 38.6 -11.0365
      vertex -66.2865 38.6 -10.6183
    endloop
  endfacet
  facet normal 0.891007 -0 0.453989
    outer loop
      vertex -68.9266 38.6 -11.9635
      vertex -68.7135 39.8 -12.3817
      vertex -68.9266 39.8 -11.9635
    endloop
  endfacet
  facet normal 0.891007 0 0.453989
    outer loop
      vertex -68.7135 39.8 -12.3817
      vertex -68.9266 38.6 -11.9635
      vertex -68.7135 38.6 -12.3817
    endloop
  endfacet
  facet normal -0.453991 0 -0.891006
    outer loop
      vertex -67.0365 38.6 -10.0734
      vertex -66.6183 39.8 -10.2865
      vertex -66.6183 38.6 -10.2865
    endloop
  endfacet
  facet normal -0.453991 0 -0.891006
    outer loop
      vertex -66.6183 39.8 -10.2865
      vertex -67.0365 38.6 -10.0734
      vertex -67.0365 39.8 -10.0734
    endloop
  endfacet
  facet normal 0.707106 0 -0.707108
    outer loop
      vertex -68.7135 38.6 -10.6183
      vertex -68.3817 39.8 -10.2865
      vertex -68.3817 38.6 -10.2865
    endloop
  endfacet
  facet normal 0.707106 0 -0.707108
    outer loop
      vertex -68.3817 39.8 -10.2865
      vertex -68.7135 38.6 -10.6183
      vertex -68.7135 39.8 -10.6183
    endloop
  endfacet
  facet normal -0.707106 0 -0.707108
    outer loop
      vertex -66.6183 38.6 -10.2865
      vertex -66.2865 39.8 -10.6183
      vertex -66.2865 38.6 -10.6183
    endloop
  endfacet
  facet normal -0.707106 0 -0.707108
    outer loop
      vertex -66.2865 39.8 -10.6183
      vertex -66.6183 38.6 -10.2865
      vertex -66.6183 39.8 -10.2865
    endloop
  endfacet
  facet normal 0.987686 1.24334e-007 0.156448
    outer loop
      vertex -69 38.6 -11.5
      vertex -68.9688 39.8 -11.697
      vertex -69 39.8 -11.5
    endloop
  endfacet
  facet normal 0.987689 -2.51668e-006 0.156433
    outer loop
      vertex -68.9688 39.8 -11.697
      vertex -69 38.6 -11.5
      vertex -68.9578 38.6 -11.7665
    endloop
  endfacet
  facet normal -0.891007 0 0.453989
    outer loop
      vertex -66.2865 38.6 -12.3817
      vertex -66.0734 39.8 -11.9635
      vertex -66.2865 39.8 -12.3817
    endloop
  endfacet
  facet normal -0.891007 0 0.453989
    outer loop
      vertex -66.0734 39.8 -11.9635
      vertex -66.2865 38.6 -12.3817
      vertex -66.0734 38.6 -11.9635
    endloop
  endfacet
  facet normal 0.707106 0 0.707108
    outer loop
      vertex -68.7135 39.8 -12.3817
      vertex -68.3817 38.6 -12.7135
      vertex -68.3817 39.8 -12.7135
    endloop
  endfacet
  facet normal 0.707106 0 0.707108
    outer loop
      vertex -68.3817 38.6 -12.7135
      vertex -68.7135 39.8 -12.3817
      vertex -68.7135 38.6 -12.3817
    endloop
  endfacet
  facet normal 0.987689 -2.54911e-006 0.156433
    outer loop
      vertex -68.9578 38.6 -11.7665
      vertex -68.9266 39.8 -11.9635
      vertex -68.9688 39.8 -11.697
    endloop
  endfacet
  facet normal 0.987686 0 0.156448
    outer loop
      vertex -68.9266 39.8 -11.9635
      vertex -68.9578 38.6 -11.7665
      vertex -68.9266 38.6 -11.9635
    endloop
  endfacet
  facet normal 0.453991 0 -0.891006
    outer loop
      vertex -68.3817 38.6 -10.2865
      vertex -67.9635 39.8 -10.0734
      vertex -67.9635 38.6 -10.0734
    endloop
  endfacet
  facet normal 0.453991 0 -0.891006
    outer loop
      vertex -67.9635 39.8 -10.0734
      vertex -68.3817 38.6 -10.2865
      vertex -68.3817 39.8 -10.2865
    endloop
  endfacet
  facet normal 0.987689 2.51668e-006 -0.156433
    outer loop
      vertex -68.9688 38.6 -11.303
      vertex -69 39.8 -11.5
      vertex -68.9578 39.8 -11.2335
    endloop
  endfacet
  facet normal 0.987686 -1.24334e-007 -0.156448
    outer loop
      vertex -69 39.8 -11.5
      vertex -68.9688 38.6 -11.303
      vertex -69 38.6 -11.5
    endloop
  endfacet
  facet normal -0.987688 0 0.15644
    outer loop
      vertex -66.0734 38.6 -11.9635
      vertex -66 39.8 -11.5
      vertex -66.0734 39.8 -11.9635
    endloop
  endfacet
  facet normal -0.987688 0 0.15644
    outer loop
      vertex -66 39.8 -11.5
      vertex -66.0734 38.6 -11.9635
      vertex -66 38.6 -11.5
    endloop
  endfacet
  facet normal -0.156436 0 0.987688
    outer loop
      vertex -67.5 39.8 -13
      vertex -67.0365 38.6 -12.9266
      vertex -67.0365 39.8 -12.9266
    endloop
  endfacet
  facet normal -0.156436 0 0.987688
    outer loop
      vertex -67.0365 38.6 -12.9266
      vertex -67.5 39.8 -13
      vertex -67.5 38.6 -13
    endloop
  endfacet
  facet normal -0.156434 0 -0.987688
    outer loop
      vertex -67.5 38.6 -10
      vertex -67.0365 39.8 -10.0734
      vertex -67.0365 38.6 -10.0734
    endloop
  endfacet
  facet normal -0.156434 0 -0.987688
    outer loop
      vertex -67.0365 39.8 -10.0734
      vertex -67.5 38.6 -10
      vertex -67.5 39.8 -10
    endloop
  endfacet
  facet normal 0.156434 0 -0.987688
    outer loop
      vertex -67.9635 38.6 -10.0734
      vertex -67.5 39.8 -10
      vertex -67.5 38.6 -10
    endloop
  endfacet
  facet normal 0.156434 0 -0.987688
    outer loop
      vertex -67.5 39.8 -10
      vertex -67.9635 38.6 -10.0734
      vertex -67.9635 39.8 -10.0734
    endloop
  endfacet
  facet normal 0.987686 0 -0.156448
    outer loop
      vertex -68.9266 38.6 -11.0365
      vertex -68.9578 39.8 -11.2335
      vertex -68.9266 39.8 -11.0365
    endloop
  endfacet
  facet normal 0.987689 2.54911e-006 -0.156433
    outer loop
      vertex -68.9578 39.8 -11.2335
      vertex -68.9266 38.6 -11.0365
      vertex -68.9688 38.6 -11.303
    endloop
  endfacet
  facet normal 0.891007 0 -0.453989
    outer loop
      vertex -68.7135 38.6 -10.6183
      vertex -68.9266 39.8 -11.0365
      vertex -68.7135 39.8 -10.6183
    endloop
  endfacet
  facet normal 0.891007 0 -0.453989
    outer loop
      vertex -68.9266 39.8 -11.0365
      vertex -68.7135 38.6 -10.6183
      vertex -68.9266 38.6 -11.0365
    endloop
  endfacet
  facet normal -0.707106 0 0.707108
    outer loop
      vertex -66.6183 39.8 -12.7135
      vertex -66.2865 38.6 -12.3817
      vertex -66.2865 39.8 -12.3817
    endloop
  endfacet
  facet normal -0.707106 0 0.707108
    outer loop
      vertex -66.2865 38.6 -12.3817
      vertex -66.6183 39.8 -12.7135
      vertex -66.6183 38.6 -12.7135
    endloop
  endfacet
  facet normal -0.453991 0 0.891006
    outer loop
      vertex -67.0365 39.8 -12.9266
      vertex -66.6183 38.6 -12.7135
      vertex -66.6183 39.8 -12.7135
    endloop
  endfacet
  facet normal -0.453991 0 0.891006
    outer loop
      vertex -66.6183 38.6 -12.7135
      vertex -67.0365 39.8 -12.9266
      vertex -67.0365 38.6 -12.9266
    endloop
  endfacet
  facet normal 0.453991 0 0.891006
    outer loop
      vertex -68.3817 39.8 -12.7135
      vertex -67.9635 38.6 -12.9266
      vertex -67.9635 39.8 -12.9266
    endloop
  endfacet
  facet normal 0.453991 0 0.891006
    outer loop
      vertex -67.9635 38.6 -12.9266
      vertex -68.3817 39.8 -12.7135
      vertex -68.3817 38.6 -12.7135
    endloop
  endfacet
  facet normal 0.156436 0 0.987688
    outer loop
      vertex -67.9635 39.8 -12.9266
      vertex -67.5 38.6 -13
      vertex -67.5 39.8 -13
    endloop
  endfacet
  facet normal 0.156436 0 0.987688
    outer loop
      vertex -67.5 38.6 -13
      vertex -67.9635 39.8 -12.9266
      vertex -67.9635 38.6 -12.9266
    endloop
  endfacet
  facet normal -1 0 0
    outer loop
      vertex 12 39.8 -10
      vertex 12 45.8 10
      vertex 12 45.8 -10
    endloop
  endfacet
  facet normal -1 -0 0
    outer loop
      vertex 12 45.8 10
      vertex 12 39.8 -10
      vertex 12 39.8 10
    endloop
  endfacet
  facet normal 0 0 1
    outer loop
      vertex 22 45.8 10
      vertex 19.5 44.3 10
      vertex 22 39.8 10
    endloop
  endfacet
  facet normal 0 0 1
    outer loop
      vertex 22 45.8 10
      vertex 14.5 44.3 10
      vertex 19.5 44.3 10
    endloop
  endfacet
  facet normal 0 0 1
    outer loop
      vertex 14.5 44.3 10
      vertex 12 45.8 10
      vertex 14.5 41.3 10
    endloop
  endfacet
  facet normal -0 0 1
    outer loop
      vertex 12 45.8 10
      vertex 14.5 44.3 10
      vertex 22 45.8 10
    endloop
  endfacet
  facet normal -0 0 1
    outer loop
      vertex 19.5 41.3 10
      vertex 22 39.8 10
      vertex 19.5 44.3 10
    endloop
  endfacet
  facet normal -0 0 1
    outer loop
      vertex 14.5 41.3 10
      vertex 22 39.8 10
      vertex 19.5 41.3 10
    endloop
  endfacet
  facet normal 0 0 1
    outer loop
      vertex 14.5 41.3 10
      vertex 12 39.8 10
      vertex 22 39.8 10
    endloop
  endfacet
  facet normal 0 0 1
    outer loop
      vertex 12 39.8 10
      vertex 14.5 41.3 10
      vertex 12 45.8 10
    endloop
  endfacet
  facet normal 1 -0 0
    outer loop
      vertex 22 39.8 10
      vertex 22 45.8 -10
      vertex 22 45.8 10
    endloop
  endfacet
  facet normal 1 0 0
    outer loop
      vertex 22 45.8 -10
      vertex 22 39.8 10
      vertex 22 39.8 -10
    endloop
  endfacet
  facet normal 0 1 -0
    outer loop
      vertex 22 45.8 -10
      vertex 12 45.8 10
      vertex 22 45.8 10
    endloop
  endfacet
  facet normal 0 1 0
    outer loop
      vertex 12 45.8 10
      vertex 22 45.8 -10
      vertex 12 45.8 -10
    endloop
  endfacet
  facet normal 0 0 -1
    outer loop
      vertex 22 39.8 -10
      vertex 19.5 41.3 -10
      vertex 22 45.8 -10
    endloop
  endfacet
  facet normal 0 0 -1
    outer loop
      vertex 22 39.8 -10
      vertex 14.5 41.3 -10
      vertex 19.5 41.3 -10
    endloop
  endfacet
  facet normal -0 0 -1
    outer loop
      vertex 14.5 41.3 -10
      vertex 12 39.8 -10
      vertex 14.5 44.3 -10
    endloop
  endfacet
  facet normal 0 0 -1
    outer loop
      vertex 12 39.8 -10
      vertex 14.5 41.3 -10
      vertex 22 39.8 -10
    endloop
  endfacet
  facet normal 0 0 -1
    outer loop
      vertex 19.5 44.3 -10
      vertex 22 45.8 -10
      vertex 19.5 41.3 -10
    endloop
  endfacet
  facet normal 0 0 -1
    outer loop
      vertex 14.5 44.3 -10
      vertex 22 45.8 -10
      vertex 19.5 44.3 -10
    endloop
  endfacet
  facet normal 0 0 -1
    outer loop
      vertex 14.5 44.3 -10
      vertex 12 45.8 -10
      vertex 22 45.8 -10
    endloop
  endfacet
  facet normal 0 0 -1
    outer loop
      vertex 12 45.8 -10
      vertex 14.5 44.3 -10
      vertex 12 39.8 -10
    endloop
  endfacet
  facet normal 0 -1 0
    outer loop
      vertex 12 39.8 -10
      vertex 22 39.8 10
      vertex 12 39.8 10
    endloop
  endfacet
  facet normal 0 -1 -0
    outer loop
      vertex 22 39.8 10
      vertex 12 39.8 -10
      vertex 22 39.8 -10
    endloop
  endfacet
  facet normal 1 -0 0
    outer loop
      vertex 14.5 41.3 10
      vertex 14.5 44.3 -10
      vertex 14.5 44.3 10
    endloop
  endfacet
  facet normal 1 0 0
    outer loop
      vertex 14.5 44.3 -10
      vertex 14.5 41.3 10
      vertex 14.5 41.3 -10
    endloop
  endfacet
  facet normal -1 0 0
    outer loop
      vertex 19.5 41.3 -10
      vertex 19.5 44.3 10
      vertex 19.5 44.3 -10
    endloop
  endfacet
  facet normal -1 -0 0
    outer loop
      vertex 19.5 44.3 10
      vertex 19.5 41.3 -10
      vertex 19.5 41.3 10
    endloop
  endfacet
  facet normal 0 1 -0
    outer loop
      vertex 19.5 41.3 -10
      vertex 14.5 41.3 10
      vertex 19.5 41.3 10
    endloop
  endfacet
  facet normal 0 1 0
    outer loop
      vertex 14.5 41.3 10
      vertex 19.5 41.3 -10
      vertex 14.5 41.3 -10
    endloop
  endfacet
  facet normal 0 -1 0
    outer loop
      vertex 14.5 44.3 -10
      vertex 19.5 44.3 10
      vertex 14.5 44.3 10
    endloop
  endfacet
  facet normal 0 -1 -0
    outer loop
      vertex 19.5 44.3 10
      vertex 14.5 44.3 -10
      vertex 19.5 44.3 -10
    endloop
  endfacet
  facet normal -1 0 0
    outer loop
      vertex -38 39.8 -10
      vertex -38 45.8 10
      vertex -38 45.8 -10
    endloop
  endfacet
  facet normal -1 -0 0
    outer loop
      vertex -38 45.8 10
      vertex -38 39.8 -10
      vertex -38 39.8 10
    endloop
  endfacet
  facet normal 0 0 1
    outer loop
      vertex -28 45.8 10
      vertex -30.5 44.3 10
      vertex -28 39.8 10
    endloop
  endfacet
  facet normal 0 0 1
    outer loop
      vertex -28 45.8 10
      vertex -35.5 44.3 10
      vertex -30.5 44.3 10
    endloop
  endfacet
  facet normal 0 0 1
    outer loop
      vertex -35.5 44.3 10
      vertex -38 45.8 10
      vertex -35.5 41.3 10
    endloop
  endfacet
  facet normal -0 0 1
    outer loop
      vertex -38 45.8 10
      vertex -35.5 44.3 10
      vertex -28 45.8 10
    endloop
  endfacet
  facet normal -0 0 1
    outer loop
      vertex -30.5 41.3 10
      vertex -28 39.8 10
      vertex -30.5 44.3 10
    endloop
  endfacet
  facet normal -0 0 1
    outer loop
      vertex -35.5 41.3 10
      vertex -28 39.8 10
      vertex -30.5 41.3 10
    endloop
  endfacet
  facet normal 0 0 1
    outer loop
      vertex -35.5 41.3 10
      vertex -38 39.8 10
      vertex -28 39.8 10
    endloop
  endfacet
  facet normal 0 0 1
    outer loop
      vertex -38 39.8 10
      vertex -35.5 41.3 10
      vertex -38 45.8 10
    endloop
  endfacet
  facet normal 1 -0 0
    outer loop
      vertex -28 39.8 10
      vertex -28 45.8 -10
      vertex -28 45.8 10
    endloop
  endfacet
  facet normal 1 0 0
    outer loop
      vertex -28 45.8 -10
      vertex -28 39.8 10
      vertex -28 39.8 -10
    endloop
  endfacet
  facet normal 0 1 -0
    outer loop
      vertex -28 45.8 -10
      vertex -38 45.8 10
      vertex -28 45.8 10
    endloop
  endfacet
  facet normal 0 1 0
    outer loop
      vertex -38 45.8 10
      vertex -28 45.8 -10
      vertex -38 45.8 -10
    endloop
  endfacet
  facet normal 0 0 -1
    outer loop
      vertex -28 39.8 -10
      vertex -30.5 41.3 -10
      vertex -28 45.8 -10
    endloop
  endfacet
  facet normal 0 0 -1
    outer loop
      vertex -28 39.8 -10
      vertex -35.5 41.3 -10
      vertex -30.5 41.3 -10
    endloop
  endfacet
  facet normal -0 0 -1
    outer loop
      vertex -35.5 41.3 -10
      vertex -38 39.8 -10
      vertex -35.5 44.3 -10
    endloop
  endfacet
  facet normal 0 0 -1
    outer loop
      vertex -38 39.8 -10
      vertex -35.5 41.3 -10
      vertex -28 39.8 -10
    endloop
  endfacet
  facet normal 0 0 -1
    outer loop
      vertex -30.5 44.3 -10
      vertex -28 45.8 -10
      vertex -30.5 41.3 -10
    endloop
  endfacet
  facet normal 0 0 -1
    outer loop
      vertex -35.5 44.3 -10
      vertex -28 45.8 -10
      vertex -30.5 44.3 -10
    endloop
  endfacet
  facet normal 0 0 -1
    outer loop
      vertex -35.5 44.3 -10
      vertex -38 45.8 -10
      vertex -28 45.8 -10
    endloop
  endfacet
  facet normal 0 0 -1
    outer loop
      vertex -38 45.8 -10
      vertex -35.5 44.3 -10
      vertex -38 39.8 -10
    endloop
  endfacet
  facet normal 0 -1 0
    outer loop
      vertex -38 39.8 -10
      vertex -28 39.8 10
      vertex -38 39.8 10
    endloop
  endfacet
  facet normal 0 -1 -0
    outer loop
      vertex -28 39.8 10
      vertex -38 39.8 -10
      vertex -28 39.8 -10
    endloop
  endfacet
  facet normal 1 -0 0
    outer loop
      vertex -35.5 41.3 10
      vertex -35.5 44.3 -10
      vertex -35.5 44.3 10
    endloop
  endfacet
  facet normal 1 0 0
    outer loop
      vertex -35.5 44.3 -10
      vertex -35.5 41.3 10
      vertex -35.5 41.3 -10
    endloop
  endfacet
  facet normal -1 0 0
    outer loop
      vertex -30.5 41.3 -10
      vertex -30.5 44.3 10
      vertex -30.5 44.3 -10
    endloop
  endfacet
  facet normal -1 -0 0
    outer loop
      vertex -30.5 44.3 10
      vertex -30.5 41.3 -10
      vertex -30.5 41.3 10
    endloop
  endfacet
  facet normal 0 1 -0
    outer loop
      vertex -30.5 41.3 -10
      vertex -35.5 41.3 10
      vertex -30.5 41.3 10
    endloop
  endfacet
  facet normal 0 1 0
    outer loop
      vertex -35.5 41.3 10
      vertex -30.5 41.3 -10
      vertex -35.5 41.3 -10
    endloop
  endfacet
  facet normal 0 -1 0
    outer loop
      vertex -35.5 44.3 -10
      vertex -30.5 44.3 10
      vertex -35.5 44.3 10
    endloop
  endfacet
  facet normal 0 -1 -0
    outer loop
      vertex -30.5 44.3 10
      vertex -35.5 44.3 -10
      vertex -30.5 44.3 -10
    endloop
  endfacet
endsolid OpenSCAD_Model
